<?xml version="1.0" encoding="UTF-8" standalone="no"?>
<svg
   xmlns:dc="http://purl.org/dc/elements/1.1/"
   xmlns:cc="http://creativecommons.org/ns#"
   xmlns:rdf="http://www.w3.org/1999/02/22-rdf-syntax-ns#"
   xmlns:svg="http://www.w3.org/2000/svg"
   xmlns="http://www.w3.org/2000/svg"
   xmlns:xlink="http://www.w3.org/1999/xlink"
   xmlns:sodipodi="http://sodipodi.sourceforge.net/DTD/sodipodi-0.dtd"
   xmlns:inkscape="http://www.inkscape.org/namespaces/inkscape"
   class="svg-inline--fa fa-arrows-alt fa-w-16 tile-icon"
   version="1.1"
   id="svg1255"
   sodipodi:docname="carousel4.svg"
   width="512"
   height="512"
   inkscape:version="0.92.4 (5da689c313, 2019-01-14)">
  <metadata
     id="metadata1261">
    <rdf:RDF>
      <cc:Work
         rdf:about="">
        <dc:format>image/svg+xml</dc:format>
        <dc:type
           rdf:resource="http://purl.org/dc/dcmitype/StillImage" />
        <dc:title></dc:title>
      </cc:Work>
    </rdf:RDF>
  </metadata>
  <defs
     id="defs1259">
    <linearGradient
       inkscape:collect="always"
       id="linearGradient5793">
      <stop
         style="stop-color:#394422;stop-opacity:1"
         offset="0"
         id="stop5789" />
      <stop
         style="stop-color:#6b723f;stop-opacity:0.80555558"
         offset="1"
         id="stop5791" />
    </linearGradient>
    <linearGradient
       inkscape:collect="always"
       id="linearGradient5735">
      <stop
         style="stop-color:#988942;stop-opacity:1"
         offset="0"
         id="stop5731" />
      <stop
         style="stop-color:#7c7733;stop-opacity:1"
         offset="1"
         id="stop5733" />
    </linearGradient>
    <linearGradient
       id="linearGradient5250"
       inkscape:collect="always">
      <stop
         id="stop5246"
         offset="0"
         style="stop-color:#a4611c;stop-opacity:1" />
      <stop
         id="stop5248"
         offset="1"
         style="stop-color:#56321f;stop-opacity:1" />
    </linearGradient>
    <linearGradient
       inkscape:collect="always"
       id="linearGradient848">
      <stop
         style="stop-color:#7d4a15;stop-opacity:1"
         offset="0"
         id="stop844" />
      <stop
         style="stop-color:#b0873e;stop-opacity:1"
         offset="1"
         id="stop846" />
    </linearGradient>
    <radialGradient
       inkscape:collect="always"
       xlink:href="#linearGradient848"
       id="radialGradient850"
       cx="293.9361"
       cy="466.18439"
       fx="293.9361"
       fy="466.18439"
       r="72.588905"
       gradientTransform="matrix(1.5025502,-0.02576594,0.0311005,1.8136378,-578.09626,-375.05048)"
       gradientUnits="userSpaceOnUse" />
    <radialGradient
       inkscape:collect="always"
       xlink:href="#linearGradient5250"
       id="radialGradient5244"
       cx="187.76682"
       cy="400.96442"
       fx="187.76682"
       fy="400.96442"
       r="28.637825"
       gradientTransform="matrix(0.02940163,0.54856303,-3.0202678,0.16187897,997.60693,295.89561)"
       gradientUnits="userSpaceOnUse" />
    <radialGradient
       inkscape:collect="always"
       xlink:href="#linearGradient5250"
       id="radialGradient5244-3"
       cx="187.76682"
       cy="400.96442"
       fx="187.76682"
       fy="400.96442"
       r="28.637825"
       gradientTransform="matrix(-0.50010958,0.22732412,-1.2515968,-2.7534937,474.81553,1454.8018)"
       gradientUnits="userSpaceOnUse" />
    <radialGradient
       inkscape:collect="always"
       xlink:href="#linearGradient5250"
       id="radialGradient5244-3-5"
       cx="187.76682"
       cy="400.96442"
       fx="187.76682"
       fy="400.96442"
       r="28.637825"
       gradientTransform="matrix(0.51630941,0.18764445,-1.0331292,2.8426864,118.31244,-1074.5545)"
       gradientUnits="userSpaceOnUse" />
    <radialGradient
       inkscape:collect="always"
       xlink:href="#linearGradient848"
       id="radialGradient850-1"
       cx="293.9361"
       cy="466.18439"
       fx="293.9361"
       fy="466.18439"
       r="72.588905"
       gradientTransform="matrix(1.5025502,-0.02576594,0.0311005,1.8136378,-820.95453,-538.03613)"
       gradientUnits="userSpaceOnUse" />
    <radialGradient
       inkscape:collect="always"
       xlink:href="#linearGradient5250"
       id="radialGradient5244-3-0"
       cx="187.76682"
       cy="400.96442"
       fx="187.76682"
       fy="400.96442"
       r="28.637825"
       gradientTransform="matrix(-0.52008201,-0.17691963,0.97408067,-2.8634575,-650.07717,1400.1254)"
       gradientUnits="userSpaceOnUse" />
    <radialGradient
       inkscape:collect="always"
       xlink:href="#linearGradient5250"
       id="radialGradient5244-7"
       cx="187.76682"
       cy="400.96442"
       fx="187.76682"
       fy="400.96442"
       r="28.637825"
       gradientTransform="matrix(-0.14643179,0.52947482,-2.9151723,-0.80622129,761.52346,492.04787)"
       gradientUnits="userSpaceOnUse" />
    <radialGradient
       inkscape:collect="always"
       xlink:href="#linearGradient5250"
       id="radialGradient5244-7-7"
       cx="187.76682"
       cy="400.96442"
       fx="187.76682"
       fy="400.96442"
       r="28.637825"
       gradientTransform="matrix(0.43713268,0.33271741,-1.8318691,2.4067567,226.77758,-704.61854)"
       gradientUnits="userSpaceOnUse" />
    <radialGradient
       inkscape:collect="always"
       xlink:href="#linearGradient5250"
       id="radialGradient5244-7-7-9"
       cx="187.76682"
       cy="400.96442"
       fx="187.76682"
       fy="400.96442"
       r="28.637825"
       gradientTransform="matrix(0.46267346,-0.29617414,1.6306699,2.5473786,-1096.1429,-593.13139)"
       gradientUnits="userSpaceOnUse" />
    <radialGradient
       inkscape:collect="always"
       xlink:href="#linearGradient5250"
       id="radialGradient5244-7-7-9-3"
       cx="187.76682"
       cy="400.96442"
       fx="187.76682"
       fy="400.96442"
       r="28.637825"
       gradientTransform="matrix(0.04841561,-0.54721274,3.0128333,0.26656571,-1513.551,309.94181)"
       gradientUnits="userSpaceOnUse" />
    <radialGradient
       inkscape:collect="always"
       xlink:href="#linearGradient848"
       id="radialGradient850-1-2"
       cx="293.9361"
       cy="466.18439"
       fx="293.9361"
       fy="466.18439"
       r="72.588905"
       gradientTransform="matrix(-0.8389696,-1.2467763,1.5049085,-1.0126696,191.81141,969.74019)"
       gradientUnits="userSpaceOnUse" />
    <radialGradient
       inkscape:collect="always"
       xlink:href="#linearGradient5250"
       id="radialGradient5244-7-4"
       cx="187.76682"
       cy="400.96442"
       fx="187.76682"
       fy="400.96442"
       r="28.637825"
       gradientTransform="matrix(0.48680892,0.25456419,-1.4015745,2.6802632,1083.989,-913.47847)"
       gradientUnits="userSpaceOnUse" />
    <radialGradient
       inkscape:collect="always"
       xlink:href="#linearGradient5250"
       id="radialGradient5244-7-7-9-0"
       cx="187.76682"
       cy="400.96442"
       fx="187.76682"
       fy="400.96442"
       r="28.637825"
       gradientTransform="matrix(-0.3001435,-0.4601084,2.533256,-1.6525243,-244.67777,843.77321)"
       gradientUnits="userSpaceOnUse" />
    <radialGradient
       inkscape:collect="always"
       xlink:href="#linearGradient5250"
       id="radialGradient5244-7-7-4"
       cx="187.76682"
       cy="400.96442"
       fx="187.76682"
       fy="400.96442"
       r="28.637825"
       gradientTransform="matrix(0.34654517,-0.42625379,2.3468599,1.9080018,-298.62038,-485.4787)"
       gradientUnits="userSpaceOnUse" />
    <radialGradient
       inkscape:collect="always"
       xlink:href="#linearGradient5250"
       id="radialGradient5244-3-0-1"
       cx="187.76682"
       cy="400.96442"
       fx="187.76682"
       fy="400.96442"
       r="28.637825"
       gradientTransform="matrix(-0.35615319,0.4182592,-2.3028435,-1.9609014,1586.5164,820.40323)"
       gradientUnits="userSpaceOnUse" />
    <radialGradient
       inkscape:collect="always"
       xlink:href="#linearGradient848"
       id="radialGradient850-9"
       cx="293.9361"
       cy="466.18439"
       fx="293.9361"
       fy="466.18439"
       r="72.588905"
       gradientTransform="matrix(-1.3888797,0.02150125,-0.02874769,-1.5134503,254.25255,740.26275)"
       gradientUnits="userSpaceOnUse" />
    <radialGradient
       inkscape:collect="always"
       xlink:href="#linearGradient5250"
       id="radialGradient5244-3-8"
       cx="187.76682"
       cy="400.96442"
       fx="187.76682"
       fy="400.96442"
       r="28.637825"
       gradientTransform="matrix(0.41960567,-0.27004488,1.5574338,2.0226521,-824.22953,-665.75992)"
       gradientUnits="userSpaceOnUse" />
    <radialGradient
       inkscape:collect="always"
       xlink:href="#linearGradient5250"
       id="radialGradient5244-5"
       cx="187.76682"
       cy="400.96442"
       fx="187.76682"
       fy="400.96442"
       r="28.637825"
       gradientTransform="matrix(0.031085,-0.45310039,2.7859339,0.22472604,-1219.9232,28.327948)"
       gradientUnits="userSpaceOnUse" />
    <radialGradient
       inkscape:collect="always"
       xlink:href="#linearGradient5250"
       id="radialGradient5244-3-5-1"
       cx="187.76682"
       cy="400.96442"
       fx="187.76682"
       fy="400.96442"
       r="28.637825"
       gradientTransform="matrix(0.06045048,0.54601427,-3.0062349,0.3328271,955.5801,-190.6276)"
       gradientUnits="userSpaceOnUse" />
    <radialGradient
       inkscape:collect="always"
       xlink:href="#linearGradient5735"
       id="radialGradient5737"
       cx="255.97237"
       cy="114.52694"
       fx="255.97237"
       fy="114.52694"
       r="104.94893"
       gradientTransform="matrix(1.7381418,1.0199501,-0.17019017,0.29002859,-175.28245,-202.66259)"
       gradientUnits="userSpaceOnUse" />
    <radialGradient
       inkscape:collect="always"
       xlink:href="#linearGradient5735"
       id="radialGradient5737-3"
       cx="255.97237"
       cy="114.52694"
       fx="255.97237"
       fy="114.52694"
       r="104.94893"
       gradientTransform="matrix(-1.6980973,1.0866322,-0.23860924,-0.35954877,708.69169,-4.0573097)"
       gradientUnits="userSpaceOnUse" />
    <radialGradient
       inkscape:collect="always"
       xlink:href="#linearGradient5735"
       id="radialGradient5737-3-2"
       cx="255.97237"
       cy="114.52694"
       fx="255.97237"
       fy="114.52694"
       r="104.94893"
       gradientTransform="matrix(-2.306937,-0.96483662,0.20047679,-0.50954557,825.81719,710.17845)"
       gradientUnits="userSpaceOnUse" />
    <radialGradient
       inkscape:collect="always"
       xlink:href="#linearGradient5793"
       id="radialGradient5795"
       cx="377.73737"
       cy="157.55377"
       fx="377.73737"
       fy="157.55377"
       r="101.4011"
       gradientTransform="matrix(0.98149865,-1.0181466,1.3979504,1.3476314,-213.26369,329.82136)"
       gradientUnits="userSpaceOnUse" />
    <radialGradient
       inkscape:collect="always"
       xlink:href="#linearGradient5793"
       id="radialGradient5795-7"
       cx="377.73737"
       cy="157.55377"
       fx="377.73737"
       fy="157.55377"
       r="101.4011"
       gradientTransform="matrix(-0.25037086,-1.3918608,1.9110728,-0.34376788,-75.000451,916.55726)"
       gradientUnits="userSpaceOnUse" />
    <radialGradient
       inkscape:collect="always"
       xlink:href="#linearGradient5793"
       id="radialGradient5795-7-5"
       cx="377.73737"
       cy="157.55377"
       fx="377.73737"
       fy="157.55377"
       r="101.4011"
       gradientTransform="matrix(-0.96121715,-1.0373156,1.42427,-1.3197843,560.1762,1056.5684)"
       gradientUnits="userSpaceOnUse" />
    <radialGradient
       inkscape:collect="always"
       xlink:href="#linearGradient5793"
       id="radialGradient5795-7-5-2"
       cx="377.73737"
       cy="157.55377"
       fx="377.73737"
       fy="157.55377"
       r="101.4011"
       gradientTransform="matrix(1.2894146,0.83891924,-1.910572,1.0673631,-64.599767,-440.39419)"
       gradientUnits="userSpaceOnUse" />
    <radialGradient
       inkscape:collect="always"
       xlink:href="#linearGradient5250"
       id="radialGradient5880"
       gradientUnits="userSpaceOnUse"
       gradientTransform="matrix(0.02940163,0.54856303,-3.0202678,0.16187897,997.60693,295.89561)"
       cx="187.76682"
       cy="400.96442"
       fx="187.76682"
       fy="400.96442"
       r="28.637825" />
    <radialGradient
       inkscape:collect="always"
       xlink:href="#linearGradient848"
       id="radialGradient5882"
       gradientUnits="userSpaceOnUse"
       gradientTransform="matrix(1.5025502,-0.02576594,0.0311005,1.8136378,-578.09626,-375.05048)"
       cx="293.9361"
       cy="466.18439"
       fx="293.9361"
       fy="466.18439"
       r="72.588905" />
    <radialGradient
       inkscape:collect="always"
       xlink:href="#linearGradient5250"
       id="radialGradient5897"
       gradientUnits="userSpaceOnUse"
       gradientTransform="matrix(0.34654517,-0.42625379,2.3468599,1.9080018,-298.62038,-485.4787)"
       cx="187.76682"
       cy="400.96442"
       fx="187.76682"
       fy="400.96442"
       r="28.637825" />
    <radialGradient
       inkscape:collect="always"
       xlink:href="#linearGradient5250"
       id="radialGradient5899"
       gradientUnits="userSpaceOnUse"
       gradientTransform="matrix(-0.3001435,-0.4601084,2.533256,-1.6525243,-244.67777,843.77321)"
       cx="187.76682"
       cy="400.96442"
       fx="187.76682"
       fy="400.96442"
       r="28.637825" />
    <radialGradient
       inkscape:collect="always"
       xlink:href="#linearGradient5250"
       id="radialGradient5915"
       gradientUnits="userSpaceOnUse"
       gradientTransform="matrix(0.04841561,-0.54721274,3.0128333,0.26656571,-1513.551,309.94181)"
       cx="187.76682"
       cy="400.96442"
       fx="187.76682"
       fy="400.96442"
       r="28.637825" />
    <radialGradient
       inkscape:collect="always"
       xlink:href="#linearGradient5250"
       id="radialGradient5917"
       gradientUnits="userSpaceOnUse"
       gradientTransform="matrix(-0.52008201,-0.17691963,0.97408067,-2.8634575,-650.07717,1400.1254)"
       cx="187.76682"
       cy="400.96442"
       fx="187.76682"
       fy="400.96442"
       r="28.637825" />
    <radialGradient
       inkscape:collect="always"
       xlink:href="#linearGradient5250"
       id="radialGradient5932"
       gradientUnits="userSpaceOnUse"
       gradientTransform="matrix(0.51630941,0.18764445,-1.0331292,2.8426864,118.31244,-1074.5545)"
       cx="187.76682"
       cy="400.96442"
       fx="187.76682"
       fy="400.96442"
       r="28.637825" />
  </defs>
  <sodipodi:namedview
     pagecolor="#ffffff"
     bordercolor="#666666"
     borderopacity="1"
     objecttolerance="10"
     gridtolerance="10"
     guidetolerance="10"
     inkscape:pageopacity="0"
     inkscape:pageshadow="2"
     inkscape:window-width="1920"
     inkscape:window-height="1017"
     id="namedview1257"
     showgrid="false"
     inkscape:zoom="0.1767767"
     inkscape:cx="626.07884"
     inkscape:cy="-892.98997"
     inkscape:window-x="-8"
     inkscape:window-y="-8"
     inkscape:window-maximized="1"
     inkscape:current-layer="svg1255"
     showguides="true"
     inkscape:guide-bbox="true">
    <sodipodi:guide
       position="0,1.6367188"
       orientation="1,0"
       id="guide1817"
       inkscape:locked="false" />
    <sodipodi:guide
       position="0.85546875,512"
       orientation="0,1"
       id="guide1819"
       inkscape:locked="false" />
    <sodipodi:guide
       position="509.11719,-0.00390625"
       orientation="0,1"
       id="guide1821"
       inkscape:locked="false" />
    <sodipodi:guide
       position="512,285.90625"
       orientation="1,0"
       id="guide1823"
       inkscape:locked="false" />
  </sodipodi:namedview>
  <path
     style="fill:url(#radialGradient5737);stroke:none;stroke-width:1px;stroke-linecap:butt;stroke-linejoin:miter;stroke-opacity:1;fill-opacity:1"
     d="m 195.16147,17.025255 c 0,0 50.55814,33.941125 59.04342,36.415999 8.48528,2.474874 90.86322,31.819805 97.58073,38.890873 6.71752,7.071068 25.10229,57.275653 -4.59619,62.932503 -29.69849,5.65685 -60.10408,5.65685 -66.46804,-2.47487 -6.36396,-8.13173 -39.59798,-36.76956 -48.79037,-43.13352 -9.19238,-6.36396 -81.31728,-31.112695 -78.1353,-50.204578 3.18198,-19.091883 41.36575,-42.426407 41.36575,-42.426407 z"
     id="path5729"
     inkscape:connector-curvature="0" />
  <path
     style="fill:url(#radialGradient5737-3);fill-opacity:1;stroke:none;stroke-width:1.1329205px;stroke-linecap:butt;stroke-linejoin:miter;stroke-opacity:1"
     d="m 344.38402,226.03317 c 0,0 -53.83091,28.83278 -59.52014,35.76352 -5.68924,6.93074 -66.44459,70.76378 -76.25677,72.93164 -9.8122,2.16787 -68.70425,-11.93065 -63.66102,-45.48516 5.04322,-33.55453 16.22058,-64.14766 27.00422,-65.27112 10.78363,-1.12347 52.73895,-15.9686 62.72664,-21.08571 9.9877,-5.1171 62.20114,-61.61807 80.85689,-46.02054 18.65574,15.59752 28.85018,69.16737 28.85018,69.16737 z"
     id="path5729-2"
     inkscape:connector-curvature="0" />
  <path
     style="fill:url(#radialGradient5737-3-2);fill-opacity:1;stroke:none;stroke-width:1.42125165px;stroke-linecap:butt;stroke-linejoin:miter;stroke-opacity:1"
     d="m 333.99751,500.96839 c 0,0 -67.38142,-34.68482 -78.48027,-35.51532 -11.09884,-0.83053 -119.19663,-17.13195 -128.31631,-25.70848 -9.1197,-8.57655 -36.08925,-79.8445 1.82362,-99.12015 37.91289,-19.27568 77.10585,-30.0382 85.83893,-19.69337 8.73305,10.34483 53.43802,42.94604 65.70174,49.55113 12.26373,6.60508 106.8458,19.41543 103.9883,50.11837 -2.85749,30.7029 -50.55601,80.36782 -50.55601,80.36782 z"
     id="path5729-2-2"
     inkscape:connector-curvature="0" />
  <path
     style="fill:url(#radialGradient5795);stroke:none;stroke-width:1px;stroke-linecap:butt;stroke-linejoin:miter;stroke-opacity:1;fill-opacity:1"
     d="m 371.58461,257.79511 c 62.57895,-3.18198 80.25662,-13.08147 89.09546,-34.29468 8.83883,-21.2132 19.44543,-66.46803 18.38477,-78.8424 -1.06066,-12.37437 -1.76776,-56.922097 -10.6066,-66.821592 -8.83883,-9.899495 -35.00178,-20.85965 -50.20458,-21.213204 -15.2028,-0.353553 -91.57033,4.596195 -98.6414,8.838835 -7.07106,4.242641 -32.52691,32.173359 -35.00178,41.719301 -2.47488,9.54594 -10.96016,54.80077 -7.42462,71.77134 3.53553,16.97056 13.78858,61.87184 26.5165,68.94291 12.72792,7.07107 48.08326,10.6066 52.67946,10.6066 4.59619,0 15.20279,-0.70711 15.20279,-0.70711 z"
     id="path5787"
     inkscape:connector-curvature="0" />
  <path
     style="fill:url(#radialGradient5795-7);fill-opacity:1;stroke:none;stroke-width:1px;stroke-linecap:butt;stroke-linejoin:miter;stroke-opacity:1"
     d="m 209.16651,400.33595 c 34.07347,-52.58564 36.40349,-72.71202 24.38653,-92.30073 -12.01697,-19.58871 -42.48495,-54.69144 -53.13593,-61.07942 -10.65099,-6.38799 -47.17229,-31.90651 -60.37302,-30.54054 -13.20072,1.36597 -37.407889,16.15238 -46.598746,28.26759 -9.190856,12.11521 -49.907497,76.91224 -50.610254,85.12846 -0.702743,8.21621 7.026342,45.20791 13.314061,52.80493 6.287705,7.59703 37.998132,40.98037 53.824011,48.0544 15.825858,7.07403 58.224788,25.06237 71.410838,18.88758 13.18605,-6.1748 36.75935,-32.7605 39.45135,-36.48584 2.69199,-3.72534 8.33116,-12.73643 8.33116,-12.73643 z"
     id="path5787-7"
     inkscape:connector-curvature="0" />
  <path
     style="fill:url(#radialGradient5795-7-5);fill-opacity:1;stroke:none;stroke-width:1px;stroke-linecap:butt;stroke-linejoin:miter;stroke-opacity:1"
     d="m 512,397.35853 c -7.35589,-14.93127 -11.18663,-15.38617 -19.99628,-19.65449 -20.68138,-10.02024 -65.26658,-23.16027 -77.68104,-22.79864 -12.41448,0.36162 -56.93126,-1.44284 -67.31314,6.82407 -10.38186,8.26691 -22.79899,33.77063 -24.00872,48.92935 -1.20973,15.15872 -0.14962,94.04616 3.68781,101.34509 70.77507,0 119.14627,0 185.33052,0.0213 C 512,471.82985 512,433.56295 512,397.35853 Z"
     id="path5787-7-4"
     inkscape:connector-curvature="0"
     sodipodi:nodetypes="cssssccc" />
  <path
     style="fill:url(#radialGradient5795-7-5-2);fill-opacity:1;stroke:none;stroke-width:1.04157412px;stroke-linecap:butt;stroke-linejoin:miter;stroke-opacity:1"
     d="M 0.02568856,92.735591 C 9.8931693,104.81112 15.031875,105.17902 26.849486,108.63098 c 27.742819,8.10378 87.551164,18.73065 104.204404,18.43819 16.65328,-0.29246 76.36984,1.16688 90.2965,-5.5189 13.92664,-6.68579 30.58347,-27.311691 32.20625,-39.571155 1.62277,-12.259474 0.2007,-76.0589478 -4.94697,-81.96188883 C 153.66919,0.01722617 88.782161,0.01722617 0,0 0.02562149,32.507622 0.02562149,63.455613 0.02562149,92.735591 Z"
     id="path5787-7-4-9"
     inkscape:connector-curvature="0"
     sodipodi:nodetypes="cssssccc" />
  <g
     id="g5878"
     transform="translate(558.61436)">
    <path
       sodipodi:nodetypes="cczzc"
       inkscape:connector-curvature="0"
       id="path5236"
       d="m -180.88687,491.41682 -5.26257,-46.45386 c 0,0 -66.81629,12.56434 -71.65842,14.88738 -4.84212,2.32306 -5.77862,7.05093 -0.0865,10.67966 5.69216,3.62874 77.00745,20.88682 77.00745,20.88682 z"
       style="fill:url(#radialGradient5880);fill-opacity:1;stroke:none;stroke-width:1px;stroke-linecap:butt;stroke-linejoin:miter;stroke-opacity:1" />
    <path
       sodipodi:nodetypes="cczzc"
       inkscape:connector-curvature="0"
       id="path5236-5"
       d="m -136.80314,428.64442 41.340043,-21.83246 c 0,0 -36.053803,-57.64029 -39.981933,-61.30259 -3.92816,-3.6623 -8.67213,-2.81112 -9.97652,3.81206 -1.30438,6.62322 8.61839,79.32295 8.61839,79.32295 z"
       style="fill:url(#radialGradient5244-3);fill-opacity:1;stroke:none;stroke-width:1px;stroke-linecap:butt;stroke-linejoin:miter;stroke-opacity:1" />
    <path
       sodipodi:nodetypes="csssssssssscc"
       inkscape:connector-curvature="0"
       id="path842-7-1"
       d="m -80.853448,512.00391 c 0,0 17.269606,-20.69493 22.992271,-32.65337 4.341799,-9.07286 7.683458,-18.93553 8.253639,-28.92576 0.650217,-11.39242 -0.668461,-23.43962 -5.600677,-33.79446 -6.351498,-13.3345 -16.923414,-25.31526 -29.477287,-33.50807 -10.910526,-7.12035 -24.355878,-10.77835 -37.436138,-12.02855 -11.13425,-1.06419 -22.66255,0.66959 -33.30932,4.00953 -11.08925,3.47874 -21.69892,9.08279 -30.65639,16.32444 -10.03858,8.11568 -18.56503,18.32929 -24.76092,29.49855 -5.13086,9.24936 -9.18963,19.57718 -9.72749,30.07135 -0.50412,9.83593 2.50569,19.75129 6.19022,28.92575 4.66189,11.60807 19.74978,32.08059 19.74978,32.08059 z"
       style="fill:#000000;fill-opacity:0.56944442;stroke:none;stroke-width:1.16221213px;stroke-linecap:butt;stroke-linejoin:miter;stroke-opacity:1" />
    <path
       sodipodi:nodetypes="csssssssssscc"
       inkscape:connector-curvature="0"
       id="path842-7"
       d="m -77.707638,512.00391 c 0,0 15.96749,-19.25842 21.258676,-30.38678 4.014424,-8.44308 7.104127,-17.62115 7.63132,-26.91792 0.601184,-10.60163 -0.618061,-21.81259 -5.178395,-31.44867 -5.872595,-12.4089 -15.647401,-23.55803 -27.254714,-31.18215 -10.087886,-6.6261 -22.519469,-10.03018 -34.613479,-11.1936 -10.29474,-0.99033 -20.95381,0.6231 -30.79782,3.7312 -10.25313,3.23727 -20.06283,8.45233 -28.34492,15.19131 -9.28167,7.55234 -17.16524,17.05699 -22.89396,27.45095 -4.744,8.60732 -8.49674,18.21825 -8.99404,27.98399 -0.46611,9.15319 2.31676,18.38028 5.72348,26.91791 4.31038,10.80231 18.26066,29.85376 18.26066,29.85376 z"
       style="fill:#000000;fill-opacity:0.56944442;stroke:none;stroke-width:1.0780549px;stroke-linecap:butt;stroke-linejoin:miter;stroke-opacity:1" />
    <path
       sodipodi:nodetypes="csssssssssscc"
       inkscape:connector-curvature="0"
       id="path842"
       d="m -78.485892,512.00391 c 0,0 14.64654,-18.0651 19.5,-28.50391 3.68232,-7.91993 6.51642,-16.52928 7,-25.25 0.55145,-9.94471 -0.56693,-20.46101 -4.75,-29.5 -5.38677,-11.64 -14.35293,-22.0983 -25,-29.25 -9.25334,-6.21552 -20.656488,-9.40867 -31.749998,-10.5 -9.44308,-0.92897 -19.22035,0.58448 -28.25,3.5 -9.4049,3.03668 -18.40307,7.92859 -26,14.25 -8.51383,7.08437 -15.74521,16.00009 -21,25.75 -4.35154,8.07398 -7.79383,17.08938 -8.25,26.25 -0.42755,8.58603 2.12511,17.24139 5.25,25.25 3.95379,10.13295 16.75,28.00391 16.75,28.00391 z"
       style="fill:url(#radialGradient5882);fill-opacity:1;stroke:none;stroke-width:1px;stroke-linecap:butt;stroke-linejoin:miter;stroke-opacity:1" />
    <path
       sodipodi:nodetypes="csssssssssscc"
       inkscape:connector-curvature="0"
       id="path842-2"
       d="m -81.697012,513.24168 c 0,0 13.64274,-17.70146 18.16356,-27.93012 3.42996,-7.76052 6.06982,-16.19655 6.52026,-24.74174 0.51366,-9.74452 -0.52807,-20.04913 -4.42446,-28.90616 -5.01758,-11.4057 -13.36925,-21.65347 -23.28662,-28.66121 -8.61915,-6.0904 -19.240788,-9.21927 -29.573998,-10.28863 -8.79589,-0.91028 -17.90308,0.57271 -26.31388,3.42954 -8.76032,2.97555 -17.1418,7.76899 -24.21808,13.96314 -7.93032,6.94178 -14.66611,15.67803 -19.56075,25.23168 -4.05331,7.91144 -7.25968,16.74535 -7.68458,25.72158 -0.39826,8.4132 1.97945,16.89431 4.89019,24.74173 3.68281,9.92897 15.60202,27.44019 15.60202,27.44019 z"
       style="fill:none;fill-opacity:1;stroke:#391809;stroke-width:2.45010257;stroke-linecap:butt;stroke-linejoin:miter;stroke-miterlimit:4;stroke-dasharray:none;stroke-opacity:0.81944442" />
    <path
       sodipodi:nodetypes="cscsssssasc"
       inkscape:connector-curvature="0"
       id="path876"
       d="m -169.65222,408.36807 c 0,0 -1.83171,1.66979 -2.72298,2.53063 -0.84578,0.81691 -2.48976,2.49905 -2.48976,2.49905 0,0 5.1529,3.37051 7.33774,5.72032 3.70634,3.9862 5.3588,9.57921 9,13.625 4.29695,4.7744 9.7685,8.35355 14.875,12.25 4.82499,3.68165 10.97072,9.31989 14.875,10.5 0.96055,0.29034 2.67727,-1.50956 2,-2.25 -3.31541,-3.62462 -18.81145,-12.38496 -26.625,-20.375 -4.14872,-4.24243 -7.2796,-9.39111 -10.5,-14.375 -2.10644,-3.25993 -5.75,-10.125 -5.75,-10.125 z"
       style="fill:#301906;fill-opacity:0.97685188;stroke:none;stroke-width:1px;stroke-linecap:butt;stroke-linejoin:miter;stroke-opacity:1" />
    <text
       id="text2692-1"
       y="496.12991"
       x="-143.81639"
       style="font-style:normal;font-weight:normal;font-size:114.88253021px;line-height:1.25;font-family:sans-serif;letter-spacing:0px;word-spacing:0px;fill:#fff6d5;fill-opacity:1;stroke:#000000;stroke-width:6.18428326;stroke-miterlimit:4;stroke-dasharray:none;stroke-opacity:0.13425927;paint-order:markers stroke fill"
       xml:space="preserve"><tspan
         style="font-style:normal;font-variant:normal;font-weight:normal;font-stretch:normal;font-family:'Times New Roman';-inkscape-font-specification:'Times New Roman, ';fill:#fff6d5;fill-opacity:1;stroke:#000000;stroke-width:6.18428326;stroke-miterlimit:4;stroke-dasharray:none;stroke-opacity:0.13425927;paint-order:markers stroke fill"
         y="496.12991"
         x="-143.81639"
         id="tspan2690-85"
         sodipodi:role="line">I</tspan></text>
  </g>
  <g
     id="g5895"
     transform="translate(-276,14)">
    <path
       sodipodi:nodetypes="cczzcc"
       inkscape:connector-curvature="0"
       id="path5236-5-01-0"
       d="m 596.87841,151.30455 46.77371,-68.138773 c 0,0 -70.61555,-10.50801 -75.72748,-12.154511 -5.11194,-1.646467 -14.18147,5.596603 -12.54843,12.146502 1.63306,6.549932 41.50215,68.146742 41.50215,68.146742 z"
       style="fill:url(#radialGradient5244-3-0-1);fill-opacity:1;stroke:none;stroke-width:1px;stroke-linecap:butt;stroke-linejoin:miter;stroke-opacity:1" />
    <path
       sodipodi:nodetypes="cczzcc"
       inkscape:connector-curvature="0"
       id="path5236-4-6-5"
       d="m 705.98413,160.93144 -27.29167,37.95815 c 0,0 77.04235,53.5843 82.19043,55.11407 5.14807,1.52975 9.01659,-1.34502 7.23495,-7.85607 -1.78163,-6.51108 -62.13368,-85.2161 -62.13368,-85.2161 z"
       style="fill:url(#radialGradient5897);fill-opacity:1;stroke:none;stroke-width:1px;stroke-linecap:butt;stroke-linejoin:miter;stroke-opacity:1" />
    <path
       sodipodi:nodetypes="cczzcc"
       inkscape:connector-curvature="0"
       id="path5236-4-6-3-47"
       d="m 677.50857,84.399257 22.86732,31.564383 c 0,0 56.49372,-38.323508 59.52177,-42.759022 3.02802,-4.435515 1.47115,-8.996868 -5.27299,-9.287524 -6.74417,-0.290659 -70.7521,30.028083 -70.7521,30.028083 z"
       style="fill:url(#radialGradient5899);fill-opacity:1;stroke:none;stroke-width:1px;stroke-linecap:butt;stroke-linejoin:miter;stroke-opacity:1" />
    <path
       sodipodi:nodetypes="cczzc"
       inkscape:connector-curvature="0"
       id="path5236-4-2"
       d="m 650.93916,199.86973 -42.63889,-19.1724 c 0,0 -23.28028,63.87728 -23.7525,69.22702 -0.47221,5.34974 3.1164,8.56716 9.14126,5.52269 6.0249,-3.04452 57.25011,-55.57726 57.25011,-55.57726 z"
       style="fill:url(#radialGradient5244-7-4);fill-opacity:1;stroke:none;stroke-width:1px;stroke-linecap:butt;stroke-linejoin:miter;stroke-opacity:1" />
    <path
       sodipodi:nodetypes="szssssssssssss"
       inkscape:connector-curvature="0"
       id="path842-7-3-2-8"
       d="m 666.35779,42.397408 c -13.34067,-4.185995 -32.95505,1.337577 -45.11403,2.949591 -12.15896,1.612024 -21.0951,4.09946 -30.24295,9.31922 -10.43182,5.952375 -20.32187,14.007421 -26.66151,24.264467 -8.1639,13.208584 -12.73121,29.345584 -12.82545,45.052954 -0.0819,13.65122 4.33619,27.54438 10.67319,39.73853 5.39422,10.37997 13.48382,19.50369 22.4905,26.93421 9.381,7.73933 20.36628,13.84093 31.85799,17.55503 12.87867,4.16236 26.75005,5.79657 40.13964,4.83846 11.08801,-0.79342 22.51865,-3.14513 32.0932,-8.6818 8.97401,-5.18938 16.01912,-13.50782 22.02602,-21.99414 7.6003,-10.73738 15.72093,-25.73004 17.25644,-38.8347 2.68083,-22.87944 -4.9717,-45.09621 -16.69156,-63.174548 -9.85659,-15.204153 -26.04344,-32.01868 -45.00148,-37.967274 z"
       style="fill:#000000;fill-opacity:0.56944442;stroke:none;stroke-width:1.21936667px;stroke-linecap:butt;stroke-linejoin:miter;stroke-opacity:1" />
    <path
       sodipodi:nodetypes="szssssssssssss"
       inkscape:connector-curvature="0"
       id="path842-7-3-8"
       d="m 668.76542,55.161872 c -11.79463,-3.700879 -29.1359,1.18257 -39.88578,2.607771 -10.74987,1.425203 -18.6504,3.624373 -26.73811,8.239216 -9.22288,5.262559 -17.96678,12.384116 -23.57173,21.452476 -7.21778,11.677845 -11.25579,25.944735 -11.33911,39.831785 -0.0724,12.06919 3.83367,24.35228 9.43628,35.13326 4.76909,9.17704 11.92119,17.24342 19.8841,23.81282 8.29384,6.84243 18.00603,12.2369 28.16597,15.52058 11.38618,3.67998 23.65001,5.12481 35.48787,4.27774 9.80304,-0.70147 19.90899,-2.78064 28.37396,-7.67568 7.934,-4.58799 14.16266,-11.94241 19.47343,-19.44524 6.7195,-9.49303 13.89904,-22.74821 15.25659,-34.33418 2.37016,-20.22795 -4.39552,-39.87004 -14.75717,-55.853277 -8.71432,-13.442156 -23.02529,-28.308055 -39.7863,-33.567271 z"
       style="fill:#000000;fill-opacity:0.56944442;stroke:none;stroke-width:1.0780549px;stroke-linecap:butt;stroke-linejoin:miter;stroke-opacity:1" />
    <path
       sodipodi:nodetypes="ssssssssssssss"
       inkscape:connector-curvature="0"
       id="path842-8-4"
       d="m 665.19591,65.356852 c -10.8506,-3.845711 -23.95694,0.161398 -35.35632,1.767299 -8.64872,1.218401 -17.41451,3.523573 -24.99514,7.86165 -8.6446,4.94695 -16.86047,11.605988 -22.16963,20.03299 -6.83687,10.851909 -10.73508,24.064489 -10.94436,36.888809 -0.18186,11.14557 3.34178,22.45096 8.46063,32.3532 4.35729,8.42904 10.94582,15.80988 18.30414,21.80071 7.66411,6.23978 16.6637,11.12909 26.10055,14.065 10.57582,3.29025 21.9907,4.50819 33.03034,3.61379 9.14202,-0.74066 18.57938,-2.75639 26.51422,-7.35676 7.43713,-4.31182 13.31127,-11.16206 18.33145,-18.14063 6.3518,-8.82971 15.77819,-17.46939 17.32558,-28.66123 2.40913,-17.42456 -8.46769,-40.63654 -14.66343,-50.193722 -14.34428,-22.126574 -23.769,-28.300412 -39.93803,-34.031106 z"
       style="fill:url(#radialGradient850-1-2);fill-opacity:1;stroke:none;stroke-width:1px;stroke-linecap:butt;stroke-linejoin:miter;stroke-opacity:1" />
    <path
       sodipodi:nodetypes="ssssssssssssss"
       inkscape:connector-curvature="0"
       id="path842-2-6-4"
       d="m 667.15016,70.002368 c -10.19708,-4.399289 -22.27463,-1.818499 -33.31673,-0.04779 -8.37768,1.34344 -16.89238,3.717318 -24.30769,7.987719 -8.45606,4.86976 -16.53601,11.349323 -21.84842,19.436791 -6.84111,10.414672 -10.89693,22.997102 -11.38234,35.130822 -0.42186,10.54536 2.73059,21.16001 7.45429,30.41234 4.02094,7.87581 10.2194,14.71096 17.19183,20.21443 7.26217,5.73217 15.84368,10.15758 24.89052,12.72584 10.13875,2.87819 21.13346,3.7779 31.8125,2.68806 8.8434,-0.90249 18.00014,-3.01744 25.76324,-7.54375 7.27618,-4.24238 13.09928,-10.85104 18.10069,-17.56224 6.32806,-8.49136 13.611,-17.5375 14.538,-28.01846 0.82774,-9.35878 -6.0655,-30.98306 -14.14279,-43.64585 -8.5554,-13.41231 -23.20874,-26.797373 -34.7531,-31.777909 z"
       style="fill:none;fill-opacity:1;stroke:#391809;stroke-width:2.45010257;stroke-linecap:butt;stroke-linejoin:miter;stroke-miterlimit:4;stroke-dasharray:none;stroke-opacity:0.81944442" />
    <path
       sodipodi:nodetypes="cscccsasc"
       inkscape:connector-curvature="0"
       id="path876-9-7"
       d="m 688.77797,78.745348 c -0.47241,-0.480163 -5.94927,-6.024331 -13.66196,-9.606587 -11.96499,-5.557285 -15.88923,-5.004365 -16.58286,-5.255645 8.88017,10.651124 1.88182,15.047779 0.9394,22.282771 -1.96636,11.319437 -11.89013,14.234043 -21.79831,20.786353 -0.33596,0.62691 3.95767,0.52404 4.78685,0.39988 13.54386,-2.02813 17.75291,-9.24663 26.14591,-14.671754 4.21115,-2.721669 8.22027,-5.738552 12.09854,-8.938477 2.44444,-2.016887 6.49937,-2.296836 8.07243,-4.996541 z"
       style="fill:#1b0e03;fill-opacity:0.97685188;stroke:none;stroke-width:0.65255517px;stroke-linecap:butt;stroke-linejoin:miter;stroke-opacity:1" />
    <text
       transform="scale(0.89368467,1.1189629)"
       id="text2692-1-0-0"
       y="154.2204"
       x="669.79504"
       style="font-style:normal;font-weight:normal;font-size:103.49607849px;line-height:1.25;font-family:sans-serif;letter-spacing:0px;word-spacing:0px;fill:#fff6d5;fill-opacity:1;stroke:#000000;stroke-width:5.57133532;stroke-miterlimit:4;stroke-dasharray:none;stroke-opacity:0.13425927;paint-order:markers stroke fill"
       xml:space="preserve"><tspan
         style="font-style:normal;font-variant:normal;font-weight:normal;font-stretch:normal;font-family:'Times New Roman';-inkscape-font-specification:'Times New Roman, ';fill:#fff6d5;fill-opacity:1;stroke:#000000;stroke-width:5.57133532;stroke-miterlimit:4;stroke-dasharray:none;stroke-opacity:0.13425927;paint-order:markers stroke fill"
         y="154.2204"
         x="669.79504"
         id="tspan2690-85-1-0"
         sodipodi:role="line">III</tspan></text>
  </g>
  <g
     id="g5913"
     transform="translate(513,44)">
    <path
       sodipodi:nodetypes="cczzc"
       inkscape:connector-curvature="0"
       id="path5236-4-6"
       d="m -387.13033,320.17089 -38.81264,-26.06213 c 0,0 -33.67908,59.05928 -35.04321,64.2537 -1.3641,5.19441 1.63308,8.96889 8.08373,6.97967 6.45069,-1.98923 65.77209,-45.17121 65.77209,-45.17121 z"
       style="fill:url(#radialGradient5244-7-7);fill-opacity:1;stroke:none;stroke-width:1px;stroke-linecap:butt;stroke-linejoin:miter;stroke-opacity:1" />
    <path
       sodipodi:nodetypes="cczzc"
       inkscape:connector-curvature="0"
       id="path5236-4-6-3"
       d="m -344.73049,335.55359 -37.81272,27.49279 c 0,0 43.88886,51.92346 48.29816,54.98956 4.4093,3.06606 8.98388,1.54849 9.33254,-5.19289 0.34867,-6.74143 -19.81796,-77.28942 -19.81796,-77.28942 z"
       style="fill:url(#radialGradient5244-7-7-9);fill-opacity:1;stroke:none;stroke-width:1px;stroke-linecap:butt;stroke-linejoin:miter;stroke-opacity:1" />
    <path
       sodipodi:nodetypes="cczzcc"
       inkscape:connector-curvature="0"
       id="path5236-4-6-3-4"
       d="m -319.25351,282.92592 -1.35504,46.73135 c 0,0 67.9213,-2.99586 73.04314,-4.6113 5.12181,-1.61547 6.71704,-6.16355 1.59486,-10.56025 -5.12222,-4.39674 -75.40424,-13.88212 -75.40424,-13.88212 z"
       style="fill:url(#radialGradient5915);fill-opacity:1;stroke:none;stroke-width:1px;stroke-linecap:butt;stroke-linejoin:miter;stroke-opacity:1" />
    <path
       sodipodi:nodetypes="cczzc"
       inkscape:connector-curvature="0"
       id="path5236-4"
       d="m -418.01991,302.96131 9.7712,-45.71848 c 0,0 -67.34576,-9.31817 -72.67509,-8.65414 -5.32933,0.66404 -7.71961,4.8493 -3.47555,10.09867 4.24409,5.24939 66.3794,44.27394 66.3794,44.27394 z"
       style="fill:url(#radialGradient5244-7);fill-opacity:1;stroke:none;stroke-width:1px;stroke-linecap:butt;stroke-linejoin:miter;stroke-opacity:1" />
    <path
       sodipodi:nodetypes="cczzcc"
       inkscape:connector-curvature="0"
       id="path5236-5-01"
       d="m -392.83969,233.54688 80.58127,18.36653 c 0,0 -16.25887,-69.51707 -16.61241,-74.87596 -0.35358,-5.3589 -10.42952,-11.1203 -15.9164,-7.18811 -5.4869,3.93223 -48.05245,63.69749 -48.05245,63.69749 z"
       style="fill:url(#radialGradient5917);fill-opacity:1;stroke:none;stroke-width:1px;stroke-linecap:butt;stroke-linejoin:miter;stroke-opacity:1" />
    <path
       sodipodi:nodetypes="szssssssssssss"
       inkscape:connector-curvature="0"
       id="path842-7-3-2"
       d="m -315.89402,357.31017 c 10.76946,-8.9171 16.80435,-28.38024 22.06588,-39.45975 5.26152,-11.07951 8.03534,-19.93094 8.63163,-30.44633 0.68,-11.9913 -0.69907,-24.6718 -5.85717,-35.57098 -6.64238,-14.03547 -17.69847,-26.64603 -30.82728,-35.26952 -11.4102,-7.49465 -25.47132,-11.34494 -39.15061,-12.66086 -11.64418,-1.12014 -23.70044,0.70478 -34.83481,4.22029 -11.59711,3.66161 -22.69268,9.56026 -32.06039,17.18259 -10.49831,8.5423 -19.41526,19.29282 -25.89491,31.04923 -5.36584,9.73557 -9.61049,20.60631 -10.17298,31.65215 -0.52721,10.35299 2.62044,20.78957 6.47372,30.44632 4.87538,12.21828 13.03833,27.18795 23.1992,35.605 17.73987,14.69532 40.54478,20.35944 62.08965,20.35944 18.11956,0 41.0339,-4.43574 56.33807,-17.10758 z"
       style="fill:#000000;fill-opacity:0.56944442;stroke:none;stroke-width:1.21936667px;stroke-linecap:butt;stroke-linejoin:miter;stroke-opacity:1" />
    <path
       sodipodi:nodetypes="szssssssssssss"
       inkscape:connector-curvature="0"
       id="path842-7-3"
       d="m -318.81591,353.51826 c 9.52139,-7.8837 14.8569,-25.09127 19.50867,-34.88678 4.65177,-9.79551 7.10413,-17.62115 7.63132,-26.91792 0.60119,-10.60163 -0.61806,-21.8126 -5.17839,-31.44868 -5.8726,-12.4089 -15.6474,-23.55803 -27.25472,-31.18215 -10.08788,-6.6261 -22.51946,-10.03018 -34.61347,-11.1936 -10.29474,-0.99033 -20.95381,0.6231 -30.79782,3.7312 -10.25313,3.23727 -20.06284,8.45233 -28.34493,15.19131 -9.28167,7.55234 -17.16524,17.05699 -22.89396,27.45095 -4.744,8.60732 -8.49674,18.21826 -8.99404,27.984 -0.46611,9.15319 2.31676,18.38028 5.72348,26.91791 4.31038,10.80231 11.52733,24.03716 20.51066,31.47876 15.68401,12.99229 35.84607,18 54.89411,18 16.0197,0 36.27851,-3.92169 49.80909,-15.125 z"
       style="fill:#000000;fill-opacity:0.56944442;stroke:none;stroke-width:1.0780549px;stroke-linecap:butt;stroke-linejoin:miter;stroke-opacity:1" />
    <path
       sodipodi:nodetypes="ssssssssssssss"
       inkscape:connector-curvature="0"
       id="path842-8"
       d="m -319.59417,351.14326 c 9.12939,-7.01278 12.89654,-20.1901 17.75,-30.62891 3.68232,-7.91993 6.51642,-16.52928 7,-25.25 0.55145,-9.94471 -0.56693,-20.46102 -4.75,-29.50001 -5.38677,-11.64 -14.35293,-22.0983 -25,-29.25 -9.25334,-6.21552 -20.65648,-9.40867 -31.74999,-10.5 -9.44308,-0.92897 -19.22035,0.58448 -28.25,3.5 -9.4049,3.03668 -18.40307,7.92859 -26.00001,14.25 -8.51383,7.08437 -15.74521,16.00009 -21,25.75 -4.35154,8.07398 -7.79383,17.08939 -8.25,26.25001 -0.42755,8.58603 2.12511,17.24139 5.25,25.25 3.95379,10.13295 6.07565,22.74241 14.625,30.12891 13.31046,11.50002 38.70439,15 50.09417,15 26.36936,0 36.67665,-4.54989 50.28083,-15 z"
       style="fill:url(#radialGradient850-1);fill-opacity:1;stroke:none;stroke-width:1px;stroke-linecap:butt;stroke-linejoin:miter;stroke-opacity:1" />
    <path
       sodipodi:nodetypes="ssssssssssssss"
       inkscape:connector-curvature="0"
       id="path842-2-6"
       d="m -324.55529,350.25603 c 9.2384,-6.16328 13.64274,-17.70146 18.16356,-27.93012 3.42996,-7.76052 6.06982,-16.19655 6.52026,-24.74174 0.51366,-9.74452 -0.52807,-20.04914 -4.42446,-28.90617 -5.01758,-11.4057 -13.36925,-21.65347 -23.28662,-28.66121 -8.61915,-6.0904 -19.24078,-9.21927 -29.57399,-10.28863 -8.79589,-0.91028 -17.90308,0.57271 -26.31388,3.42954 -8.76032,2.97555 -17.1418,7.76899 -24.21809,13.96314 -7.93032,6.94178 -14.66611,15.67803 -19.56075,25.23168 -4.05331,7.91144 -7.25968,16.74536 -7.68458,25.72159 -0.39826,8.4132 1.97945,16.89431 4.89019,24.74173 3.68281,9.92897 7.3117,20.96097 15.60202,27.44019 7.4027,5.7855 29.29742,11.76443 44.31663,11.875 15.90822,0.11711 35.11069,-4.89739 45.56971,-11.875 z"
       style="fill:none;fill-opacity:1;stroke:#391809;stroke-width:2.45010257;stroke-linecap:butt;stroke-linejoin:miter;stroke-miterlimit:4;stroke-dasharray:none;stroke-opacity:0.81944442" />
    <path
       sodipodi:nodetypes="cscsssssasc"
       inkscape:connector-curvature="0"
       id="path876-9"
       d="m -343.65652,363.648 c 0.65988,-0.1352 4.29644,-0.9212 7.84707,-2.52572 7.4844,-3.38219 8.74222,-4.60209 9.33039,-5.04743 0,0 -8.38162,-4.13159 -10.3731,-5.92174 -2.19335,-1.97161 -3.3392,-4.86799 -3.89544,-9.38668 -0.65645,-5.33247 -3.56233,-9.63485 -4.79208,-14.66999 -1.16196,-4.75756 -2.40196,-11.5124 -3.79727,-14.04437 -0.34328,-0.62292 -1.54337,-0.0377 -1.43685,0.79392 0.52146,4.07104 5.02823,17.10636 6.39688,26.29622 0.72671,4.87949 0.34361,10.01927 0.91899,15.01421 0.36266,3.14827 -1.60822,6.70306 -0.19859,9.49158 z"
       style="fill:#301906;fill-opacity:0.97685188;stroke:none;stroke-width:0.65255517px;stroke-linecap:butt;stroke-linejoin:miter;stroke-opacity:1" />
    <text
       id="text2692-1-0"
       y="333.85132"
       x="-406.12012"
       style="font-style:normal;font-weight:normal;font-size:114.88253021px;line-height:1.25;font-family:sans-serif;letter-spacing:0px;word-spacing:0px;fill:#fff6d5;fill-opacity:1;stroke:#000000;stroke-width:6.18428326;stroke-miterlimit:4;stroke-dasharray:none;stroke-opacity:0.13425927;paint-order:markers stroke fill"
       xml:space="preserve"><tspan
         style="font-style:normal;font-variant:normal;font-weight:normal;font-stretch:normal;font-family:'Times New Roman';-inkscape-font-specification:'Times New Roman, ';fill:#fff6d5;fill-opacity:1;stroke:#000000;stroke-width:6.18428326;stroke-miterlimit:4;stroke-dasharray:none;stroke-opacity:0.13425927;paint-order:markers stroke fill"
         y="333.85132"
         x="-406.12012"
         id="tspan2690-85-1"
         sodipodi:role="line">II</tspan></text>
  </g>
  <g
     id="g5930"
     transform="translate(302)">
    <path
       sodipodi:nodetypes="czzcc"
       inkscape:connector-curvature="0"
       id="path5236-5-0-2"
       d="m -217.82271,25.30301 c 0,0 -65.99662,16.33171 -70.69928,18.9255 -4.70266,2.59381 -5.36964,7.36717 0.51902,10.66739 5.88871,3.30024 72.12569,-3.44175 72.12569,-3.44175 -5.75246,-15.01265 -0.77696,-10.34442 -1.94543,-26.15114 z"
       style="fill:url(#radialGradient5244-3-5-1);fill-opacity:1;stroke:none;stroke-width:1px;stroke-linecap:butt;stroke-linejoin:miter;stroke-opacity:1" />
    <path
       sodipodi:nodetypes="czzcc"
       inkscape:connector-curvature="0"
       id="path5236-5-0"
       d="m -207.81917,73.11201 c 0,0 -14.58902,66.40361 -14.34644,71.76867 0.24259,5.36507 4.22677,8.07729 9.79384,4.25949 5.5671,-3.81783 28.86034,-66.18943 28.86034,-66.18943 -16.00763,-1.49201 -9.61852,-3.88518 -24.30774,-9.83873 z"
       style="fill:url(#radialGradient5932);fill-opacity:1;stroke:none;stroke-width:1px;stroke-linecap:butt;stroke-linejoin:miter;stroke-opacity:1" />
    <path
       sodipodi:nodetypes="cczzc"
       inkscape:connector-curvature="0"
       id="path5236-1"
       d="m -118.86181,7.5307485 -0.0905,38.6979365 c 0,0 62.582626,-2.391367 67.267397,-3.722409 4.684752,-1.331062 6.0435,-5.095364 1.209235,-8.743179 C -55.309987,30.115269 -118.86179,7.5307555 -118.86179,7.5307555 Z"
       style="fill:url(#radialGradient5244-5);fill-opacity:1;stroke:none;stroke-width:0.87402141px;stroke-linecap:butt;stroke-linejoin:miter;stroke-opacity:1" />
    <path
       sodipodi:nodetypes="cczzc"
       inkscape:connector-curvature="0"
       id="path5236-5-6"
       d="m -111.92672,63.236792 -34.22102,24.792685 c 0,0 41.55379,40.658383 45.68145,42.962073 4.127682,2.30367 8.307295,0.80214 8.480941,-4.80001 0.173609,-5.60219 -19.941341,-62.954719 -19.941341,-62.954719 z"
       style="fill:url(#radialGradient5244-3-8);fill-opacity:1;stroke:none;stroke-width:0.87402141px;stroke-linecap:butt;stroke-linejoin:miter;stroke-opacity:1" />
    <path
       sodipodi:nodetypes="csssssssssscc"
       inkscape:connector-curvature="0"
       id="path842-7-1-7"
       d="m -221.74797,0 c 0,0 -15.96312,17.103009 -21.25287,26.985883 -4.01333,7.498126 -7.10219,15.64898 -7.62923,23.905253 -0.60102,9.415096 0.61789,19.371321 5.17697,27.92892 5.871,11.020095 15.64313,20.921408 27.24729,27.692234 10.08511,5.8845 22.51331,8.9076 34.60402,9.94081 10.29192,0.87948 20.94809,-0.55337 30.78941,-3.31361 10.25034,-2.87496 20.05737,-7.50634 28.33719,-13.491086 9.27915,-6.707082 17.16055,-15.147964 22.88772,-24.378629 4.742697,-7.643992 8.494415,-16.179262 8.991578,-24.852012 0.465991,-8.128755 -2.316119,-16.323153 -5.721915,-23.905245 C -102.62702,16.919202 -116.57348,0 -116.57348,0 Z"
       style="fill:#000000;fill-opacity:0.56944442;stroke:none;stroke-width:1.01579833px;stroke-linecap:butt;stroke-linejoin:miter;stroke-opacity:1" />
    <path
       sodipodi:nodetypes="csssssssssscc"
       inkscape:connector-curvature="0"
       id="path842-7-9"
       d="m -214.28079,0 c 0,0 -14.75952,15.915827 -19.65042,25.112691 -3.71073,6.977658 -6.56669,14.562734 -7.05399,22.245908 -0.55571,8.761555 0.5713,18.026686 4.78663,25.990278 5.42833,10.255146 14.46365,19.469174 25.19285,25.770017 9.32472,5.476026 20.81583,8.289276 31.99491,9.250776 9.51592,0.81844 19.36862,-0.51496 28.46791,-3.0836 9.47746,-2.67539 18.54505,-6.985294 26.20058,-12.554621 8.5795,-6.241516 15.86666,-14.096489 21.162,-22.686419 4.385097,-7.113388 7.853942,-15.056199 8.313613,-23.126946 0.430849,-7.564514 -2.141492,-15.190102 -5.290483,-22.245899 C -104.14149,15.74478 -117.0364,0 -117.0364,0 Z"
       style="fill:#000000;fill-opacity:0.56944442;stroke:none;stroke-width:0.9422431px;stroke-linecap:butt;stroke-linejoin:miter;stroke-opacity:1" />
    <path
       sodipodi:nodetypes="csssssssssscc"
       inkscape:connector-curvature="0"
       id="path842-72"
       d="m -207.56141,0.0307485 c 0,0 -13.5385,15.0750225 -18.02479,23.7860345 -3.40375,6.609052 -6.02345,13.79341 -6.47043,21.070704 -0.50974,8.298694 0.52404,17.074374 4.39064,24.61726 4.97926,9.713384 13.26711,18.440661 23.10871,24.408634 8.55331,5.186747 19.09378,7.851379 29.34805,8.762079 8.7287,0.7752 17.7663,-0.48775 26.11284,-2.920697 8.6934,-2.534057 17.01084,-6.616275 24.03306,-11.891386 7.86974,-5.911787 14.55406,-13.351806 19.41131,-21.487943 4.02234,-6.7376 7.204216,-14.260804 7.625882,-21.905188 0.395202,-7.164898 -1.964348,-14.387651 -4.852842,-21.070705 -3.65467,-8.455777 -15.48283,-23.3687925 -15.48283,-23.3687925 z"
       style="fill:url(#radialGradient850-9);fill-opacity:1;stroke:none;stroke-width:0.87826705px;stroke-linecap:butt;stroke-linejoin:miter;stroke-opacity:1" />
    <path
       sodipodi:nodetypes="csssssssssscc"
       inkscape:connector-curvature="0"
       id="path842-2-1"
       d="m -204.59322,-1.0625 c 0,0 -12.61064,14.629101 -16.78945,23.082421 -3.17048,6.413567 -5.61063,13.385395 -6.027,20.447437 -0.47479,8.053211 0.48813,16.569302 4.08975,23.88906 4.63799,9.426067 12.35784,17.89518 21.52494,23.68662 7.96711,5.033318 17.78519,7.619125 27.33668,8.502881 8.13045,0.752291 16.54867,-0.473307 24.32318,-2.834291 8.09758,-2.459098 15.84499,-6.420563 22.38595,-11.539624 7.33037,-5.736928 13.55659,-12.956869 18.08094,-20.852337 3.74667,-6.538289 6.71048,-13.838943 7.10323,-21.257212 0.36813,-6.952961 -1.8297,-13.962045 -4.52023,-20.447429 C -110.48944,13.40938 -121.50694,-1.0625 -121.50694,-1.0625 Z"
       style="fill:none;fill-opacity:1;stroke:#391809;stroke-width:2.1414423;stroke-linecap:butt;stroke-linejoin:miter;stroke-miterlimit:4;stroke-dasharray:none;stroke-opacity:0.81944442" />
    <path
       sodipodi:nodetypes="cscsssssasc"
       inkscape:connector-curvature="0"
       id="path876-4"
       d="m -134.87924,94.155411 c 0,0 1.97706,-1.022827 2.96271,-1.626314 0.88094,-0.539381 2.55879,-1.522601 2.55879,-1.522601 0,0 -3.53786,-4.089134 -4.82433,-6.578078 -2.18235,-4.22222 -2.13966,-9.09013 -4.24914,-13.33958 -2.48938,-5.014738 -6.3248,-9.444015 -9.7563,-14.012869 -3.24233,-4.31698 -7.11962,-10.557991 -10.22211,-12.64367 -0.76329,-0.51313 -2.74467,0.38401 -2.34909,1.164959 1.93649,3.822937 13.16513,15.290402 17.87592,23.867988 2.50126,4.554395 3.87059,9.51481 5.36214,14.372949 0.97561,3.177677 2.64141,10.317216 2.64141,10.317216 z"
       style="fill:#301906;fill-opacity:0.97685188;stroke:none;stroke-width:0.87402141px;stroke-linecap:butt;stroke-linejoin:miter;stroke-opacity:1" />
    <text
       transform="scale(0.85824108,1.1651738)"
       id="text2692-1-0-1"
       y="72.671059"
       x="-243.83577"
       style="font-style:normal;font-weight:normal;font-size:99.63694px;line-height:1.25;font-family:sans-serif;letter-spacing:0px;word-spacing:0px;fill:#fff6d5;fill-opacity:1;stroke:#000000;stroke-width:5.36359215;stroke-miterlimit:4;stroke-dasharray:none;stroke-opacity:0.13425927;paint-order:markers stroke fill"
       xml:space="preserve"><tspan
         style="font-style:normal;font-variant:normal;font-weight:normal;font-stretch:normal;font-family:'Times New Roman';-inkscape-font-specification:'Times New Roman, ';fill:#fff6d5;fill-opacity:1;stroke:#000000;stroke-width:5.36359215;stroke-miterlimit:4;stroke-dasharray:none;stroke-opacity:0.13425927;paint-order:markers stroke fill"
         y="72.671059"
         x="-243.83577"
         id="tspan2690-85-1-9"
         sodipodi:role="line">IV</tspan></text>
  </g>
</svg>
