<?xml version="1.0" encoding="UTF-8" standalone="no"?>
<svg
   xmlns:dc="http://purl.org/dc/elements/1.1/"
   xmlns:cc="http://creativecommons.org/ns#"
   xmlns:rdf="http://www.w3.org/1999/02/22-rdf-syntax-ns#"
   xmlns:svg="http://www.w3.org/2000/svg"
   xmlns="http://www.w3.org/2000/svg"
   xmlns:xlink="http://www.w3.org/1999/xlink"
   xmlns:sodipodi="http://sodipodi.sourceforge.net/DTD/sodipodi-0.dtd"
   xmlns:inkscape="http://www.inkscape.org/namespaces/inkscape"
   class="svg-inline--fa fa-arrows-alt fa-w-16 tile-icon"
   version="1.1"
   id="svg1255"
   sodipodi:docname="horses.svg"
   width="512"
   height="512"
   inkscape:version="0.92.4 (5da689c313, 2019-01-14)">
  <metadata
     id="metadata1261">
    <rdf:RDF>
      <cc:Work
         rdf:about="">
        <dc:format>image/svg+xml</dc:format>
        <dc:type
           rdf:resource="http://purl.org/dc/dcmitype/StillImage" />
        <dc:title />
      </cc:Work>
    </rdf:RDF>
  </metadata>
  <defs
     id="defs1259">
    <linearGradient
       inkscape:collect="always"
       id="linearGradient1034">
      <stop
         style="stop-color:#753422;stop-opacity:1"
         offset="0"
         id="stop1030" />
      <stop
         style="stop-color:#6a321d;stop-opacity:1"
         offset="1"
         id="stop1032" />
    </linearGradient>
    <linearGradient
       id="linearGradient1026"
       inkscape:collect="always">
      <stop
         id="stop1022"
         offset="0"
         style="stop-color:#e0692d;stop-opacity:1" />
      <stop
         id="stop1024"
         offset="1"
         style="stop-color:#823e25;stop-opacity:1" />
    </linearGradient>
    <linearGradient
       inkscape:collect="always"
       id="linearGradient1020">
      <stop
         style="stop-color:#f18946;stop-opacity:1"
         offset="0"
         id="stop1016" />
      <stop
         style="stop-color:#8f432a;stop-opacity:0"
         offset="1"
         id="stop1018" />
    </linearGradient>
    <linearGradient
       id="linearGradient990"
       inkscape:collect="always">
      <stop
         id="stop986"
         offset="0"
         style="stop-color:#d8652d;stop-opacity:1" />
      <stop
         id="stop988"
         offset="1"
         style="stop-color:#8f432a;stop-opacity:1" />
    </linearGradient>
    <linearGradient
       inkscape:collect="always"
       id="linearGradient966">
      <stop
         style="stop-color:#e0692d;stop-opacity:1"
         offset="0"
         id="stop962" />
      <stop
         style="stop-color:#7f3b29;stop-opacity:1"
         offset="1"
         id="stop964" />
    </linearGradient>
    <linearGradient
       inkscape:collect="always"
       id="linearGradient934">
      <stop
         style="stop-color:#0f0d0e;stop-opacity:1"
         offset="0"
         id="stop930" />
      <stop
         style="stop-color:#1c0c05;stop-opacity:1"
         offset="1"
         id="stop932" />
    </linearGradient>
    <linearGradient
       id="linearGradient928"
       inkscape:collect="always">
      <stop
         id="stop924"
         offset="0"
         style="stop-color:#ad5d30;stop-opacity:1" />
      <stop
         id="stop926"
         offset="1"
         style="stop-color:#753422;stop-opacity:1" />
    </linearGradient>
    <linearGradient
       inkscape:collect="always"
       id="linearGradient909-0">
      <stop
         style="stop-color:#b8562b;stop-opacity:1"
         offset="0"
         id="stop905" />
      <stop
         style="stop-color:#633022;stop-opacity:1"
         offset="1"
         id="stop907" />
    </linearGradient>
    <radialGradient
       inkscape:collect="always"
       xlink:href="#linearGradient1034"
       id="radialGradient895"
       cx="372.67084"
       cy="237.89079"
       fx="372.67084"
       fy="237.89079"
       r="16.407295"
       gradientTransform="matrix(1.6424419,-1.5469327,1.1777689,1.2504856,-512.996,532.71525)"
       gradientUnits="userSpaceOnUse" />
    <radialGradient
       inkscape:collect="always"
       xlink:href="#linearGradient928"
       id="radialGradient903"
       cx="385.74854"
       cy="205.2435"
       fx="385.74854"
       fy="205.2435"
       r="12.038607"
       gradientTransform="matrix(2.9712042,-2.8268319,0.53668591,0.56409567,-875.65852,1206.3861)"
       gradientUnits="userSpaceOnUse" />
    <radialGradient
       inkscape:collect="always"
       xlink:href="#linearGradient909-0"
       id="radialGradient911"
       cx="281.31992"
       cy="293.32828"
       fx="281.31992"
       fy="293.32828"
       r="44.482043"
       gradientTransform="matrix(0.64807943,1.2129801,-1.8207495,0.97280273,629.19996,-322.25929)"
       gradientUnits="userSpaceOnUse" />
    <radialGradient
       inkscape:collect="always"
       xlink:href="#linearGradient934"
       id="radialGradient936"
       cx="325.16702"
       cy="272.86804"
       fx="325.16702"
       fy="272.86804"
       r="43.862014"
       gradientTransform="matrix(1.6520825,-1.584321,0.69438985,0.72408895,-391.19657,612.90949)"
       gradientUnits="userSpaceOnUse" />
    <radialGradient
       inkscape:collect="always"
       xlink:href="#linearGradient1026"
       id="radialGradient968"
       cx="243.72466"
       cy="324.50934"
       fx="243.72466"
       fy="324.50934"
       r="45.058914"
       gradientTransform="matrix(0.7635778,0.74856469,-1.4222493,1.4507739,526.10484,-313.45507)"
       gradientUnits="userSpaceOnUse" />
    <radialGradient
       inkscape:collect="always"
       xlink:href="#linearGradient966"
       id="radialGradient976"
       cx="252.93243"
       cy="341.82504"
       fx="252.93243"
       fy="341.82504"
       r="50.353207"
       gradientTransform="matrix(-0.54887796,-0.48692233,1.9137408,-2.1572436,-258.22409,1215.6378)"
       gradientUnits="userSpaceOnUse" />
    <radialGradient
       inkscape:collect="always"
       xlink:href="#linearGradient990"
       id="radialGradient984"
       cx="234.50598"
       cy="267.75403"
       fx="234.50598"
       fy="267.75403"
       r="35.748344"
       gradientTransform="matrix(-0.34841304,-0.47848574,1.3993517,-1.0189485,-34.471039,743.59776)"
       gradientUnits="userSpaceOnUse" />
    <radialGradient
       inkscape:collect="always"
       xlink:href="#linearGradient1020"
       id="radialGradient984-3"
       cx="267.3812"
       cy="327.5571"
       fx="267.3812"
       fy="327.5571"
       r="35.748344"
       gradientTransform="matrix(0.45254328,0.68069367,-0.82568498,0.54893735,377.83704,27.241637)"
       gradientUnits="userSpaceOnUse" />
    <radialGradient
       inkscape:collect="always"
       xlink:href="#linearGradient1020"
       id="radialGradient984-3-3"
       cx="267.3812"
       cy="327.5571"
       fx="267.3812"
       fy="327.5571"
       r="35.748344"
       gradientTransform="matrix(0.45254328,0.68069367,-0.82568498,0.54893735,412.37631,-163.88502)"
       gradientUnits="userSpaceOnUse" />
    <radialGradient
       inkscape:collect="always"
       xlink:href="#linearGradient934"
       id="radialGradient936-1"
       cx="325.16702"
       cy="272.86804"
       fx="325.16702"
       fy="272.86804"
       r="43.862015"
       gradientTransform="matrix(1.6520825,-1.584321,0.69438985,0.72408895,-370.78071,409.64817)"
       gradientUnits="userSpaceOnUse" />
    <radialGradient
       inkscape:collect="always"
       xlink:href="#linearGradient928"
       id="radialGradient903-8"
       cx="385.74854"
       cy="205.2435"
       fx="385.74854"
       fy="205.2435"
       r="12.038607"
       gradientTransform="matrix(2.9712042,-2.8268319,0.53668591,0.56409567,-855.24272,1003.1248)"
       gradientUnits="userSpaceOnUse" />
    <radialGradient
       inkscape:collect="always"
       xlink:href="#linearGradient1034"
       id="radialGradient895-9"
       cx="372.67084"
       cy="237.89079"
       fx="372.67084"
       fy="237.89079"
       r="16.407295"
       gradientTransform="matrix(1.6424419,-1.5469327,1.1777689,1.2504856,-492.58014,329.45393)"
       gradientUnits="userSpaceOnUse" />
    <radialGradient
       inkscape:collect="always"
       xlink:href="#linearGradient990"
       id="radialGradient984-2"
       cx="234.50598"
       cy="267.75403"
       fx="234.50598"
       fy="267.75403"
       r="35.748344"
       gradientTransform="matrix(-0.34841304,-0.47848574,1.3993517,-1.0189485,-14.055175,540.33644)"
       gradientUnits="userSpaceOnUse" />
    <radialGradient
       inkscape:collect="always"
       xlink:href="#linearGradient966"
       id="radialGradient976-1"
       cx="252.93243"
       cy="341.82504"
       fx="252.93243"
       fy="341.82504"
       r="50.353207"
       gradientTransform="matrix(-0.54887796,-0.48692233,1.9137408,-2.1572436,-237.80823,1012.3765)"
       gradientUnits="userSpaceOnUse" />
    <radialGradient
       inkscape:collect="always"
       xlink:href="#linearGradient1026"
       id="radialGradient968-6"
       cx="243.72466"
       cy="324.50934"
       fx="243.72466"
       fy="324.50934"
       r="45.058914"
       gradientTransform="matrix(0.7635778,0.74856469,-1.4222493,1.4507739,546.5207,-516.71639)"
       gradientUnits="userSpaceOnUse" />
    <radialGradient
       inkscape:collect="always"
       xlink:href="#linearGradient909-0"
       id="radialGradient911-7"
       cx="281.31992"
       cy="293.32828"
       fx="281.31992"
       fy="293.32828"
       r="44.482044"
       gradientTransform="matrix(0.64807943,1.2129801,-1.8207495,0.97280273,649.61582,-525.52061)"
       gradientUnits="userSpaceOnUse" />
  </defs>
  <sodipodi:namedview
     pagecolor="#ffffff"
     bordercolor="#666666"
     borderopacity="1"
     objecttolerance="10"
     gridtolerance="10"
     guidetolerance="10"
     inkscape:pageopacity="0"
     inkscape:pageshadow="2"
     inkscape:window-width="1920"
     inkscape:window-height="1017"
     id="namedview1257"
     showgrid="false"
     inkscape:zoom="0.834386"
     inkscape:cx="288.21101"
     inkscape:cy="307.21317"
     inkscape:window-x="-8"
     inkscape:window-y="-8"
     inkscape:window-maximized="1"
     inkscape:current-layer="svg1255"
     showguides="false"
     inkscape:guide-bbox="true">
    <sodipodi:guide
       position="-1.1984861,454.22622"
       orientation="1,0"
       id="guide1817"
       inkscape:locked="false" />
    <sodipodi:guide
       position="29.962152,511.75355"
       orientation="0,1"
       id="guide1819"
       inkscape:locked="false" />
    <sodipodi:guide
       position="93.481913,-1.1984861"
       orientation="0,1"
       id="guide1821"
       inkscape:locked="false" />
    <sodipodi:guide
       position="512.95204,222.91841"
       orientation="1,0"
       id="guide1823"
       inkscape:locked="false" />
  </sodipodi:namedview>
  <g
     id="g23888"
     transform="matrix(1.1402608,0,0,1.0422062,-58.382987,-13.533926)">
    <path
       sodipodi:nodetypes="aaaaaaaaaaaaaaaaaaaaaaaaaaaaaaaaaaaaaaaaaaaaaaaaaaaaaaaaaaaa"
       inkscape:connector-curvature="0"
       id="path1053"
       d="m 328.83462,303.61322 c 8.96241,-1.6402 18.17678,-1.68208 27.11574,-3.44564 9.79275,-1.932 19.45097,-4.61345 28.91348,-7.79016 2.14499,-0.72011 4.87987,-0.77893 6.29205,-2.54678 1.54741,-1.93714 0.62909,-4.92769 1.19849,-7.34073 0.54048,-2.2905 0.96878,-4.67634 2.09735,-6.74149 0.78187,-1.43072 1.97069,-2.61529 3.14603,-3.74527 1.82176,-1.75144 4.07209,-3.00137 5.99243,-4.64413 1.82538,-1.56153 4.02922,-2.87101 5.24337,-4.94375 1.56101,-2.66489 0.0797,-6.78852 2.24716,-8.98865 3.40881,-3.46019 9.50969,-5.38383 14.08222,-3.74527 2.25696,0.80878 3.76027,3.48482 4.1947,5.84262 0.49603,2.69212 -2.16632,5.2034 -2.09735,7.93997 0.0911,3.6154 1.62622,7.12885 3.29583,10.33694 0.60864,1.16947 1.84155,1.95037 2.39697,3.14603 0.96981,2.08772 1.68418,4.44704 1.49811,6.74148 -0.087,1.07216 -1.55155,1.98014 -1.19848,2.99622 0.88843,2.55679 6.96469,1.33922 7.0411,4.04489 0.0774,2.74135 -4.22101,3.86936 -6.89129,4.49432 -2.88888,0.67612 -5.93611,-1.66261 -8.83884,-1.04867 -4.6,0.97292 -8.27397,4.50733 -12.13467,7.19091 -7.43486,5.16799 -13.94652,11.55766 -21.12332,17.07843 -8.58173,6.60152 -17.81736,12.34393 -26.21688,19.17578 -2.13951,1.74019 -4.34781,3.44877 -6.14224,5.543 -3.49662,4.08082 -5.56756,9.21937 -8.83884,13.48296 -3.78916,4.93856 -8.45256,9.14775 -12.43429,13.9324 -3.59723,4.32261 -6.57785,9.15054 -10.33694,13.33316 -3.6592,4.07149 -8.0857,7.397 -11.83505,11.38562 -2.94333,3.13116 -5.31837,6.77643 -8.34689,9.82527 -2.36445,2.38032 -4.82688,4.71977 -7.62712,6.5678 -3.34781,2.20941 -7.28132,3.38026 -10.80509,5.29661 -2.17053,1.18041 -4.60262,2.07273 -6.35593,3.81356 -2.40656,2.38943 -3.3667,5.89783 -5.29661,8.68644 -3.26398,4.71627 -6.64983,9.3944 -10.59322,13.55932 -4.57676,4.83387 -9.43093,9.55443 -15.04237,13.13559 -4.10421,2.61927 -8.54539,5.12893 -13.34746,5.93221 -4.82424,0.80699 -9.82378,-2.23752 -14.61864,-1.27119 -1.48642,0.29956 -2.88495,1.1194 -4.02543,2.11865 -1.56223,1.36877 -2.37358,3.40968 -3.60169,5.08474 -1.51998,2.07315 -2.93399,4.23995 -4.66102,6.14407 -2.58522,2.8503 -5.39255,5.53492 -8.47458,7.83898 -6.51873,4.87326 -13.66444,8.92166 -20.97457,12.5 -4.6998,2.30057 -9.55145,4.41485 -14.61865,5.72034 -3.65605,0.94193 -7.70858,2.84758 -11.22881,1.48305 -1.63562,-0.63401 -2.92637,-2.33355 -3.38983,-4.02542 -0.68095,-2.48586 0.17232,-5.29566 1.27119,-7.62712 0.91771,-1.94707 3.22629,-2.97257 4.23728,-4.87288 1.40805,-2.64663 0.38771,-6.40328 2.33051,-8.68644 3.01123,-3.53877 8.27931,-4.32647 12.71187,-5.72034 3.63356,-1.14261 7.49272,-1.37708 11.22881,-2.11865 3.39635,-0.67414 6.90367,-0.96796 10.16949,-2.11864 3.51511,-1.23852 6.85497,-3.01995 9.95763,-5.08475 2.0024,-1.33258 4.21998,-2.62996 5.50847,-4.66101 1.60595,-2.53144 1.9759,-5.70961 2.33051,-8.68644 0.33424,-2.8059 -0.2094,-5.64884 -0.21186,-8.47458 -0.003,-3.03754 -0.25159,-6.10819 0.21186,-9.11017 0.6172,-3.99784 1.88023,-7.89958 3.38983,-11.65254 4.55023,-11.31215 9.67212,-22.63191 16.94916,-32.41526 22.56278,-30.33369 48.05019,-60.96141 81.14406,-79.23728 4.53498,-2.50441 10.01634,-2.69551 15.11226,-3.62811 z"
       style="fill:#000000;fill-opacity:0.55555558;stroke:none;stroke-width:1px;stroke-linecap:butt;stroke-linejoin:miter;stroke-opacity:1" />
    <path
       sodipodi:nodetypes="sssssssssssssssssssss"
       inkscape:connector-curvature="0"
       id="path1051"
       d="m 195.35323,447.13193 c 2.67814,5.36648 11.9809,0.87109 17.97729,0.74906 10.31984,-0.21001 30.41159,-1.94754 30.86102,-2.54679 0.44943,-0.59924 17.57765,-11.3424 24.86858,-18.72634 3.26321,-3.30484 6.21544,-7.05571 8.2396,-11.23581 1.30946,-2.70416 0.61971,-6.26652 2.39697,-8.68902 5.87472,-8.00754 18.15143,-9.00475 25.01839,-16.17956 3.48205,-3.63816 5.99244,-11.98487 7.64035,-13.03354 1.64792,-1.04868 10.26176,-9.0231 14.83127,-14.08221 4.65309,-5.15164 7.99741,-11.40413 12.73391,-16.47919 5.30979,-5.68933 11.66631,-10.30317 17.44582,-15.51466 2.48726,-2.24281 5.42464,-4.08632 7.41526,-6.77966 4.50623,-6.09701 11.87511,-13.27448 9.74576,-20.55085 -0.74848,-2.5577 -4.1154,-4.17572 -6.77966,-4.23729 -2.59218,-0.0599 -5.93221,3.17797 -6.77966,3.81356 -0.84746,0.63559 -4.37972,2.31805 -6.77966,2.75424 -2.64128,0.48005 -5.44703,-0.86526 -8.05085,-0.21187 -30.43306,7.63675 -57.7483,26.4363 -81.77966,46.61017 -18.477,15.5111 -32.928,35.56575 -46.18644,55.72034 -4.35685,6.62299 -6.74628,14.37673 -10.80509,21.18644 -3.61315,6.06201 -15.16444,11.11851 -12.0132,17.43298 z"
       style="fill:#000000;fill-opacity:0.62037036;stroke:none;stroke-width:1px;stroke-linecap:butt;stroke-linejoin:miter;stroke-opacity:1" />
    <path
       sodipodi:nodetypes="ssssssssssssssssssss"
       inkscape:connector-curvature="0"
       id="path879"
       d="m 220.37163,409.52943 c 1.34684,-0.70191 3.16545,-1.48441 4.49432,-0.74905 1.13602,0.62864 1.57879,2.29961 1.49811,3.59546 -0.10007,1.6073 -1.53481,2.83451 -2.39697,4.1947 -2.28434,3.60392 -4.82853,7.03779 -7.34073,10.48675 -3.65166,5.0133 -7.5215,9.86421 -11.23581,14.83127 -4.68335,6.26292 -9.16145,12.67971 -13.9324,18.87615 -2.77382,3.60259 -5.34609,7.39979 -8.53921,10.63657 -2.86483,2.904 -5.93471,5.70047 -9.43808,7.79016 -4.67488,2.78847 -9.79592,7.22308 -15.13089,6.14224 -2.00724,-0.40666 -3.41081,-2.52171 -4.34451,-4.34451 -0.99184,-1.93631 -1.19559,-4.27128 -1.04867,-6.44187 0.12695,-1.87548 0.45208,-3.94282 1.64791,-5.39318 1.15111,-1.39613 3.33205,-1.48045 4.79395,-2.54679 4.27956,-3.1216 7.63586,-7.34455 11.38562,-11.08599 4.49959,-4.4896 8.26822,-9.79229 13.33315,-13.63278 1.90542,-1.44479 4.36087,-2.03549 6.29206,-3.44565 4.56419,-3.33278 8.18108,-7.7992 12.28448,-11.68524 3.48831,-3.30353 7.05729,-6.52292 10.48675,-9.88751 2.44508,-2.39884 4.15335,-5.75769 7.19092,-7.34073 z"
       style="fill:#211c1e;fill-opacity:0.74074073;stroke:none;stroke-width:1px;stroke-linecap:butt;stroke-linejoin:miter;stroke-opacity:1" />
    <path
       sodipodi:nodetypes="aaaaaaaa"
       inkscape:connector-curvature="0"
       id="path842"
       d="m 330.14186,266.77523 c -1.61414,-1.58206 -4.65016,-0.86327 -6.77966,-0.10594 -2.99887,1.0665 -5.56071,3.48456 -7.30933,6.14407 -2.02533,3.08037 -4.44946,7.13288 -3.17796,10.59322 0.78371,2.13284 3.45757,3.91518 5.72034,3.70763 3.63152,-0.3331 5.71106,-4.63869 7.94491,-7.52119 1.60717,-2.07385 3.20253,-4.33403 3.81356,-6.88559 0.46081,-1.92426 1.20124,-4.54719 -0.21186,-5.9322 z"
       style="fill:#64301c;fill-opacity:1;stroke:none;stroke-width:1px;stroke-linecap:butt;stroke-linejoin:miter;stroke-opacity:1" />
    <path
       sodipodi:nodetypes="aaaaaaaaa"
       inkscape:connector-curvature="0"
       id="path859"
       d="m 187.74538,414.80674 c -1.45028,2.38065 -1.77333,5.54484 -1.20978,8.2749 0.32943,1.59584 1.11563,3.41643 2.56473,4.16164 1.46661,0.7542 3.5199,0.50665 4.93591,-0.33874 1.37561,-0.82126 2.10785,-2.52927 2.56473,-4.06486 0.59346,-1.99465 0.75021,-4.26664 0.0968,-6.24246 -0.65744,-1.98796 -1.79009,-4.48241 -3.8229,-4.98429 -0.67266,-0.16607 -1.28842,0.52255 -1.88726,0.87104 -1.14906,0.66868 -2.55055,1.1874 -3.24221,2.32277 z"
       style="fill:#181614;fill-opacity:1;stroke:none;stroke-width:0.91362542px;stroke-linecap:butt;stroke-linejoin:miter;stroke-opacity:1" />
    <path
       sodipodi:nodetypes="ssssssssssssssssssss"
       inkscape:connector-curvature="0"
       id="path879-6"
       d="m 220.37163,406.23359 c 1.34684,-0.70191 3.16545,-1.48441 4.49432,-0.74905 1.13602,0.62864 1.57879,2.29961 1.49811,3.59546 -0.10007,1.6073 -1.53481,2.83451 -2.39697,4.1947 -2.28434,3.60392 -4.82853,7.03779 -7.34073,10.48675 -3.65166,5.0133 -7.5215,9.86421 -11.23581,14.83127 -4.68335,6.26292 -9.16145,12.67971 -13.9324,18.87615 -2.77382,3.60259 -5.34609,7.39979 -8.53921,10.63657 -2.86483,2.904 -5.93471,5.70047 -9.43808,7.79016 -4.67488,2.78847 -9.79592,7.22308 -15.13089,6.14224 -2.00724,-0.40666 -3.41081,-2.52171 -4.34451,-4.34451 -0.99184,-1.93631 -1.19559,-4.27128 -1.04867,-6.44187 0.12695,-1.87548 0.45208,-3.94282 1.64791,-5.39318 1.15111,-1.39613 3.33205,-1.48045 4.79395,-2.54679 4.27956,-3.1216 7.63586,-7.34455 11.38562,-11.08599 4.49959,-4.4896 8.26822,-9.79229 13.33315,-13.63278 1.90542,-1.44479 4.36087,-2.03549 6.29206,-3.44565 4.56419,-3.33278 8.18108,-7.7992 12.28448,-11.68524 3.48831,-3.30353 7.05729,-6.52292 10.48675,-9.88751 2.44508,-2.39884 4.15335,-5.75769 7.19092,-7.34073 z"
       style="fill:#0f0d0e;fill-opacity:1;stroke:none;stroke-width:1px;stroke-linecap:butt;stroke-linejoin:miter;stroke-opacity:1" />
    <path
       sodipodi:nodetypes="aaaaaaaaaaaa"
       inkscape:connector-curvature="0"
       id="path861"
       d="m 191.90033,414.17989 c -0.0265,1.51905 -0.84044,3.19724 -0.1589,4.55508 0.62614,1.24746 2.09121,2.03503 3.4428,2.38348 1.35752,0.34998 2.93776,0.2177 4.18432,-0.42373 1.21249,-0.6239 1.90069,-1.96821 2.70127,-3.07204 1.05953,-1.46087 1.88292,-3.08064 2.75424,-4.66101 1.10178,-1.99839 3.46457,-3.83453 3.125,-6.09111 -0.29354,-1.9507 -2.20811,-3.79851 -4.13136,-4.23728 -2.1618,-0.49319 -4.39256,1.06652 -6.25,2.27754 -1.51671,0.98887 -2.63904,2.49808 -3.76059,3.91949 -0.72807,0.92272 -1.57556,1.83836 -1.90678,2.9661 -0.22389,0.7623 0.0138,1.58911 0,2.38348 z"
       style="fill:#462518;fill-opacity:1;stroke:#000000;stroke-width:1px;stroke-linecap:butt;stroke-linejoin:miter;stroke-opacity:0" />
    <path
       sodipodi:nodetypes="ssaaaaaaaas"
       inkscape:connector-curvature="0"
       id="path863"
       d="m 367.74779,263.80912 c -1.34942,4.72972 -9.10878,9.27575 -11.44068,16.52543 -0.75532,2.34821 -2.26363,4.4151 -2.9661,6.77966 -1.10102,3.70607 -1.13894,7.65153 -1.90678,11.44068 -0.66338,3.27364 -0.14078,7.22348 -2.33051,9.74576 -3.5335,4.07013 -9.68799,6.55042 -15.04237,5.9322 -7.76478,-0.89653 -18.12855,-5.61632 -19.27966,-13.34746 -0.95508,-6.41455 7.7525,-10.42063 12.07627,-15.25423 7.35789,-8.22549 14.43984,-17.0279 23.51695,-23.30509 3.76883,-2.6063 8.08799,-6.9577 12.5,-5.72034 2.79123,0.78281 5.66822,4.41571 4.87288,7.20339 z"
       style="fill:#53281a;fill-opacity:1;stroke:none;stroke-width:1px;stroke-linecap:butt;stroke-linejoin:miter;stroke-opacity:1" />
    <path
       sodipodi:nodetypes="aaaaaaaaaaaa"
       inkscape:connector-curvature="0"
       id="path865"
       d="m 339.99355,325.2498 c 3.43457,-3.89685 9.13057,-6.05333 11.22881,-10.80508 2.11178,-4.7824 2.61492,-10.93143 0.42373,-15.67797 -5.70449,-12.357 -18.7214,-21.7991 -31.77966,-25.63559 -4.42971,-1.30144 -9.61893,-0.53559 -13.77118,1.48305 -7.27612,3.53733 -11.13259,11.74953 -16.94916,17.37288 -4.67223,4.51702 -9.92296,8.43149 -14.40678,13.13559 -3.66837,3.84859 -9.03614,7.09352 -10.16949,12.28814 -1.74547,8.00024 1.6223,17.04725 6.35593,23.72881 5.78642,8.16757 14.83001,15.93559 24.78814,16.94915 10.36045,1.05451 20.61043,-5.6607 28.81356,-12.07627 6.79788,-5.31654 9.75989,-14.28847 15.4661,-20.76271 z"
       style="fill:url(#radialGradient911);fill-opacity:1;stroke:none;stroke-width:1px;stroke-linecap:butt;stroke-linejoin:miter;stroke-opacity:1" />
    <path
       sodipodi:nodetypes="aaaaaaaaaaaaaaaaa"
       inkscape:connector-curvature="0"
       id="path867"
       d="m 249.95118,328.00404 c -3.79482,4.61725 -7.37758,9.45173 -10.38136,14.61864 -2.27076,3.90603 -4.29909,7.99938 -5.72034,12.28814 -2.51826,7.5991 -7.66664,16.01476 -4.87288,23.51695 3.44561,9.25264 14.69041,13.58402 23.51695,18.00847 3.47752,1.74316 7.36329,3.61324 11.22881,3.17797 7.75713,-0.87348 14.03626,-6.92811 20.55085,-11.22882 3.52539,-2.32734 6.66126,-5.19723 9.95763,-7.83898 2.70255,-2.16585 5.57055,-4.15061 8.05085,-6.5678 3.80164,-3.7049 7.25692,-7.78481 10.38135,-12.07627 1.75371,-2.40875 3.91309,-4.743 4.66102,-7.62712 1.29522,-4.99451 1.46706,-10.75425 -0.63559,-15.4661 -3.13415,-7.02336 -10.57661,-11.22706 -16.52543,-16.10169 -4.83327,-3.96053 -9.61621,-8.3966 -15.4661,-10.59322 -5.05978,-1.89993 -10.94347,-3.52044 -16.10169,-1.90678 -4.67935,1.46386 -7.49137,6.33849 -11.01695,9.74576 -2.65817,2.56897 -5.27992,5.19496 -7.62712,8.05085 z"
       style="fill:url(#radialGradient968);fill-opacity:1;stroke:none;stroke-width:1px;stroke-linecap:butt;stroke-linejoin:miter;stroke-opacity:1" />
    <path
       sodipodi:nodetypes="aaaaaaaaaaaaaaaaaaaaa"
       inkscape:connector-curvature="0"
       id="path869"
       d="m 221.77321,361.90234 c 4.74653,-2.49455 10.8119,-1.3492 15.67797,-3.60169 5.67823,-2.62844 10.21695,-7.24556 15.04237,-11.22882 3.31553,-2.73688 5.27861,-8.07344 9.5339,-8.68644 8.62832,-1.24295 15.23648,8.71549 23.51695,11.44068 3.68401,1.21245 9.54846,-1.26683 11.44068,2.11865 2.10516,3.76646 -2.6755,8.24539 -4.66102,12.07627 -2.10907,4.06924 -6.57409,6.97996 -7.62712,11.44068 -0.65407,2.77068 0.97117,5.62909 1.05932,8.47457 0.0351,1.13161 0.34534,2.40429 -0.21186,3.38983 -2.99838,5.30338 -11.30472,5.57031 -15.04237,10.38136 -3.37224,4.3407 -2.41567,11.07374 -5.72034,15.4661 -4.00821,5.32747 -10.30239,8.57569 -16.1017,11.86441 -4.92868,2.79499 -10.10492,5.54554 -15.67796,6.56779 -4.10065,0.75217 -8.68939,1.26751 -12.5,-0.42373 -5.66052,-2.51227 -8.43237,-9.08356 -12.92373,-13.34745 -3.1944,-3.03262 -8.26054,-4.62186 -9.95763,-8.68644 -1.74485,-4.17896 -0.33002,-9.18649 0.84746,-13.55933 1.56026,-5.79435 4.83708,-11.03408 8.05084,-16.10169 2.93578,-4.62928 6.44191,-8.90451 10.1695,-12.92373 1.56352,-1.68584 3.04944,-3.59136 5.08474,-4.66102 z"
       style="fill:url(#radialGradient976);fill-opacity:1;stroke:none;stroke-width:1px;stroke-linecap:butt;stroke-linejoin:miter;stroke-opacity:1" />
    <path
       sodipodi:nodetypes="aaaaaaaaaaaaaaaaaaa"
       inkscape:connector-curvature="0"
       id="path871"
       d="m 207.93733,391.70195 c -0.18807,3.31463 1.10815,6.67259 2.6966,9.58789 3.28382,6.02681 7.65321,12.06144 13.63278,15.43051 4.64237,2.61565 10.43967,3.4822 15.73013,2.8464 5.37139,-0.64552 10.79423,-2.99016 14.83126,-6.59167 4.62698,-4.12782 7.32538,-10.20014 9.43808,-16.02975 1.46573,-4.04442 1.69902,-8.45057 2.09735,-12.73392 0.20813,-2.23806 -1.16007,-4.91489 0.14981,-6.74148 1.70311,-2.37494 6.11924,-0.98499 8.23959,-2.99622 2.87344,-2.72556 4.87965,-6.98272 4.64414,-10.93618 -0.25672,-4.30952 -3.18303,-8.40423 -6.44187,-11.23581 -3.24792,-2.82209 -7.72799,-5.42025 -11.98486,-4.79394 -3.72672,0.54831 -6.44017,4.1367 -8.83883,7.0411 -2.26154,2.73835 -1.78069,7.82312 -4.94376,9.43808 -2.78637,1.42263 -6.23495,-2.03025 -9.28826,-1.3483 -3.09542,0.69135 -5.05978,3.91519 -7.93997,5.24338 -2.78435,1.284 -6.16474,1.04664 -8.83884,2.54678 -2.83589,1.59091 -5.33299,3.92309 -7.19092,6.59168 -3.02018,4.33795 -5.693,9.40417 -5.99243,14.68145 z"
       style="fill:url(#radialGradient984);fill-opacity:1;stroke:none;stroke-width:1px;stroke-linecap:butt;stroke-linejoin:miter;stroke-opacity:1" />
    <path
       sodipodi:nodetypes="aaaaaaaaaaa"
       inkscape:connector-curvature="0"
       id="path873"
       d="m 370.18239,263.01451 c 2.79189,-0.50001 5.33921,-2.08712 7.64035,-3.74527 3.753,-2.70432 7.94758,-5.62208 9.73769,-9.88751 1.14032,-2.71712 0.81372,-5.9679 0.14981,-8.83883 -0.64406,-2.78515 -1.88491,-5.60785 -3.89507,-7.64035 -0.83246,-0.84171 -1.98917,-1.39665 -3.14603,-1.64793 -3.56767,-0.77493 -7.61314,-0.91277 -10.93619,0.59925 -4.62861,2.10607 -8.12069,6.51691 -10.63656,10.93618 -1.61214,2.83182 -2.85245,6.1939 -2.54678,9.43808 0.34359,3.64665 1.79246,7.78818 4.79394,9.88751 2.42678,1.69737 5.92374,1.42094 8.83884,0.89887 z"
       style="fill:url(#radialGradient895);fill-opacity:1;stroke:none;stroke-width:1px;stroke-linecap:butt;stroke-linejoin:miter;stroke-opacity:1" />
    <path
       sodipodi:nodetypes="zzzzzzzzzzzzz"
       inkscape:connector-curvature="0"
       id="path875"
       d="m 388.15968,222.26598 c 1.62908,-0.54843 4.74765,-1.26652 6.44186,-0.74905 1.69421,0.51747 2.51822,0.94959 3.14603,2.69659 0.62781,1.747 -0.10572,4.50963 -1.19849,6.8913 -1.09277,2.38167 -4.46037,4.88377 -5.543,6.74148 -1.08263,1.85771 -0.70383,2.25084 -1.49811,3.89508 -0.79428,1.64424 -0.86817,4.86375 -3.44564,5.84262 -2.57747,0.97887 -7.16089,-1.00254 -9.28827,-2.99621 -2.12738,-1.99367 -3.04291,-4.27643 -2.8464,-7.19092 0.19651,-2.91449 3.30685,-7.02182 4.79394,-8.53921 1.48709,-1.51739 1.50189,-0.7438 2.54678,-1.49811 1.04489,-0.75431 2.43336,-2.30535 3.59546,-3.14603 1.1621,-0.84068 1.66676,-1.39911 3.29584,-1.94754 z"
       style="fill:url(#radialGradient903);fill-opacity:1;stroke:none;stroke-width:1px;stroke-linecap:butt;stroke-linejoin:miter;stroke-opacity:1" />
    <path
       sodipodi:nodetypes="sssssssssssssssssssssssss"
       inkscape:connector-curvature="0"
       id="path877-6"
       d="m 374.25866,236.35165 c 2.27418,-0.36549 3.13283,3.34046 4.96588,4.70737 1.86281,1.38912 5.6455,1.2356 6.05215,3.49257 0.59339,3.29338 -4.04076,5.4403 -6.5177,7.7444 -2.89432,2.69235 -8.24595,3.31655 -9.62138,6.98514 -0.54884,1.46389 1.3759,3.0222 1.08628,4.55553 -0.77183,4.08631 -4.22562,7.30188 -7.13843,10.32586 -4.78295,4.96548 -11.52062,7.78147 -16.60462,12.45177 -3.90253,3.58497 -9.77655,10.93326 -10.55246,11.84437 -0.77593,0.91111 -3.10368,10.02215 -4.03478,10.174 -0.9311,0.15185 -7.63983,1.13122 -10.39728,3.49258 -2.43717,2.08708 -1.90525,6.41961 -4.34515,8.50364 -3.8696,3.30521 -9.46451,5.22652 -14.58723,4.85924 -2.14578,-0.15385 -4.25721,-1.36135 -5.74179,-2.88518 -1.29384,-1.32803 -2.19482,-3.18087 -2.32775,-5.01107 -0.31331,-4.31384 1.47085,-8.73151 3.7244,-12.45178 3.3571,-5.54206 9.41739,-9.00927 13.96651,-13.66657 5.03445,-5.15417 9.34725,-11.00051 14.74242,-15.79249 3.06418,-2.7216 6.83774,-4.59976 9.93174,-7.28885 3.47409,-3.01942 6.1018,-6.90174 9.62137,-9.8703 4.21777,-3.55746 8.34792,-7.76873 13.65613,-9.41476 1.28209,-0.39756 2.79222,0.50362 4.03477,0 2.16273,-0.8766 3.38283,-3.17173 4.96587,-4.85923 0.86889,-0.92622 1.77043,-1.83888 2.48294,-2.88516 1.0648,-1.56361 0.74329,-4.70656 2.63811,-5.01108 z"
       style="fill:#060606;fill-opacity:0.68981479;stroke:none;stroke-width:1.02468002px;stroke-linecap:butt;stroke-linejoin:miter;stroke-opacity:1" />
    <path
       sodipodi:nodetypes="sssssssssssssssssssssssss"
       inkscape:connector-curvature="0"
       id="path877"
       d="m 373.74305,235.45245 c 2.19544,-0.36058 3.02437,3.29558 4.79395,4.64413 1.79832,1.37045 5.45005,1.219 5.84262,3.44565 0.57285,3.24913 -3.90086,5.3672 -6.29205,7.64035 -2.79412,2.65618 -7.96046,3.27199 -9.28827,6.89129 -0.52984,1.44423 1.32826,2.9816 1.04867,4.49433 -0.74511,4.03141 -4.07933,7.20378 -6.89129,10.18713 -4.61736,4.89877 -11.12176,7.67693 -16.02975,12.28448 -3.76742,3.53681 -9.43808,10.78638 -10.18713,11.68524 -0.74906,0.89887 -2.99622,9.88751 -3.89508,10.03732 -0.89887,0.14981 -7.37533,1.11602 -10.03732,3.44565 -2.35279,2.05904 -1.83928,6.33337 -4.19471,8.3894 -3.73564,3.2608 -9.13685,5.1563 -14.08221,4.79395 -2.07149,-0.15178 -4.10981,-1.34306 -5.543,-2.84641 -1.24905,-1.31019 -2.11884,-3.13814 -2.24716,-4.94375 -0.30246,-4.25588 1.41993,-8.6142 3.59546,-12.28449 3.24087,-5.4676 9.09135,-8.88823 13.48297,-13.48296 4.86015,-5.08492 9.02364,-10.85272 14.23202,-15.58032 2.95809,-2.68503 6.60101,-4.53796 9.58789,-7.19092 3.35381,-2.97886 5.89055,-6.80902 9.28827,-9.7377 4.07175,-3.50966 8.05891,-7.66435 13.18334,-9.28827 1.2377,-0.39222 2.69555,0.49686 3.89508,0 2.08786,-0.86482 3.26572,-3.12912 4.79395,-4.79394 0.83881,-0.91378 1.70913,-1.81418 2.39697,-2.8464 1.02794,-1.54261 0.71756,-4.64333 2.54678,-4.94376 z"
       style="fill:url(#radialGradient936);fill-opacity:1;stroke:none;stroke-width:1px;stroke-linecap:butt;stroke-linejoin:miter;stroke-opacity:1" />
    <path
       sodipodi:nodetypes="aaaaaaaaaaaaaaaaaaa"
       inkscape:connector-curvature="0"
       id="path871-3"
       d="m 192.48441,392.39553 c -0.25972,4.57744 1.53034,9.21473 3.72396,13.24071 4.5349,8.32293 10.56896,16.65665 18.82664,21.30928 6.41104,3.61217 14.41702,4.80886 21.72305,3.93083 7.41781,-0.89145 14.90666,-4.12936 20.48173,-9.10298 6.38978,-5.70045 10.11623,-14.08623 13.03383,-22.13682 2.02415,-5.58528 2.34632,-11.6701 2.89641,-17.58534 0.28742,-3.09072 -1.60204,-6.78738 0.20688,-9.30987 2.35197,-3.27975 8.45057,-1.36025 11.37874,-4.13773 3.96817,-3.76395 6.73872,-9.64302 6.41348,-15.10268 -0.35452,-5.95138 -4.39571,-11.60611 -8.89611,-15.51647 -4.48533,-3.89726 -10.67223,-7.48528 -16.5509,-6.62035 -5.14654,0.7572 -8.89377,5.71271 -12.20628,9.72364 -3.12315,3.78162 -2.4591,10.8036 -6.82725,13.03383 -3.84793,1.96463 -8.61036,-2.80374 -12.82693,-1.86198 -4.27473,0.95474 -6.98747,5.40681 -10.96497,7.24102 -3.84514,1.77319 -8.5134,1.4454 -12.20629,3.51706 -3.91632,2.19702 -7.36477,5.41773 -9.93054,9.10301 -4.17082,5.99063 -7.86194,12.987 -8.27545,20.27484 z"
       style="fill:url(#radialGradient984-3);fill-opacity:1;stroke:none;stroke-width:1.38098347px;stroke-linecap:butt;stroke-linejoin:miter;stroke-opacity:1" />
    <path
       sodipodi:nodetypes="aaaaaaaaaaaaaacccaaaaaaaaaaaaaaaaccccccscaaa"
       inkscape:connector-curvature="0"
       id="path1053-0"
       d="m 349.25048,100.35192 c 8.21101,-2.63701 16.09517,-6.221171 23.96971,-9.737697 14.96809,-6.684279 29.22183,-14.898038 44.19418,-21.57275 2.06659,-0.921289 4.87987,-0.778927 6.29205,-2.54678 1.54741,-1.937138 0.62909,-4.927692 1.19849,-7.34073 0.54048,-2.290499 0.96878,-4.676341 2.09735,-6.74149 0.78187,-1.430723 1.97069,-2.615291 3.14603,-3.74527 1.82176,-1.751443 4.0721,-3.001369 5.99243,-4.64413 1.82538,-1.561532 4.02922,-2.871011 5.24337,-4.943751 1.56101,-2.66489 0.0797,-6.788525 2.24716,-8.98865 3.40881,-3.460192 9.50969,-5.383829 14.08222,-3.74527 2.25696,0.808777 3.76027,3.484817 4.1947,5.84262 0.49603,2.69212 -2.16632,5.203404 -2.09735,7.939971 0.0911,3.615401 1.62622,7.128851 3.29583,10.33694 0.60864,1.169474 1.84155,1.950366 2.39697,3.14603 -1.09819,5.462559 2.31007,4.818612 4.34452,6.292053 2.38489,3.173477 -0.37243,5.290191 -5.69281,7.340723 -2.8407,0.856252 -7.17448,2.388282 -10.63657,3.895086 -3.23544,1.408162 -6.53559,2.787306 -9.43807,4.793937 -8.28651,5.728861 -14.78134,13.693902 -22.32181,20.374267 -10.5491,9.345811 -22.80153,16.938891 -32.0595,27.565171 -4.17647,4.79374 -6.87123,10.69949 -10.33694,16.02975 -2.92936,4.50536 -5.56756,9.21937 -8.83884,13.48296 -3.78916,4.93856 -8.45256,9.14775 -12.43429,13.9324 -3.59723,4.32261 -6.57785,9.15054 -10.33694,13.33316 -3.6592,4.07149 -8.0857,7.397 -11.83505,11.38562 -2.94333,3.13116 -5.31837,6.77643 -8.34689,9.82527 -2.36445,2.38032 -4.82688,4.71977 -7.62712,6.5678 -3.34781,2.20941 -7.28132,3.38026 -10.80509,5.29661 -2.17053,1.18041 -4.60262,2.07273 -6.35593,3.81356 -2.40656,2.38943 -3.03798,6.15671 -5.29661,8.68644 -3.06269,3.4303 -7.09045,5.87948 -10.89284,8.46575 -5.24801,3.56955 -10.18985,8.33605 -16.39067,9.68995 -4.4194,0.96493 -9.28521,-3.05801 -13.49727,-1.40852 -9.9435,0.52237 -14.57582,1.63371 -25.23574,1.74632 -1.56223,1.36877 -7.08285,12.79471 -9.14469,15.87112 -5.08804,11.63918 -19.9905,23.42815 -25.12153,25.28456 -12.42954,1.80602 -17.29896,-5.81837 -16.45455,-12.61528 3.01123,-3.53877 8.27931,-4.32647 12.71187,-5.72034 5.72615,-11.51462 14.85272,-30.45672 20.82336,-36.59843 12.35446,-12.70844 10.34033,-24.12985 12.39821,-30.88867 4.55023,-11.31215 18.1596,-10.35805 26.31233,-16.83494 29.60072,-23.51615 48.05019,-60.96141 81.14406,-79.23726 4.53498,-2.50441 10.17983,-2.04404 15.11226,-3.62811 z"
       style="fill:#000000;fill-opacity:0.55555558;stroke:none;stroke-width:1px;stroke-linecap:butt;stroke-linejoin:miter;stroke-opacity:1" />
    <path
       sodipodi:nodetypes="sssssssssssssssssssss"
       inkscape:connector-curvature="0"
       id="path1051-2"
       d="m 208.81262,242.27722 c 2.67814,5.36648 18.93737,2.46448 24.93376,2.34245 10.31984,-0.21001 30.41159,-1.94754 30.86102,-2.54679 0.44943,-0.59924 17.57765,-11.3424 24.86858,-18.72634 3.26321,-3.30484 6.21544,-7.05571 8.2396,-11.23581 1.30946,-2.70416 0.61971,-6.26652 2.39697,-8.68902 5.87472,-8.00754 18.15143,-9.00475 25.01839,-16.17956 3.48205,-3.63816 5.99244,-11.98487 7.64035,-13.03354 1.64792,-1.04868 10.26176,-9.0231 14.83127,-14.08221 4.65309,-5.15164 7.99741,-11.40413 12.73391,-16.47919 5.30979,-5.68933 11.66631,-10.30317 17.44582,-15.51466 2.48726,-2.24281 5.42464,-4.08632 7.41526,-6.77966 4.50623,-6.097 11.87511,-13.27447 9.74576,-20.55083 -0.74848,-2.557705 -4.1154,-4.175725 -6.77966,-4.237295 -2.59218,-0.0599 -5.93221,3.17797 -6.77966,3.813565 -0.84746,0.63559 -4.37972,2.31805 -6.77966,2.75424 -2.64128,0.48005 -5.44703,-0.86526 -8.05085,-0.21187 -30.43306,7.63674 -57.7483,26.43628 -81.77966,46.61015 -18.477,15.5111 -23.04672,26.77703 -36.30516,46.93162 -4.35685,6.62299 -24.94632,1.63237 -22.79307,5.95715 3.14535,6.3174 -20.01421,33.54313 -16.86297,39.8576 z"
       style="fill:#000000;fill-opacity:0.62037036;stroke:none;stroke-width:1px;stroke-linecap:butt;stroke-linejoin:miter;stroke-opacity:1" />
    <path
       sodipodi:nodetypes="aaaaaaaa"
       inkscape:connector-curvature="0"
       id="path842-3"
       d="m 352.65507,67.558816 c -1.61414,-1.58206 -4.65016,-0.86327 -6.77966,-0.10594 -2.99887,1.0665 -5.56071,3.48456 -7.30933,6.14407 -2.02533,3.08037 -4.44946,7.13288 -3.17796,10.59322 0.78371,2.13284 3.45757,3.91518 5.72034,3.70763 3.63152,-0.3331 5.71106,-4.63869 7.94491,-7.52119 1.60717,-2.07385 3.20253,-4.33403 3.81356,-6.88559 0.46081,-1.92426 1.20124,-4.54719 -0.21186,-5.9322 z"
       style="fill:#64301c;fill-opacity:1;stroke:none;stroke-width:1px;stroke-linecap:butt;stroke-linejoin:miter;stroke-opacity:1" />
    <path
       sodipodi:nodetypes="caaaaaaaac"
       inkscape:connector-curvature="0"
       id="path859-0"
       d="m 207.11256,207.72525 c -1.45028,2.38065 -1.77333,5.54484 -1.20978,8.2749 0.32943,1.59584 1.11563,3.41643 2.56473,4.16164 1.46661,0.7542 3.41994,0.31057 4.93591,-0.33874 1.81147,-0.77588 3.58332,-2.17988 4.36246,-3.98995 0.99067,-2.30149 1.04689,-5.30269 -0.12792,-7.51586 -1.03018,-1.94069 -3.20757,-3.58898 -5.39591,-3.7858 -0.69007,-0.0621 -1.28842,0.52255 -1.88726,0.87104 -1.14906,0.66868 -2.55055,1.1874 -3.24221,2.32277 z"
       style="fill:#181614;fill-opacity:1;stroke:none;stroke-width:0.91362542px;stroke-linecap:butt;stroke-linejoin:miter;stroke-opacity:1" />
    <path
       sodipodi:nodetypes="ssssssssssssssssssss"
       inkscape:connector-curvature="0"
       id="path879-7"
       d="m 245.98534,203.23697 c 1.24663,-0.8675 2.95096,-1.87494 4.36255,-1.31457 1.20675,0.47906 1.85845,2.08014 1.94323,3.37574 0.10517,1.60696 -1.16183,3.00669 -1.844,4.46549 -1.80744,3.86518 -3.89424,7.59474 -5.94738,11.33521 -2.9844,5.43701 -6.20586,10.74071 -9.25827,16.13983 -3.84879,6.8077 -7.4744,13.74193 -11.41854,20.49484 -2.29309,3.92611 -4.36154,8.01962 -7.11706,11.63623 -2.47223,3.24478 -5.16151,6.40897 -8.37066,8.92726 -4.28228,3.36039 -8.79771,8.41031 -14.22683,8.01677 -2.04264,-0.14811 -3.70382,-2.06744 -4.86178,-3.75668 -1.23004,-1.79444 -1.72911,-4.08454 -1.85945,-6.25619 -0.1126,-1.87639 -0.053,-3.9683 0.94861,-5.55897 0.96419,-1.5312 3.1167,-1.89221 4.43111,-3.13582 3.84779,-3.64054 6.63975,-8.25606 9.8832,-12.44403 3.89206,-5.0254 6.95567,-10.76435 11.49102,-15.21782 1.70619,-1.67539 4.06657,-2.57359 5.80273,-4.21791 4.10325,-3.88621 7.12271,-8.77636 10.69855,-13.15273 3.03983,-3.72036 6.17038,-7.36752 9.14407,-11.14096 2.12012,-2.69033 3.38734,-6.23917 6.1989,-8.19569 z"
       style="fill:#0d0a0a;fill-opacity:0.43981485;stroke:none;stroke-width:1px;stroke-linecap:butt;stroke-linejoin:miter;stroke-opacity:1" />
    <path
       sodipodi:nodetypes="aaaaaaaaaaaa"
       inkscape:connector-curvature="0"
       id="path861-8"
       d="m 209.91077,207.46631 c -0.0265,1.51905 -0.84044,3.19724 -0.1589,4.55508 0.62614,1.24746 2.09121,2.03503 3.4428,2.38348 1.35752,0.34998 2.93776,0.2177 4.18432,-0.42373 1.21249,-0.6239 1.90069,-1.96821 2.70127,-3.07204 1.05953,-1.46087 1.88292,-3.08064 2.75424,-4.66101 1.10178,-1.99839 3.46457,-3.83453 3.125,-6.09111 -0.29354,-1.9507 -2.20811,-3.79851 -4.13136,-4.23728 -2.1618,-0.49319 -4.39256,1.06652 -6.25,2.27754 -1.51671,0.98887 -2.63904,2.49808 -3.76059,3.91949 -0.72807,0.92272 -1.57556,1.83836 -1.90678,2.9661 -0.22389,0.7623 0.0138,1.58911 0,2.38348 z"
       style="fill:#462518;fill-opacity:1;stroke:#000000;stroke-width:1px;stroke-linecap:butt;stroke-linejoin:miter;stroke-opacity:0" />
    <path
       sodipodi:nodetypes="ssssssssssssssssssss"
       inkscape:connector-curvature="0"
       id="path879-6-6"
       d="m 228.35319,188.44063 c 1.15484,-0.98641 2.75131,-2.15729 4.21136,-1.7391 1.24817,0.35751 2.05484,1.88639 2.26719,3.16726 0.2634,1.58873 -0.85914,3.10676 -1.39387,4.62581 -1.41677,4.02482 -3.12494,7.94229 -4.79854,11.86727 -2.43271,5.70524 -5.11449,11.30122 -7.61863,16.97547 -3.15746,7.15461 -6.08036,14.41306 -9.33811,21.52256 -1.89405,4.13344 -3.548,8.41126 -5.93278,12.28238 -2.1396,3.47312 -4.50316,6.8875 -7.44785,9.71049 -3.92937,3.76697 -7.92387,9.23824 -13.36531,9.38293 -2.04729,0.0544 -3.88994,-1.69144 -5.2091,-3.25804 -1.40129,-1.66415 -2.12414,-3.89375 -2.46837,-6.0419 -0.29741,-1.85609 -0.44479,-3.94365 0.39483,-5.62549 0.80822,-1.61895 2.91454,-2.19083 4.09967,-3.5582 3.46934,-4.00283 5.7917,-8.87158 8.60559,-13.35946 3.37658,-5.38531 5.85829,-11.39881 9.93153,-16.27853 1.53234,-1.83575 3.79245,-2.96272 5.35768,-4.7705 3.69929,-4.27254 6.22091,-9.43705 9.34695,-14.14525 2.65744,-4.00245 5.41239,-7.94102 7.99878,-11.98975 1.844,-2.88661 2.75444,-6.54327 5.35898,-8.76795 z"
       style="fill:#0f0d0e;fill-opacity:1;stroke:none;stroke-width:1px;stroke-linecap:butt;stroke-linejoin:miter;stroke-opacity:1" />
    <path
       sodipodi:nodetypes="ssaaaaaaaas"
       inkscape:connector-curvature="0"
       id="path863-9"
       d="m 386.0663,60.697626 c -1.34942,4.72972 -9.10878,9.27575 -11.44068,16.52543 -0.75532,2.34821 -2.7817,4.319861 -2.9661,6.77966 -0.29136,3.886486 3.75607,7.460392 3.03698,11.290869 -0.75535,4.023574 -4.03081,7.397645 -7.27427,9.895565 -4.27032,3.28876 -9.68799,6.55042 -15.04237,5.9322 -7.76478,-0.89653 -18.12855,-5.61632 -19.27966,-13.347454 -0.95508,-6.41455 7.7525,-10.42063 12.07627,-15.25423 7.35789,-8.22549 14.43984,-17.0279 23.51695,-23.305091 3.76883,-2.6063 8.08799,-6.9577 12.5,-5.72034 2.79123,0.78281 5.66822,4.41571 4.87288,7.203391 z"
       style="fill:#53281a;fill-opacity:1;stroke:none;stroke-width:1px;stroke-linecap:butt;stroke-linejoin:miter;stroke-opacity:1" />
    <path
       sodipodi:nodetypes="aaaaaaaaaaaa"
       inkscape:connector-curvature="0"
       id="path865-7"
       d="m 360.40941,121.98848 c 3.43457,-3.89685 9.13057,-6.05332 11.22881,-10.80507 2.11178,-4.7824 2.61492,-10.93142 0.42373,-15.677965 -5.70449,-12.357 -18.7214,-21.7991 -31.77966,-25.63559 -4.42971,-1.30144 -9.61893,-0.53559 -13.77118,1.48305 -7.27612,3.53733 -11.13259,11.74953 -16.94916,17.37288 -4.67223,4.51702 -9.92296,8.43149 -14.40678,13.135595 -3.66837,3.84858 -9.03614,7.09351 -10.16949,12.28813 -1.74547,8.00023 1.6223,17.04724 6.35593,23.7288 5.78642,8.16757 14.83001,15.93559 24.78814,16.94915 10.36045,1.05451 20.61043,-5.6607 28.81356,-12.07627 6.79788,-5.31654 9.75989,-14.28847 15.4661,-20.76271 z"
       style="fill:url(#radialGradient911-7);fill-opacity:1;stroke:none;stroke-width:1px;stroke-linecap:butt;stroke-linejoin:miter;stroke-opacity:1" />
    <path
       sodipodi:nodetypes="aaaaaaaaaaaaaaaaa"
       inkscape:connector-curvature="0"
       id="path867-2"
       d="m 269.46818,123.69404 c -3.7394,4.50623 -7.32327,9.15192 -10.64775,13.9724 -2.80925,4.07339 -6.32933,7.89369 -7.83899,12.60594 -2.53682,7.91848 -5.03079,17.32494 -1.58898,24.89407 4.0869,8.98781 14.69041,13.58402 23.51695,18.00847 3.47752,1.74316 7.36329,3.61324 11.22881,3.17797 7.75713,-0.87348 14.03626,-6.92811 20.55085,-11.22882 3.52539,-2.32734 6.66126,-5.19723 9.95763,-7.83898 2.70255,-2.16585 5.57055,-4.15061 8.05085,-6.5678 3.80164,-3.7049 7.25692,-7.78481 10.38135,-12.07627 1.75371,-2.40875 3.91309,-4.743 4.66102,-7.62712 1.29522,-4.99451 1.46706,-10.75425 -0.63559,-15.4661 -3.13415,-7.02336 -10.57661,-11.22706 -16.52543,-16.10169 -4.83327,-3.96052 -9.67132,-8.2551 -15.4661,-10.59321 -5.09408,-2.05539 -10.91886,-4.04874 -16.2515,-2.73074 -4.60379,1.13786 -7.82687,5.41101 -11.31657,8.62218 -2.95699,2.72099 -5.51044,5.85736 -8.07655,8.9497 z"
       style="fill:url(#radialGradient968-6);fill-opacity:1;stroke:none;stroke-width:1px;stroke-linecap:butt;stroke-linejoin:miter;stroke-opacity:1" />
    <path
       sodipodi:nodetypes="aaaaaaaaaaaaaaaaaaaaa"
       inkscape:connector-curvature="0"
       id="path869-8"
       d="m 241.88945,157.29272 c 4.62891,-2.50516 9.65241,-4.20018 14.47948,-6.29828 5.51283,-2.39616 11.49385,-3.91828 16.54048,-7.18393 3.60943,-2.33565 5.27861,-8.07344 9.5339,-8.68644 8.62832,-1.24295 15.23648,8.71549 23.51695,11.44068 3.68401,1.21245 9.54846,-1.26683 11.44068,2.11865 2.10516,3.76646 -2.6755,8.24539 -4.66102,12.07627 -2.10907,4.06924 -6.57409,6.97996 -7.62712,11.44068 -0.65407,2.77068 0.97117,5.62909 1.05932,8.47457 0.0351,1.13161 0.34534,2.40429 -0.21186,3.38983 -2.99838,5.30338 -11.30472,5.57031 -15.04237,10.38136 -3.37224,4.3407 -2.41567,11.07374 -5.72034,15.4661 -4.00821,5.32747 -10.30239,8.57569 -16.1017,11.86441 -4.92868,2.79499 -10.10492,5.54554 -15.67796,6.56779 -4.10065,0.75217 -8.68939,1.26751 -12.5,-0.42373 -5.66052,-2.51227 -8.43062,-9.08541 -12.92373,-13.34745 -3.52966,-3.34814 -8.93037,-5.18541 -11.00631,-9.5853 -1.82275,-3.86329 -1.24106,-8.63234 -0.35102,-12.81028 1.41335,-6.63443 5.34195,-12.51311 8.79989,-18.34885 2.26467,-3.82193 4.56774,-7.74983 7.77253,-10.82638 2.49836,-2.39839 5.6344,-4.06132 8.6802,-5.7097 z"
       style="fill:url(#radialGradient976-1);fill-opacity:1;stroke:none;stroke-width:1px;stroke-linecap:butt;stroke-linejoin:miter;stroke-opacity:1" />
    <path
       sodipodi:nodetypes="aaaaaaaaaaaaaaaaaaa"
       inkscape:connector-curvature="0"
       id="path871-8"
       d="m 228.35319,188.44063 c -0.18807,3.31463 1.10815,6.67259 2.6966,9.58789 3.28382,6.02681 7.65321,12.06144 13.63278,15.43051 4.64237,2.61565 10.43967,3.4822 15.73013,2.8464 5.37139,-0.64552 10.79423,-2.99016 14.83126,-6.59167 4.62698,-4.12782 7.32538,-10.20014 9.43808,-16.02975 1.46573,-4.04442 1.69902,-8.45057 2.09735,-12.73392 0.20813,-2.23806 -1.16007,-4.91489 0.14981,-6.74148 1.70311,-2.37494 6.11924,-0.98499 8.23959,-2.99622 2.87344,-2.72556 4.87965,-6.98272 4.64414,-10.93618 -0.25672,-4.30952 -3.18303,-8.40423 -6.44187,-11.23581 -3.24792,-2.82209 -7.72799,-5.42025 -11.98486,-4.79394 -3.72672,0.54831 -6.44017,4.1367 -8.83883,7.0411 -2.26154,2.73835 -1.78069,7.82312 -4.94376,9.43808 -2.78637,1.42263 -6.23495,-2.03025 -9.28826,-1.3483 -3.09542,0.69135 -5.05978,3.91519 -7.93997,5.24338 -2.78435,1.284 -6.16474,1.04664 -8.83884,2.54678 -2.83589,1.59091 -5.33299,3.92309 -7.19092,6.59168 -3.02018,4.33795 -5.693,9.40417 -5.99243,14.68145 z"
       style="fill:url(#radialGradient984-2);fill-opacity:1;stroke:none;stroke-width:1px;stroke-linecap:butt;stroke-linejoin:miter;stroke-opacity:1" />
    <path
       sodipodi:nodetypes="aaaaassscca"
       inkscape:connector-curvature="0"
       id="path873-6"
       d="m 390.59825,59.753205 c 2.29384,-0.590846 4.07736,-2.465444 5.84262,-4.044893 3.05979,-2.737709 5.95884,-5.77878 8.08977,-9.288266 1.69895,-2.798034 3.75354,-5.868832 3.59546,-9.138452 -0.13804,-2.855307 -1.88491,-5.60785 -3.89507,-7.64035 -0.83246,-0.84171 -1.96717,-1.539506 -3.14603,-1.64793 -4.48555,-0.412552 -11.66368,4.066071 -15.86961,6.052975 -1.64927,0.779121 -3.10634,3.733166 -4.65447,5.632271 -2.23823,2.745654 -2.42546,8.580261 -2.09735,11.085991 6.03862,1.34802 1.00163,5.762483 3.29584,8.089783 2.19219,1.991138 5.97097,1.637573 8.83884,0.898871 z"
       style="fill:url(#radialGradient895-9);fill-opacity:1;stroke:none;stroke-width:1px;stroke-linecap:butt;stroke-linejoin:miter;stroke-opacity:1" />
    <path
       sodipodi:nodetypes="zzzzzzzzzzzzz"
       inkscape:connector-curvature="0"
       id="path875-6"
       d="m 407.37705,19.603917 c 1.62908,-0.54843 2.94992,0.830831 4.64413,1.348301 1.69421,0.51747 2.36841,1.998265 2.99622,3.745265 0.62781,1.747 -0.55515,2.711901 -1.64792,5.093571 -1.09277,2.38167 -2.36302,3.235852 -3.44565,5.093562 -1.08263,1.85771 -2.95099,2.700272 -3.74527,4.344512 -0.79428,1.64424 -2.51609,0.818859 -5.09356,1.797729 -2.57747,0.97887 -1.7677,2.293297 -3.89508,0.299627 -2.12738,-1.99367 -3.04291,-4.27643 -2.8464,-7.19092 0.19651,-2.91449 1.80874,-6.272766 3.29583,-7.790156 1.48709,-1.51739 2.25095,-3.590205 3.29584,-4.344515 1.04489,-0.75431 1.6843,-0.657431 2.8464,-1.498111 1.1621,-0.84068 1.96638,-0.350435 3.59546,-0.898865 z"
       style="fill:url(#radialGradient903-8);fill-opacity:1;stroke:none;stroke-width:1px;stroke-linecap:butt;stroke-linejoin:miter;stroke-opacity:1" />
    <path
       sodipodi:nodetypes="sssssssssssssssssssssssss"
       inkscape:connector-curvature="0"
       id="path877-6-7"
       d="m 394.67452,33.090344 c 2.27418,-0.36549 3.13283,3.34046 4.96588,4.70737 1.86281,1.38912 5.6455,1.2356 6.05215,3.49257 0.59339,3.29338 -4.04076,5.4403 -6.5177,7.7444 -2.89432,2.69235 -8.24595,3.31655 -9.62138,6.98514 -0.54884,1.46389 1.3759,3.0222 1.08628,4.555531 -0.77183,4.08631 -4.22562,7.30188 -7.13843,10.32586 -4.78295,4.96548 -11.52062,7.78147 -16.60462,12.45177 -3.90253,3.58497 -9.77655,10.93326 -10.55246,11.84437 -0.77593,0.91111 -3.10368,10.022145 -4.03478,10.173995 -0.9311,0.15185 -7.63983,1.13122 -10.39728,3.49258 -2.43717,2.08708 -1.90525,6.41961 -4.34515,8.50364 -3.8696,3.3052 -9.46451,5.22651 -14.58723,4.85923 -2.14578,-0.15385 -4.25721,-1.36135 -5.74179,-2.88518 -1.29384,-1.32802 -2.19482,-3.18086 -2.32775,-5.01106 -0.31331,-4.31384 1.47085,-8.73151 3.7244,-12.45177 3.3571,-5.542065 9.41739,-9.009275 13.96651,-13.666575 5.03445,-5.15417 9.34725,-11.00051 14.74242,-15.79249 3.06418,-2.7216 6.83774,-4.59976 9.93174,-7.28885 3.47409,-3.01942 6.1018,-6.901741 9.62137,-9.870301 4.21777,-3.55746 8.34792,-7.76873 13.65613,-9.41476 1.28209,-0.39756 2.79222,0.50362 4.03477,0 2.16273,-0.8766 3.38283,-3.17173 4.96587,-4.85923 0.86889,-0.92622 1.77043,-1.83888 2.48294,-2.88516 1.0648,-1.56361 0.74329,-4.70656 2.63811,-5.01108 z"
       style="fill:#060606;fill-opacity:0.68981479;stroke:none;stroke-width:1.02468002px;stroke-linecap:butt;stroke-linejoin:miter;stroke-opacity:1" />
    <path
       sodipodi:nodetypes="sssssssssssssssssssssssss"
       inkscape:connector-curvature="0"
       id="path877-4"
       d="m 394.60834,30.693036 c 2.19544,-0.36058 3.77343,2.995959 5.54301,4.344509 1.79832,1.37045 5.45005,1.368811 5.84262,3.595461 0.57285,3.24913 -5.09935,7.015118 -7.49054,9.288268 -2.79412,2.65618 -7.96046,3.27199 -9.28827,6.89129 -0.52984,1.44423 1.32826,2.9816 1.04867,4.49433 -0.74511,4.031411 -4.07933,7.203781 -6.89129,10.187131 -4.61736,4.89877 -11.12176,7.67693 -16.02975,12.28448 -3.76742,3.53681 -9.43808,10.78638 -10.18713,11.68524 -0.74906,0.89887 -2.99622,9.887515 -3.89508,10.037325 -0.89887,0.14981 -7.37533,1.11602 -10.03732,3.44564 -2.35279,2.05904 -1.83928,6.33337 -4.19471,8.3894 -3.73564,3.26079 -9.13685,5.15629 -14.08221,4.79394 -2.07149,-0.15178 -4.10981,-1.34306 -5.543,-2.8464 -1.24905,-1.31019 -2.11884,-3.13814 -2.24716,-4.94375 -0.30246,-4.25588 1.41993,-8.61419 3.59546,-12.28448 3.24087,-5.467605 9.09135,-8.888235 13.48297,-13.482965 4.86015,-5.08492 6.16347,-10.005262 11.37185,-14.732862 2.95809,-2.68503 4.9061,-6.550672 7.89298,-9.203632 3.35381,-2.97886 8.22105,-7.23275 11.61877,-10.16143 4.07175,-3.50966 10.28349,-6.075367 15.40792,-7.699287 1.2377,-0.39222 1.79669,-2.349544 2.99622,-2.846404 2.08786,-0.86482 2.66647,-1.780824 4.1947,-3.445644 0.83881,-0.91378 1.70913,-2.413423 2.39697,-3.445643 1.02794,-1.54261 2.6651,-4.044087 4.49432,-4.344517 z"
       style="fill:url(#radialGradient936-1);fill-opacity:1;stroke:none;stroke-width:1px;stroke-linecap:butt;stroke-linejoin:miter;stroke-opacity:1" />
    <path
       sodipodi:nodetypes="aaaaaaaaaaaaaaaaaaa"
       inkscape:connector-curvature="0"
       id="path871-3-5"
       d="m 227.02368,201.26888 c -0.25972,4.57744 1.53034,9.21473 3.72396,13.24071 4.5349,8.32293 10.56896,16.65665 18.82664,21.30928 6.41104,3.61217 14.41702,4.80886 21.72305,3.93083 7.41781,-0.89145 14.90666,-4.12936 20.48173,-9.10298 6.38978,-5.70045 10.11623,-14.08623 13.03383,-22.13682 2.02415,-5.58528 2.34632,-11.6701 2.89641,-17.58534 0.28742,-3.09072 -1.60204,-6.78738 0.20688,-9.30987 2.35197,-3.27975 8.45057,-1.36025 11.37874,-4.13773 3.96817,-3.76395 6.73872,-9.64302 6.41348,-15.10268 -0.35452,-5.95138 -4.39571,-11.60611 -8.89611,-15.51647 -4.48533,-3.89726 -10.67223,-7.48528 -16.5509,-6.62035 -5.14654,0.7572 -8.89377,5.71271 -12.20628,9.72364 -3.12315,3.78162 -2.4591,10.8036 -6.82725,13.03383 -3.84793,1.96463 -8.61036,-2.80374 -12.82693,-1.86198 -4.27473,0.95474 -6.98747,5.40681 -10.96497,7.24102 -3.84514,1.77319 -8.5134,1.4454 -12.20629,3.51706 -3.91632,2.19702 -7.36477,5.41773 -9.93054,9.10301 -4.17082,5.99063 -7.86194,12.987 -8.27545,20.27484 z"
       style="fill:url(#radialGradient984-3-3);fill-opacity:1;stroke:none;stroke-width:1.38098347px;stroke-linecap:butt;stroke-linejoin:miter;stroke-opacity:1" />
  </g>
</svg>
