<?xml version="1.0" encoding="UTF-8" standalone="no"?>
<svg
   xmlns:dc="http://purl.org/dc/elements/1.1/"
   xmlns:cc="http://creativecommons.org/ns#"
   xmlns:rdf="http://www.w3.org/1999/02/22-rdf-syntax-ns#"
   xmlns:svg="http://www.w3.org/2000/svg"
   xmlns="http://www.w3.org/2000/svg"
   xmlns:xlink="http://www.w3.org/1999/xlink"
   xmlns:sodipodi="http://sodipodi.sourceforge.net/DTD/sodipodi-0.dtd"
   xmlns:inkscape="http://www.inkscape.org/namespaces/inkscape"
   class="svg-inline--fa fa-arrows-alt fa-w-16 tile-icon"
   version="1.1"
   id="svg1255"
   sodipodi:docname="lava.svg"
   width="512"
   height="512"
   inkscape:version="0.92.4 (5da689c313, 2019-01-14)">
  <metadata
     id="metadata1261">
    <rdf:RDF>
      <cc:Work
         rdf:about="">
        <dc:format>image/svg+xml</dc:format>
        <dc:type
           rdf:resource="http://purl.org/dc/dcmitype/StillImage" />
        <dc:title></dc:title>
      </cc:Work>
    </rdf:RDF>
  </metadata>
  <defs
     id="defs1259">
    <linearGradient
       id="linearGradient10934"
       inkscape:collect="always">
      <stop
         id="stop10930"
         offset="0"
         style="stop-color:#38732c;stop-opacity:1" />
      <stop
         id="stop10932"
         offset="1"
         style="stop-color:#367731;stop-opacity:1" />
    </linearGradient>
    <linearGradient
       inkscape:collect="always"
       id="linearGradient10906">
      <stop
         style="stop-color:#6bc059;stop-opacity:1"
         offset="0"
         id="stop10902" />
      <stop
         style="stop-color:#489d41;stop-opacity:1"
         offset="1"
         id="stop10904" />
    </linearGradient>
    <linearGradient
       inkscape:collect="always"
       id="linearGradient10825">
      <stop
         style="stop-color:#040505;stop-opacity:1"
         offset="0"
         id="stop10821" />
      <stop
         style="stop-color:#1c2934;stop-opacity:1"
         offset="1"
         id="stop10823" />
    </linearGradient>
    <linearGradient
       inkscape:collect="always"
       id="linearGradient10660">
      <stop
         style="stop-color:#000000;stop-opacity:0.52777779"
         offset="0"
         id="stop10656" />
      <stop
         style="stop-color:#000000;stop-opacity:0"
         offset="1"
         id="stop10658" />
    </linearGradient>
    <linearGradient
       id="linearGradient10580"
       inkscape:collect="always">
      <stop
         id="stop10576"
         offset="0"
         style="stop-color:#fad640;stop-opacity:1" />
      <stop
         id="stop10578"
         offset="1"
         style="stop-color:#dd8933;stop-opacity:1" />
    </linearGradient>
    <linearGradient
       inkscape:collect="always"
       id="linearGradient10559-3">
      <stop
         style="stop-color:#e86b25;stop-opacity:1"
         offset="0"
         id="stop10555" />
      <stop
         style="stop-color:#c04128;stop-opacity:1"
         offset="1"
         id="stop10557" />
    </linearGradient>
    <linearGradient
       inkscape:collect="always"
       id="linearGradient10551">
      <stop
         style="stop-color:#af1416;stop-opacity:1"
         offset="0"
         id="stop10547" />
      <stop
         style="stop-color:#93141d;stop-opacity:1"
         offset="1"
         id="stop10549" />
    </linearGradient>
    <radialGradient
       inkscape:collect="always"
       xlink:href="#linearGradient10551"
       id="radialGradient10553"
       cx="103.3147"
       cy="468.84332"
       fx="103.3147"
       fy="468.84332"
       r="250.88549"
       gradientTransform="matrix(0.09440135,0.0854073,-2.0799065,2.2989366,1020.6559,-599.45717)"
       gradientUnits="userSpaceOnUse" />
    <radialGradient
       inkscape:collect="always"
       xlink:href="#linearGradient10559-3"
       id="radialGradient10561"
       cx="107.37162"
       cy="457.3911"
       fx="107.37162"
       fy="457.3911"
       r="34.809496"
       gradientTransform="matrix(1,0,0,0.67167242,0,150.17411)"
       gradientUnits="userSpaceOnUse" />
    <radialGradient
       inkscape:collect="always"
       xlink:href="#linearGradient10580"
       id="radialGradient10569"
       cx="161.95886"
       cy="432.61557"
       fx="161.95886"
       fy="432.61557"
       r="32.131741"
       gradientTransform="matrix(1,0,0,0.91708744,0,35.122243)"
       gradientUnits="userSpaceOnUse" />
    <radialGradient
       inkscape:collect="always"
       xlink:href="#linearGradient10580"
       id="radialGradient10588"
       cx="386.65778"
       cy="106.43259"
       fx="386.65778"
       fy="106.43259"
       r="17.870119"
       gradientTransform="matrix(1,0,0,0.94077672,0,6.3032868)"
       gradientUnits="userSpaceOnUse" />
    <radialGradient
       inkscape:collect="always"
       xlink:href="#linearGradient10580"
       id="radialGradient10596"
       cx="406.19803"
       cy="85.82634"
       fx="406.19803"
       fy="85.82634"
       r="14.655438"
       gradientTransform="matrix(1,0,0,1.4545752,0,-39.014529)"
       gradientUnits="userSpaceOnUse" />
    <radialGradient
       inkscape:collect="always"
       xlink:href="#linearGradient10559-3"
       id="radialGradient10604"
       cx="363.5827"
       cy="135.25763"
       fx="363.5827"
       fy="135.25763"
       r="16.374779"
       gradientTransform="matrix(1,0,0,1.1290099,0,-17.449572)"
       gradientUnits="userSpaceOnUse" />
    <radialGradient
       inkscape:collect="always"
       xlink:href="#linearGradient10660"
       id="radialGradient10662"
       cx="137.28815"
       cy="172.16949"
       fx="137.28815"
       fy="172.16949"
       r="74.576271"
       gradientTransform="matrix(0.61363626,0,0,0.97159093,232.12587,-20.685644)"
       gradientUnits="userSpaceOnUse" />
    <radialGradient
       inkscape:collect="always"
       xlink:href="#linearGradient10660"
       id="radialGradient10662-8"
       cx="137.28815"
       cy="172.16949"
       fx="137.28815"
       fy="172.16949"
       r="74.576271"
       gradientTransform="matrix(0.61363626,0,0,0.97159093,111.51776,120.56915)"
       gradientUnits="userSpaceOnUse" />
    <radialGradient
       inkscape:collect="always"
       xlink:href="#linearGradient10660"
       id="radialGradient10662-8-3"
       cx="137.28815"
       cy="172.16949"
       fx="137.28815"
       fy="172.16949"
       r="74.576271"
       gradientTransform="matrix(0.61363626,0,0,0.97159093,10.484144,273.79879)"
       gradientUnits="userSpaceOnUse" />
    <radialGradient
       inkscape:collect="always"
       xlink:href="#linearGradient10660"
       id="radialGradient10662-8-3-7"
       cx="137.28815"
       cy="172.16949"
       fx="137.28815"
       fy="172.16949"
       r="74.576271"
       gradientTransform="matrix(0.47688041,0,0,0.72586347,-235.73653,365.34202)"
       gradientUnits="userSpaceOnUse" />
    <radialGradient
       inkscape:collect="always"
       xlink:href="#linearGradient10660"
       id="radialGradient10662-8-3-3"
       cx="137.28815"
       cy="172.16949"
       fx="137.28815"
       fy="172.16949"
       r="74.576271"
       gradientTransform="matrix(0.31262165,0,0,0.50844203,214.48803,302.89808)"
       gradientUnits="userSpaceOnUse" />
    <radialGradient
       inkscape:collect="always"
       xlink:href="#linearGradient10825"
       id="radialGradient10827"
       cx="-204.88138"
       cy="451.82773"
       fx="-204.88138"
       fy="451.82773"
       r="10.726683"
       gradientTransform="matrix(0.9258918,-0.37778879,0.55864712,1.3691428,369.87458,-245.28683)"
       gradientUnits="userSpaceOnUse" />
    <radialGradient
       inkscape:collect="always"
       xlink:href="#linearGradient10825"
       id="radialGradient10827-8"
       cx="-198.93767"
       cy="459.47464"
       fx="-198.93767"
       fy="459.47464"
       r="10.726683"
       gradientTransform="matrix(-0.75365153,-1.3728915,1.5369008,-0.84368478,-426.03937,567.13197)"
       gradientUnits="userSpaceOnUse" />
    <radialGradient
       inkscape:collect="always"
       xlink:href="#linearGradient10906"
       id="radialGradient10908"
       cx="-487.28814"
       cy="158.08051"
       fx="-487.28814"
       fy="158.08051"
       r="23.728815"
       gradientTransform="matrix(1,0,0,0.91517844,611.2279,-42.92021)"
       gradientUnits="userSpaceOnUse" />
    <radialGradient
       inkscape:collect="always"
       xlink:href="#linearGradient10906"
       id="radialGradient10916"
       cx="-529.66101"
       cy="159.3517"
       fx="-529.66101"
       fy="159.3517"
       r="15.04237"
       gradientTransform="matrix(1,0,0,1.3591552,611.2279,-113.56083)"
       gradientUnits="userSpaceOnUse" />
    <radialGradient
       inkscape:collect="always"
       xlink:href="#linearGradient10906"
       id="radialGradient10918"
       cx="-512.18219"
       cy="125.24152"
       fx="-512.18219"
       fy="125.24152"
       r="16.843225"
       gradientTransform="translate(611.2279,-56.328808)"
       gradientUnits="userSpaceOnUse" />
    <radialGradient
       inkscape:collect="always"
       xlink:href="#linearGradient10906"
       id="radialGradient10920"
       cx="-477.54236"
       cy="123.65254"
       fx="-477.54236"
       fy="123.65254"
       r="20.338985"
       gradientTransform="matrix(1,0,0,0.94791653,611.2279,-49.888592)"
       gradientUnits="userSpaceOnUse" />
    <radialGradient
       inkscape:collect="always"
       xlink:href="#linearGradient10934"
       id="radialGradient10928"
       cx="-494.40021"
       cy="149.53513"
       fx="-494.40021"
       fy="149.53513"
       r="54.384197"
       gradientTransform="matrix(0.94542663,0,0,0.90999292,581.28092,-45.718325)"
       gradientUnits="userSpaceOnUse" />
  </defs>
  <sodipodi:namedview
     pagecolor="#ffffff"
     bordercolor="#666666"
     borderopacity="1"
     objecttolerance="10"
     gridtolerance="10"
     guidetolerance="10"
     inkscape:pageopacity="0"
     inkscape:pageshadow="2"
     inkscape:window-width="1920"
     inkscape:window-height="1017"
     id="namedview1257"
     showgrid="false"
     inkscape:zoom="0.417193"
     inkscape:cx="288.75757"
     inkscape:cy="85.695301"
     inkscape:window-x="-8"
     inkscape:window-y="-8"
     inkscape:window-maximized="1"
     inkscape:current-layer="svg1255"
     showguides="true"
     inkscape:guide-bbox="true">
    <sodipodi:guide
       position="-1.1984861,454.22622"
       orientation="1,0"
       id="guide1817"
       inkscape:locked="false" />
    <sodipodi:guide
       position="29.962152,511.75355"
       orientation="0,1"
       id="guide1819"
       inkscape:locked="false" />
    <sodipodi:guide
       position="93.481913,-1.1984861"
       orientation="0,1"
       id="guide1821"
       inkscape:locked="false" />
    <sodipodi:guide
       position="512.95204,222.91841"
       orientation="1,0"
       id="guide1823"
       inkscape:locked="false" />
  </sodipodi:namedview>
  <path
     style="fill:#040505;fill-opacity:0.5;stroke:none;stroke-width:1.08616853px;stroke-linecap:butt;stroke-linejoin:miter;stroke-opacity:1"
     d="m 116.17411,42.601943 c 2.58906,-0.89838 8.6427,-2.24954 11.50602,-1.38073 2.86333,0.86882 2.29637,2.651722 4.83253,4.142182 2.53616,1.49044 7.90027,2.15312 10.58554,3.91203 2.68526,1.75891 4.48283,3.1678 5.52289,5.75302 1.04006,2.58521 -2.01066,6.28101 0,8.74457 2.01066,2.46356 6.8124,0.12125 10.1253,2.07108 3.31289,1.94985 5.65956,6.87538 8.28433,9.66507 2.62477,2.7897 6.379,3.52867 7.36385,7.13373 0.98486,3.60505 -1.92127,9.14073 -3.22168,11.73615 -1.3004,2.59542 -2.81267,1.81135 -3.22169,4.14217 -0.40902,2.330815 2.7277,4.656925 2.76145,8.514445 0.0338,3.85751 -1.06631,11.49715 -4.14216,13.5771 -3.07588,2.07997 -6.03889,-1.6456 -8.05422,-0.69035 -2.01533,0.95524 -2.51232,2.17911 -2.99157,4.37229 -0.47925,2.19316 2.48934,5.12182 1.38073,8.0542 -1.10861,2.93239 -7.36385,6.6735 -8.28434,6.6735 -0.92049,0 -4.74503,-2.28573 -6.44337,-1.38072 -1.69836,0.90501 1.7647,1.68053 -1.84097,4.6024 -3.60566,2.92188 -18.33757,0.858 -22.5518,3.91205 -4.21424,3.05406 -0.53589,5.5096 -3.91205,7.36385 -3.37616,1.85427 -10.5733,-0.33864 -14.727703,-1.1506 -4.15442,-0.81195 -6.53497,-1.49608 -10.1253,-3.22168 -3.59033,-1.7256 -7.97601,-5.33337 -11.04579,-7.36386 -3.06979,-2.0305 -5.6217,-2.21356 -7.36385,-4.83253 -1.74216,-2.61896 -2.07324,-7.24477 -1.84097,-9.89518 0.23227,-2.65041 3.36329,-2.75203 2.07109,-5.52288 -1.29219,-2.77086 -8.79236,-0.65327 -11.73615,-4.14217 -2.94377,-3.4889 -2.53132,-13.5771 -2.53132,-14.7277 0,-1.15062 0.31512,-8.085015 3.4518,-14.037345 3.13668,-5.95235 12.33611,-13.15832 17.25904,-19.33012 4.92292,-6.1718 7.74958,-15.07494 12.42651,-17.48915 4.67692,-2.41422 7.16553,1.75001 10.12529,0 2.959753,-1.75003 2.247023,-8.13379 5.062653,-9.204822 2.81564,-1.07104 5.07423,2.745832 7.13374,2.531322 2.05952,-0.21452 1.5531,-1.632952 4.14217,-2.531322 z"
     id="path10892-8"
     inkscape:connector-curvature="0"
     sodipodi:nodetypes="zzzzzzzzzzzzzzzzzzzzzzzzzzzzzzzzzzzz" />
  <path
     style="fill:#040505;fill-opacity:0.63425927;stroke:none;stroke-width:1.20158935px;stroke-linecap:butt;stroke-linejoin:miter;stroke-opacity:1"
     d="m 439.45864,436.42059 c -1.95009,-0.0281 -5.42231,0.80141 -7.74047,1.89011 -2.31815,1.0887 -4.45932,1.86923 -5.94036,4.41027 -1.48105,2.54104 -3.35893,7.09924 -1.26008,10.17064 2.09886,3.07139 8.36411,3.01455 11.70072,2.97018 3.33661,-0.0443 5.66262,-1.08381 7.65047,-2.16013 1.98785,-1.07633 3.33347,-2.31408 4.23026,-3.69023 0.89678,-1.37614 1.26568,-2.30433 1.26007,-4.05026 -0.006,-1.74592 -0.71122,-4.45913 -1.89011,-5.94036 -1.1789,-1.48124 -3.05118,-2.03332 -4.41027,-2.61016 -1.35909,-0.57683 -1.65013,-0.9619 -3.60023,-0.99006 z"
     id="path10819-9"
     inkscape:connector-curvature="0"
     sodipodi:nodetypes="zzzzzzzzzzz" />
  <path
     style="fill:#040505;fill-opacity:0.63425927;stroke:none;stroke-width:1.20158935px;stroke-linecap:butt;stroke-linejoin:miter;stroke-opacity:1"
     d="m 408.98961,452.99647 c -0.11223,1.94707 0.56666,5.45185 1.5543,7.81483 0.98765,2.36298 -2.01518,7.59602 0.45957,9.18535 2.47475,1.58933 14.50811,-2.54821 17.66722,-4.51256 3.15913,-1.96434 5.89287,-5.25602 5.99253,-8.59144 0.0997,-3.33542 -4.61864,-8.13428 -5.60817,-10.16674 -0.98954,-2.03245 -1.98806,-2.9802 -3.32421,-3.93554 -1.33617,-0.95533 -4.97409,-0.0948 -6.71862,-0.16457 -1.74456,-0.0693 -5.12211,-0.75475 -6.65284,0.35912 -1.53074,1.11388 -2.94039,4.49441 -3.57535,5.82736 -0.63494,1.33294 0.31786,2.23713 0.20557,4.18419 z"
     id="path10819-0-9"
     inkscape:connector-curvature="0"
     sodipodi:nodetypes="zzzzzzzzzzz" />
  <path
     style="fill:#000000;stroke:none;stroke-width:1px;stroke-linecap:butt;stroke-linejoin:miter;stroke-opacity:1;fill-opacity:0.7037037"
     d="m -1.1984861,472.1504 14.5459501,-22.03389 14.61864,0.63559 9.95763,-7.62712 3.60169,2.9661 4.23729,-6.14407 7.83898,0.84746 5.29661,-8.05085 9.5339,-0.21186 11.56674,-15.86684 -12.5841,-26.66631 19.77502,22.77123 8.68902,1.49811 -0.29962,-9.28827 7.490536,3.59546 4.79395,0.89886 -1.79773,-10.18713 8.08978,-0.89886 -2.39697,-8.98865 5.39318,3.29584 5.69281,-8.98865 -2.99621,-5.39318 6.89129,0.59924 4.49433,-2.99622 1.79772,-8.3894 2.09735,-8.3894 4.49433,1.19848 5.39318,-4.79394 -2.09735,-7.19092 4.79395,-5.6928 v -15.2807 l -1.49811,-6.8913 -22.17199,-16.47918 24.56896,11.98486 6.29206,0.59924 8.98864,-6.89129 10.48675,-15.2807 1.79773,-11.38562 2.39697,-3.89508 -2.99621,-7.49053 -4.79394,-3.89508 4.79394,-4.79395 -5.09357,-2.39697 3.89508,-5.09357 -5.99243,-8.68902 -5.09356,-3.29584 -2.99622,-3.89508 -6.89129,4.49433 -3.29584,-5.39319 -9.88751,-3.29584 -8.3894,-0.29962 -2.39697,-3.59546 -15.87718,-4.05181 -20.338976,-9.11017 -8.68644,-7.41525 -25.42373,10.38136 2.9661,-6.5678 13.77119,-7.20339 -3.17797,-6.77966 3.6017,-0.21187 2.3305,-1.90678 -0.21186,5.50848 3.17797,3.17797 5.72033,-3.38984 1.69492,5.93221 8.05085,-1.05932 -0.21187,5.08474 2.9661,2.54237 3.813566,-2.54237 -1.48306,2.9661 4.02543,1.90678 4.02542,-4.44915 v 5.50848 l 6.14407,2.3305 4.87288,-0.63559 1.27119,2.33051 8.05085,-0.42373 3.17796,3.6017 3.81356,-1.48306 2.75424,-2.75423 -0.84746,3.60169 6.5678,2.54237 4.44915,-2.9661 3.60169,6.99153 4.23729,-2.11865 3.17797,-6.77966 0.21186,6.35594 5.29661,-6.14407 2.11865,7.83898 2.11864,1.48305 3.6017,-2.75424 -0.6356,8.26272 4.02543,1.27118 3.81356,-6.77966 2.75423,9.32204 3.6017,1.48305 1.69491,6.56779 3.81356,-2.11864 4.44916,-13.55932 0.42372,15.4661 4.87289,2.54237 1.05932,6.5678 2.75423,2.33051 2.96611,-4.87288 1.90678,1.48305 0.21186,4.02542 2.54237,-0.42373 1.27119,-5.08474 2.11864,-0.21187 0.84746,5.08475 8.68644,-11.65255 -4.02542,-6.35593 1.48305,-10.38135 5.9322,6.99152 -0.21186,6.77966 11.86441,1.48305 10.80508,-21.82203 6.14407,-0.63559 2.9661,-6.5678 -2.75424,-8.26271 -5.29661,-8.26271 0.42373,-3.6017 4.87288,2.54237 4.44915,4.23729 2.11865,4.02543 4.02542,-2.75424 -1.05932,-7.83898 3.38983,-3.38984 0.42373,-6.77966 2.9661,-2.9661 2.11865,3.38983 2.75423,0.42373 -2.33051,-5.50847 1.48306,-11.44068 -1.69492,-3.38983 2.54237,-3.38983 1.05933,-2.9661 -3.6017,-2.11865 2.75424,-1.48305 0.67567,-13.19268 -3.29584,-5.39319 2.09735,-5.99243 -4.1947,-5.09357 0.89887,-3.29584 -2.39697,-8.08978 -2.39698,4.19471 0.29962,-5.69281 -2.39697,-2.99622 -1.4981,5.09357 -3.59546,1.19848 3.59546,-3.59546 0.59924,-4.79394 -1.31492,-2.35084 -4.66102,-5.50847 -4.02542,-5.296608 -6.14407,4.237278 2.75424,-8.262702 -3.38983,-8.68644 -9.95763,3.813559 -7.83898,-2.542373 -3.6017,-8.050847 5.50848,5.720339 5.50847,1.271186 3.81356,-3.177966 5.9322,-0.635593 4.23729,-1.694915 3.6017,-6.779661 0.84745,-11.228814 -3.38983,-11.440678 -6.56779,-9.11017 -11.86441,-12.288135 -12.89291,-12.368922 5.69281,1.048675 9.88751,8.239592 9.7377,9.438078 4.34451,2.846404 0.89886,3.146026 4.34451,3.445648 -1.04867,3.445647 5.39319,0.599243 -4.1947,2.396972 0.74905,3.595459 7.04111,3.745269 -3.44565,1.947539 -0.44943,2.247162 4.34451,1.048675 -4.1947,2.097351 4.1947,2.996215 -4.1947,-0.599243 -0.29963,3.89508 3.29584,1.797729 -3.74527,0.599243 -0.29962,4.344512 -1.19849,4.194701 2.99622,1.94754 -2.09735,1.647918 1.04867,3.595459 3.74527,-2.396973 1.79773,1.048676 7.93997,-9.438078 6.44187,-5.393187 -3.89508,7.041105 -2.99622,6.441863 -0.14981,6.741484 2.69659,5.093558 2.09735,1.79773 2.54679,-3.595458 0.74905,5.842618 2.24716,1.04868 2.54679,-2.39697 -1.3483,5.54299 3.14602,-1.4981 -0.59924,4.64413 h 2.6966 l 5.6928,-4.64413 -0.14981,6.44186 2.39698,3.59546 1.79772,-3.89508 -0.89886,-4.49433 2.8464,1.49811 2.09735,-1.94754 2.6966,0.89887 -0.44943,-8.38941 3.44564,-1.797728 2.24717,-2.39696 -1.79773,-1.3483 1.4981,-1.498108 3.29584,-0.749053 0.89886,-6.292052 v -3.595458 l 3.14603,0.449432 -1.04867,3.595458 1.4981,5.542998 -2.8464,2.996213 1.49811,6.591668 -3.44565,-1.64792 -0.59924,4.34452 -3.44565,1.94754 -0.29962,5.54299 2.09735,3.29584 3.59546,-0.59924 4.04489,2.39697 3.14602,-5.39319 3.31425,7.0953 2.75424,-5.72034 4.02542,3.38984 6.35593,-8.15678 -1.37711,-4.13136 5.29661,-3.17797 0.21186,-1.58898 3.38983,-0.63559 4.66102,-3.177958 -4.23729,-4.661022 0.74153,-2.966102 12.71186,-0.635593 0.74153,-3.072034 -3.81356,-2.436441 0.63559,-2.118644 3.70763,-1.588983 1.27118,-2.648305 -2.86017,-1.694915 0.3178,-5.826271 -2.43644,0.635593 -0.10593,-4.34322 2.59634,-4.37474 4.34452,-0.449432 2.8464,2.396972 2.09735,4.04489 4.34451,-3.445647 6.74149,-1.94754 2.8464,-3.295837 -2.39697,-2.846404 5.543,-2.396972 -1.79773,-6.441863 4.04489,0.898865 0.14981,-4.044891 5.99243,-1.198486 1.3483,-3.445647 -3.59546,-1.647919 -0.59924,-2.247161 6.74148,-2.247161 2.69659,-7.340728 4.04489,-2.247161 -0.44943,-6.591673 5.69281,0.898864 1.64792,-6.292052 3.59546,-1.4981071 2.8464,-5.0935657 5.39319,-3.146026 2.69659,-2.09734705 h 80.29857 V 31.684307 l -5.74865,3.81356 0.42373,8.898305 h -10.38136 l 4.66102,1.694915 -5.50847,6.355932 -2.11865,-2.542373 -2.33051,2.754238 2.11865,4.872881 h -3.6017 l -0.84745,4.025424 -5.08475,4.025424 -6.14407,-1.483051 v 8.68644 l -5.50847,4.025424 -1.05932,13.135593 0.42372,9.110173 2.75424,3.601688 5.08475,-4.872878 -4.02543,5.508468 2.33051,2.9661 v 5.50848 l -5.50847,3.17796 -1.48305,-3.60169 -2.9661,-1.48305 0.63559,-2.75424 -2.11865,-1.48305 -2.11864,-4.02542 -3.38983,2.9661 -3.81356,0.42373 -2.33051,-2.11865 -3.17796,1.90678 -0.21187,3.17797 v 5.08474 l -6.35593,2.96611 -1.05932,10.59322 -0.6356,4.66101 -2.9661,1.90678 -7.41525,-3.38983 -1.90678,2.11865 1.27118,5.9322 -7.41525,2.11864 -4.66102,4.23729 -3.60169,2.33051 -1.05932,5.08475 -4.23729,1.90678 -2.75424,5.29661 -1.27119,2.54237 0.84746,3.38983 -0.21186,4.66102 -3.81356,3.81356 -0.21187,-4.02543 -2.11864,0.42373 0.84746,5.50848 -2.9661,0.63559 -2.75424,-3.17797 -0.84746,2.54238 -1.90678,5.08474 1.27119,6.99153 -6.35593,-5.29661 v 2.3305 l 0.21186,3.17797 -2.54237,1.69492 -7.41526,-0.21187 2.75424,2.75424 -0.42373,3.38983 -3.17796,1.90678 -2.96611,-1.69492 -4.23728,-0.21186 0.84745,2.75424 -6.77966,-0.84746 2.11865,4.87288 -3.17797,5.50848 -7.83898,-2.54238 -6.5678,13.77119 -2.9661,0.63559 -0.63559,4.02543 -2.11865,4.23728 4.44915,-0.84745 1.48305,-1.90678 2.75424,2.33051 -2.54237,2.75423 -2.75424,5.08475 3.51263,0.38182 0.14981,5.543 -4.49432,3.89508 5.24338,1.3483 0.59924,6.74148 2.24716,-1.94754 3.74527,1.94754 3.44565,-1.79773 -4.49433,8.08978 2.6966,4.34451 3.59546,0.44944 1.04867,3.44564 2.6966,5.84262 4.94375,3.44565 4.79394,-3.44565 0.89887,5.39319 3.74527,4.04489 1.64792,7.93997 5.84262,-1.79773 4.04489,-3.44565 -3.59546,6.8913 3.59546,7.34073 -2.09735,2.54678 0.74905,10.18713 1.4138,12.44596 4.55508,17.47881 9.74577,16.1017 4.55508,6.88559 6.77966,4.02542 6.99153,2.54238 3.60169,4.44915 2.33051,5.29661 1.48305,4.87288 -0.63559,2.33051 2.54237,2.54237 1.48305,2.11865 -4.23729,-0.6356 -2.75423,-3.81356 -3.38983,-5.50847 -1.27119,-5.93221 -3.38983,-3.17796 -6.14407,-2.33051 -6.14407,-1.48305 -1.48305,-3.6017 -2.75424,0.42373 -0.84745,-5.08474 -4.66102,-1.69492 v -4.44915 l -5.9322,-2.54237 1.27118,-7.62712 -2.54237,-3.38983 -4.23729,2.33051 -2.11864,-7.62712 1.69491,-3.17797 1.48305,-3.81356 -4.23728,-0.84746 v -8.47457 l 1.27118,-6.99153 -6.35593,1.05932 0.63559,-5.08474 v -4.66102 l -3.17796,4.66102 -4.66102,-1.48305 -0.84746,-4.66102 1.69492,-4.44915 -4.66102,1.90678 -5.29661,-6.14407 -10.80508,-6.5678 -7.20339,-5.9322 -6.35594,-0.84746 -2.3305,1.69492 -2.54238,-1.69492 c 0,0 -6.56779,-2.9661 -7.62712,-2.9661 -1.05932,0 -7.83898,1.48305 -7.83898,1.48305 l 2.54237,-3.38983 -5.72034,0.63559 -2.75423,5.93221 -8.05085,1.27118 -0.84746,5.50848 -2.75423,2.33051 -6.35594,3.60169 -2.54237,1.90678 -3.38983,5.50848 -5.29661,-1.90678 -3.38983,6.14406 2.33051,4.87289 0.63559,5.50847 -2.75424,2.54237 -3.38983,-3.17796 -3.60169,1.05932 -3.17797,-2.11864 -8.8983,2.3305 -5.08475,-4.44915 -2.33051,4.02542 -3.81356,-1.69491 -1.69491,3.60169 0.84746,2.11865 -7.41526,4.23729 1.05932,12.71186 -8.26271,2.33051 0.63559,6.5678 -2.3305,3.81356 -3.6017,-1.48306 2.33051,6.14407 -3.38983,2.75424 -2.9661,-2.54237 2.9661,4.87288 -0.84746,4.02542 -2.9661,2.11865 -3.17797,-0.84746 1.27119,3.17796 -2.9661,1.90678 -2.75424,-0.42372 2.9661,5.72033 -1.05932,5.08475 -2.11864,5.08475 -3.6017,1.48305 -5.08474,1.90678 2.9341,3.48659 -3.59545,5.99243 v 2.69659 l 5.99243,1.79773 -3.89508,5.69281 4.49432,0.29962 5.99243,-0.89886 v 3.89508 l -5.99243,4.1947 4.1947,5.09356 4.49432,1.79773 -0.29962,-7.19091 5.39319,7.49053 4.49432,5.99243 0.29962,3.29584 -4.1947,2.99622 2.39697,2.99621 5.09357,-2.39697 3.29584,-4.1947 1.4981,4.1947 2.39698,5.99243 8.98864,4.1947 6.59167,2.09735 v 5.09357 l 8.98865,8.08978 6.29205,2.39697 1.49811,4.79395 6.89129,5.6928 3.59546,3.29584 3.59546,-1.79773 2.39697,3.59546 6.8913,0.59924 8.08978,1.79773 11.086,-2.69659 4.49432,-1.79773 5.39319,1.79773 6.29205,0.29962 5.09356,2.99621 5.39319,0.29963 6.59167,3.89508 5.69281,2.39697 7.49054,-1.49811 -1.19849,2.69659 -8.3894,1.19849 -5.69281,-1.49811 -7.49053,-2.69659 -7.19092,-0.89887 h -4.49432 l -4.79395,-2.39697 -5.69281,2.39697 -4.49432,-1.4981 -6.59167,0.59924 -4.49433,4.1947 -2.39697,-3.89508 -3.59546,1.79773 -1.4981,3.89508 -5.09357,-3.89508 -5.69281,2.39697 -2.99621,-4.1947 -8.38941,-1.19848 -4.49432,-5.99243 -6.89129,-1.79773 -2.99622,-7.49054 -8.3894,-7.19092 -5.99243,5.69281 1.49811,-5.69281 -7.49054,-4.49432 -2.6966,6.14224 -0.89886,-6.14224 -10.33694,-7.64035 -3.74527,6.74148 -4.79395,-8.68902 -6.74148,0.14981 -4.94376,4.49432 -2.54678,-5.24337 3.29584,-4.94376 -8.53921,-1.19848 -6.44187,0.89886 -0.44943,5.99243 -6.29205,-3.14602 -10.03732,-2.6966 -8.23959,6.14224 -0.74906,-4.64413 -3.74527,3.89508 -0.74905,7.0411 -8.08978,1.19849 0.29962,4.1947 -8.53921,-1.19848 -0.74906,3.89508 -8.08978,1.64791 -4.04489,-0.74905 -2.8464,7.04111 -2.54679,4.34451 -4.1947,-1.64792 -1.79773,1.49811 -1.34829,3.29583 -5.543,1.79773 1.04867,-8.68902 -7.64034,5.09356 -0.74906,4.94376 -11.235806,3.14603 v 3.74526 l -6.29205,-2.09735 -6.14224,1.19849 -5.24338,3.14603 -5.39318,0.89886 -1.94754,3.74527 -6.59168,1.79773 -4.94375,1.04867 -4.04489,-0.29962 0.89886,6.14224 -6.89129,4.04489 -3.29584,2.39698 H -1.1984861 Z"
     id="path10503-0"
     inkscape:connector-curvature="0" />
  <path
     style="fill:#150505;stroke:#000000;stroke-width:1px;stroke-linecap:butt;stroke-linejoin:miter;stroke-opacity:1;fill-opacity:1"
     d="m -1.1984861,472.80508 14.5459441,-22.03389 14.618644,0.63559 9.957627,-7.62712 3.601695,2.9661 4.237288,-6.14407 7.838983,0.84746 5.29661,-8.05085 9.533899,-0.21186 11.566741,-15.86684 -12.584103,-26.66631 19.77502,22.77123 8.689024,1.49811 -0.299622,-9.28827 7.490536,3.59546 4.79395,0.89886 -1.79773,-10.18713 8.08978,-0.89886 -2.39697,-8.98865 5.39318,3.29584 5.69281,-8.98865 -2.99621,-5.39318 6.89129,0.59924 4.49433,-2.99622 1.79772,-8.3894 2.09735,-8.3894 4.49433,1.19848 5.39318,-4.79394 -2.09735,-7.19092 4.79395,-5.6928 v -15.2807 l -1.49811,-6.8913 -22.17199,-16.47918 24.56896,11.98486 6.29206,0.59924 8.98864,-6.89129 10.48675,-15.2807 1.79773,-11.38562 2.39697,-3.89508 -2.99621,-7.49053 -4.79394,-3.89508 4.79394,-4.79395 -5.09357,-2.39697 3.89508,-5.09357 -5.99243,-8.68902 -5.09356,-3.29584 -2.99622,-3.89508 -6.89129,4.49433 -3.29584,-5.39319 c -11.5061,-8.3376 -16.72646,-5.61054 0.31335,-12.72578 l 3.60169,6.99153 4.23729,-2.11865 3.17797,-6.77966 0.21186,6.35594 5.29661,-6.14407 2.11865,7.83898 2.11864,1.48305 3.6017,-2.75424 -0.6356,8.26272 4.02543,1.27118 3.81356,-6.77966 2.75423,9.32204 3.6017,1.48305 1.69491,6.56779 3.81356,-2.11864 4.44916,-13.55932 0.42372,15.4661 4.87289,2.54237 1.05932,6.5678 2.75423,2.33051 2.96611,-4.87288 1.90678,1.48305 0.21186,4.02542 2.54237,-0.42373 1.27119,-5.08474 2.11864,-0.21187 0.84746,5.08475 8.68644,-11.65255 -4.02542,-6.35593 1.48305,-10.38135 5.9322,6.99152 -0.21186,6.77966 11.86441,1.48305 10.80508,-21.82203 6.14407,-0.63559 2.9661,-6.5678 -2.75424,-8.26271 -5.29661,-8.26271 0.42373,-3.6017 4.87288,2.54237 4.44915,4.23729 2.11865,4.02543 4.02542,-2.75424 -1.05932,-7.83898 3.38983,-3.38984 0.42373,-6.77966 2.9661,-2.9661 2.11865,3.38983 2.75423,0.42373 -2.33051,-5.50847 1.48306,-11.44068 -1.69492,-3.38983 2.54237,-3.38983 1.05933,-2.9661 -3.6017,-2.11865 2.75424,-1.48305 0.67567,-13.19268 -3.29584,-5.39319 2.09735,-5.99243 -4.1947,-5.09357 0.89887,-3.29584 -2.39697,-8.08978 -2.39698,4.19471 0.29962,-5.69281 -2.39697,-2.99622 -1.4981,5.09357 -3.59546,1.19848 3.59546,-3.59546 0.59924,-4.79394 c -6.46645,-25.061873 -3.75406,-19.064915 16.32937,-7.49054 l 2.24716,1.04868 2.54679,-2.39697 -1.3483,5.54299 3.14602,-1.4981 -0.59924,4.64413 h 2.6966 l 5.6928,-4.64413 -0.14981,6.44186 2.39698,3.59546 1.79772,-3.89508 -0.89886,-4.49433 2.8464,1.49811 2.09735,-1.94754 2.6966,0.89887 -0.44943,-8.38941 3.44564,-1.79773 2.24717,-2.396967 -1.79773,-1.348297 1.4981,-1.498108 3.29584,-0.749053 0.89886,-6.292052 v -3.595458 l 3.14603,0.449432 -1.04867,3.595458 1.4981,5.542998 -2.8464,2.996215 1.49811,6.591672 -3.44565,-1.64792 -0.59924,4.34452 -3.44565,1.94754 -0.29962,5.54299 2.09735,3.29584 3.59546,-0.59924 4.04489,2.39697 3.14602,-5.39319 3.31425,7.0953 2.75424,-5.72034 4.02542,3.38984 6.35593,-8.15678 -1.37711,-4.13136 5.29661,-3.17797 0.21186,-1.58898 3.38983,-0.63559 4.66102,-3.177969 -4.23729,-4.661017 0.74153,-2.966102 12.71186,-0.635593 0.74153,-3.072034 -3.81356,-2.436441 0.63559,-2.118644 3.70763,-1.588983 1.27118,-2.648305 -2.86017,-1.694915 0.3178,-5.826271 -2.43644,0.635593 -0.10593,-4.34322 2.59634,-4.37474 4.34452,-0.449432 2.8464,2.396972 2.09735,4.04489 4.34451,-3.445647 6.74149,-1.94754 2.8464,-3.295837 -2.39697,-2.846404 5.543,-2.396972 -1.79773,-6.441863 4.04489,0.898865 0.14981,-4.044891 5.99243,-1.198486 1.3483,-3.445647 -3.59546,-1.647919 -0.59924,-2.247161 6.74148,-2.247161 2.69659,-7.340728 4.04489,-2.247161 -0.44943,-6.591673 5.69281,0.898864 1.64792,-6.292052 3.59546,-1.498107 2.8464,-5.0935661 5.39319,-3.146026 2.69659,-2.0973469 h 80.29857 v 32.092531 l -5.74865,3.81356 0.42373,8.898305 h -10.38136 l 4.66102,1.694915 -5.50847,6.355932 -2.11865,-2.542373 -2.33051,2.754238 2.11865,4.872881 h -3.6017 l -0.84745,4.025424 -5.08475,4.025424 -6.14407,-1.483051 v 8.68644 l -5.50847,4.025424 -1.05932,13.135593 0.42372,9.11017 2.75424,3.601697 5.08475,-4.872883 -4.02543,5.508473 2.33051,2.9661 v 5.50848 l -5.50847,3.17796 -1.48305,-3.60169 -2.9661,-1.48305 0.63559,-2.75424 -2.11865,-1.48305 -2.11864,-4.02542 -3.38983,2.9661 -3.81356,0.42373 -2.33051,-2.11865 -3.17796,1.90678 -0.21187,3.17797 v 5.08474 l -6.35593,2.96611 -1.05932,10.59322 -0.6356,4.66101 -2.9661,1.90678 -7.41525,-3.38983 -1.90678,2.11865 1.27118,5.9322 -7.41525,2.11864 -4.66102,4.23729 -3.60169,2.33051 -1.05932,5.08475 -4.23729,1.90678 -2.75424,5.29661 -1.27119,2.54237 0.84746,3.38983 -0.21186,4.66102 -3.81356,3.81356 -0.21187,-4.02543 -2.11864,0.42373 0.84746,5.50848 -2.9661,0.63559 -2.75424,-3.17797 -0.84746,2.54238 -1.90678,5.08474 1.27119,6.99153 -6.35593,-5.29661 v 2.3305 l 0.21186,3.17797 -2.54237,1.69492 -7.41526,-0.21187 2.75424,2.75424 -0.42373,3.38983 -3.17796,1.90678 -2.96611,-1.69492 -4.23728,-0.21186 0.84745,2.75424 -6.77966,-0.84746 2.11865,4.87288 -3.17797,5.50848 -7.83898,-2.54238 -6.5678,13.77119 -2.9661,0.63559 -0.63559,4.02543 -2.11865,4.23728 4.44915,-0.84745 1.48305,-1.90678 2.75424,2.33051 -2.54237,2.75423 -2.75424,5.08475 3.51263,0.38182 0.14981,5.543 -4.49432,3.89508 5.24338,1.3483 0.59924,6.74148 2.24716,-1.94754 3.74527,1.94754 3.44565,-1.79773 -4.49433,8.08978 2.6966,4.34451 3.59546,0.44944 1.04867,3.44564 2.6966,5.84262 4.94375,3.44565 4.79394,-3.44565 0.89887,5.39319 3.74527,4.04489 1.64792,7.93997 5.84262,-1.79773 4.04489,-3.44565 -3.59546,6.8913 3.59546,7.34073 -2.09735,2.54678 0.74905,10.18713 c -2.53684,22.21409 -1.54088,24.4595 -5.57773,1.64087 l -6.35593,1.05932 0.63559,-5.08474 v -4.66102 l -3.17796,4.66102 -4.66102,-1.48305 -0.84746,-4.66102 1.69492,-4.44915 -4.66102,1.90678 -5.29661,-6.14407 -10.80508,-6.5678 -7.20339,-5.9322 -6.35594,-0.84746 -2.3305,1.69492 -2.54238,-1.69492 c 0,0 -6.56779,-2.9661 -7.62712,-2.9661 -1.05932,0 -7.83898,1.48305 -7.83898,1.48305 l 2.54237,-3.38983 -5.72034,0.63559 -2.75423,5.93221 -8.05085,1.27118 -0.84746,5.50848 -2.75423,2.33051 -6.35594,3.60169 -2.54237,1.90678 -3.38983,5.50848 -5.29661,-1.90678 -3.38983,6.14406 2.33051,4.87289 0.63559,5.50847 -2.75424,2.54237 -3.38983,-3.17796 -3.60169,1.05932 -3.17797,-2.11864 -8.8983,2.3305 -5.08475,-4.44915 -2.33051,4.02542 -3.81356,-1.69491 -1.69491,3.60169 0.84746,2.11865 -7.41526,4.23729 1.05932,12.71186 -8.26271,2.33051 0.63559,6.5678 -2.3305,3.81356 -3.6017,-1.48306 2.33051,6.14407 -3.38983,2.75424 -2.9661,-2.54237 2.9661,4.87288 -0.84746,4.02542 -2.9661,2.11865 -3.17797,-0.84746 1.27119,3.17796 -2.9661,1.90678 -2.75424,-0.42372 2.9661,5.72033 -1.05932,5.08475 -2.11864,5.08475 -3.6017,1.48305 -5.08474,1.90678 2.9341,3.48659 -3.59545,5.99243 v 2.69659 l 5.99243,1.79773 -3.89508,5.69281 4.49432,0.29962 5.99243,-0.89886 v 3.89508 l -5.99243,4.1947 4.1947,5.09356 4.49432,1.79773 -0.29962,-7.19091 5.39319,7.49053 4.49432,5.99243 0.29962,3.29584 -4.1947,2.99622 2.39697,2.99621 5.09357,-2.39697 3.29584,-4.1947 1.4981,4.1947 2.39698,5.99243 8.98864,4.1947 6.59167,2.09735 v 5.09357 l 8.98865,8.08978 c 6.14405,16.07466 -0.94918,6.17473 -4.79394,15.2807 l -2.99622,-7.49054 -8.3894,-7.19092 -5.99243,5.69281 1.49811,-5.69281 -7.49054,-4.49432 -2.6966,6.14224 -0.89886,-6.14224 -10.33694,-7.64035 -3.74527,6.74148 -4.79395,-8.68902 -6.74148,0.14981 -4.94376,4.49432 -2.54678,-5.24337 3.29584,-4.94376 -8.53921,-1.19848 -6.44187,0.89886 -0.44943,5.99243 -6.29205,-3.14602 -10.03732,-2.6966 -8.23959,6.14224 -0.74906,-4.64413 -3.74527,3.89508 -0.74905,7.0411 -8.08978,1.19849 0.29962,4.1947 -8.53921,-1.19848 -0.74906,3.89508 -8.08978,1.64791 -4.04489,-0.74905 -2.8464,7.04111 -2.54679,4.34451 -4.1947,-1.64792 -1.79773,1.49811 -1.34829,3.29583 -5.543,1.79773 1.04867,-8.68902 -7.64034,5.09356 -0.74906,4.94376 -11.235806,3.14603 v 3.74526 l -6.292051,-2.09735 -6.142242,1.19849 -5.243376,3.14603 -5.393188,0.89886 -1.947539,3.74527 -6.591674,1.79773 -4.943755,1.04867 -4.04489,-0.29962 0.898864,6.14224 -6.891295,4.04489 -3.295836,2.39698 H -1.1984861 Z"
     id="path10503"
     inkscape:connector-curvature="0"
     sodipodi:nodetypes="cccccccccccccccccccccccccccccccccccccccccccccccccccccccccccccccccccccccccccccccccccccccccccccccccccccccccccccccccccccccccccccccccccccccccccccccccccccccccccccccccccccccccccccccccccccccccccccccccccccccccccccccccccccccccccccccccccccccccccccccccccccccccccccccccccccccccccccccccccccccccccccccccccccccccccccccccccccccccccccccccccccscccccccccccccccccccccccccccccccccccccccccccccccccccccccccccccccccccccccccccccccccccccccccccccccccccccccccccccccccccccccccccc" />
  <path
     style="fill:url(#radialGradient10553);stroke:none;stroke-width:1px;stroke-linecap:butt;stroke-linejoin:miter;stroke-opacity:1;fill-opacity:1"
     d="m -1.1984861,513.19849 c -1.4511296,-2.3586 1.81917142,-5.42594 3.745269,-7.41564 1.7019874,-1.75819 4.5672872,-1.94767 6.4418627,-3.52055 4.7765124,-4.00778 10.0995304,-8.57639 11.6852394,-14.60655 1.112828,-4.23188 -2.758154,-8.63306 -2.097351,-12.95863 0.657644,-4.30489 2.723736,-8.64598 5.84262,-11.68524 1.855955,-1.80858 4.552797,-2.57206 7.041105,-3.29583 2.99753,-0.87188 6.356466,-0.12616 9.288268,-1.19849 5.190482,-1.89847 10.193199,-4.9188 13.9324,-8.98865 2.448448,-2.66496 2.200564,-7.41362 5.093566,-9.58789 4.282576,-3.21861 10.672403,-5.06199 15.73013,-3.29583 2.511113,0.87688 2.527992,5.44049 5.093565,6.14224 6.703778,1.83365 13.120509,-4.59331 19.625212,-7.04111 8.30815,-3.12646 17.89396,-4.15707 24.7766,-9.76327 5.10285,-4.15649 6.5333,-11.5187 10.80509,-16.52542 4.70526,-5.51477 12.08408,-8.5845 16.10169,-14.61865 11.46312,-17.21672 11.14692,-40.16187 20.76271,-58.47457 4.09145,-7.79193 11.13842,-13.73506 15.4661,-21.39831 1.77381,-3.14097 3.56077,-6.41441 4.23729,-9.95763 0.52996,-2.7756 -0.43817,-5.65791 -0.21186,-8.47457 0.18415,-2.29188 1.44011,-4.48661 1.27118,-6.77966 -0.4611,-6.25882 -2.97397,-12.38035 -6.14406,-17.79661 -1.28868,-2.20178 -3.90073,-3.46055 -5.08475,-5.72034 -2.49614,-4.76405 -6.53951,-11.04158 -3.81356,-15.67797 1.07678,-1.83143 4.22455,-2.60542 6.14407,-1.69491 5.3708,2.54758 4.39047,11.07685 7.20339,16.31356 1.54811,2.88206 3.96379,5.27498 5.29661,8.26271 0.86553,1.94022 0.35358,4.49651 1.69491,6.14406 2.05393,2.52282 6.05658,2.5342 8.68644,4.44916 0.80738,0.5879 1.14107,1.91415 2.11865,2.11864 5.12181,1.07137 9.74667,-3.81124 14.61864,-5.72034 5.58014,-2.1866 11.1374,-4.43229 16.73729,-6.56779 3.7998,-1.44904 7.92108,-2.19998 11.44068,-4.23729 8.59257,-4.9738 15.82089,-12.08779 22.88136,-19.0678 4.48864,-4.43749 7.37732,-10.44153 12.28813,-14.40678 1.62253,-1.31012 3.88436,-1.65795 5.50848,-2.9661 3.04242,-2.45052 5.57165,-5.57619 7.62711,-8.89831 3.63006,-5.86705 5.59488,-12.62048 8.05085,-19.06779 3.58546,-9.41239 7.72435,-18.73446 9.74576,-28.6017 0.4553,-2.22248 0.96203,-4.56227 0.51491,-6.78641 -0.49738,-2.47417 -2.12409,-4.59152 -3.44565,-6.74149 -1.90915,-3.10589 -5.26467,-5.38838 -6.44186,-8.83883 -0.5807,-1.70209 0.49547,-3.71452 -0.14981,-5.39319 -0.8007,-2.08298 -3.85143,-2.91715 -4.34452,-5.09357 -0.34259,-1.51214 1.71093,-3.03099 1.19849,-4.49432 -0.47204,-1.34797 -2.65973,-1.35423 -3.44565,-2.54678 -1.43969,-2.1846 -3.15326,-5.40255 -1.79773,-7.64035 1.14834,-1.89576 4.308,-2.24724 6.44187,-1.64792 2.68585,0.75435 3.8343,4.05607 5.84262,5.99243 1.55248,1.49685 3.7639,2.44985 4.79394,4.34451 1.03911,1.91136 -0.34551,4.77176 1.04868,6.44187 1.05266,1.26099 3.37561,0.60434 4.64413,1.64791 1.21032,0.99569 1.23923,2.98852 2.39697,4.04489 1.63355,1.49052 4.06868,1.75584 5.99243,2.84641 1.09642,0.62156 1.89245,1.96683 3.14603,2.09735 1.60483,0.1671 3.24137,-0.7811 4.49432,-1.79773 0.97871,-0.79412 1.83104,-1.91413 2.09735,-3.14603 0.58805,-2.72022 -2.35637,-5.64552 -1.3483,-8.23959 0.75991,-1.95548 2.96151,-3.20801 4.94376,-3.89508 2.07605,-0.71958 4.73014,1.16726 6.59167,0 1.457,-0.9136 1.11742,-3.34751 2.24716,-4.64413 0.59139,-0.67875 1.67581,-0.8024 2.24716,-1.49811 0.99467,-1.21116 0.74059,-3.18747 1.79773,-4.34451 0.79852,-0.87397 2.5026,-0.65421 3.14603,-1.64792 1.49483,-2.30858 -0.32428,-5.6125 0.50268,-8.23551 0.77208,-2.44893 2.69092,-4.37407 4.02543,-6.5678 2.27235,-3.73539 4.76633,-7.34768 6.77966,-11.228809 1.90025,-3.663128 2.64994,-7.928013 4.97881,-11.334746 2.42362,-3.545341 5.39224,-6.96066 9.11017,-9.11017 3.29243,-1.903509 8.05495,-0.580728 11.01695,-2.966101 3.46867,-2.793413 3.14735,-8.569789 6.14407,-11.864407 2.54394,-2.796823 6.45659,-3.947696 9.53389,-6.144068 4.82987,-3.447232 9.49346,-7.136931 13.98306,-11.016949 6.91676,-5.977634 13.31126,-12.534457 19.91525,-18.855932 4.40161,-4.21331 8.81398,-8.416538 13.13559,-12.711865 5.08197,-5.051063 8.43683,-12.5792232 15.04238,-15.355243 7.68248,-3.2286052 25,0 25,0 0,0 -7.80099,22.730855 -16.1017,30.821345 -2.87245,2.799704 -7.74745,2.70042 -10.80508,5.29661 -3.89876,3.310376 -5.6258,8.569407 -8.89831,12.5 -12.39872,14.892029 -28.65918,26.371827 -40.4661,41.737288 -1.50542,1.95915 -2.10854,4.567787 -3.81356,6.355933 -3.3386,3.501364 -9.04903,4.277034 -12.07627,8.050844 -2.93788,3.6624 -1.77086,9.80958 -5.08475,13.1356 -1.2311,1.2356 -3.49685,0.83494 -4.87288,1.90678 -2.87561,2.23993 -4.30186,5.88712 -6.35593,8.8983 -5.03347,7.37886 -10.56448,14.49854 -14.61864,22.45763 -1.16678,2.29061 -1.35984,5.04377 -2.75424,7.20339 -6.8531,10.61398 -18.34043,17.42922 -26.69492,26.90678 -3.26027,3.69854 -6.23556,7.6469 -9.11017,11.65254 -1.72445,2.40294 -3.69975,4.70017 -4.87288,7.41525 -4.46373,10.33078 -4.61625,22.05642 -7.83898,32.83899 -0.77406,2.58986 -3.29181,4.97805 -2.75424,7.62712 0.5168,2.54673 3.28116,4.07994 5.29661,5.72034 2.30496,1.87604 5.16283,2.95456 7.6357,4.60298 3.29934,2.19935 6.36272,4.73437 9.58789,7.04111 2.7718,1.98248 5.71297,3.73314 8.3894,5.84261 2.8336,2.23335 5.51103,4.66761 8.08979,7.19092 2.0457,2.00172 4.72085,3.65891 5.84261,6.29205 0.68613,1.61058 0.95331,3.61936 0.29963,5.24338 -0.71247,1.77008 -2.32986,3.49114 -4.1947,3.89508 -1.08035,0.23401 -2.31618,-0.31843 -3.14603,-1.04868 -2.33064,-2.05092 -1.44743,-6.68901 -4.04489,-8.3894 -2.21595,-1.45064 -5.47482,0.66877 -7.93997,-0.29962 -2.20813,-0.86743 -3.18248,-3.78331 -5.39319,-4.64413 -2.9331,-1.1421 -6.30571,0.01 -9.43808,-0.29963 -3.02284,-0.29854 -6.73021,0.53319 -8.98864,-1.4981 -1.38723,-1.24771 0.0181,-4.30579 -1.49811,-5.39319 -1.46311,-1.04934 -3.74366,1.02132 -5.39319,0.29962 -1.36485,-0.59715 -1.57964,-2.66161 -2.8464,-3.44565 -2.44109,-1.51088 -5.51986,-2.03358 -8.3894,-1.94754 -2.81121,0.0843 -5.47277,1.36682 -8.08979,2.39698 -3.42655,1.34882 -7.14707,2.46624 -9.88941,4.92392 -1.7506,1.56889 -2.18377,4.23815 -3.81356,5.9322 -5.55543,5.7745 -14.00841,8.13426 -19.70339,13.77119 -2.15884,2.13684 -3.57116,4.91535 -5.29661,7.41525 -0.7232,1.0478 -1.10042,2.41368 -2.11864,3.17797 -3.19752,2.4001 -7.66236,2.29443 -11.44068,3.60169 -3.21045,1.11078 -6.87534,1.48678 -9.5339,3.6017 -1.39487,1.10964 -1.65581,3.2408 -2.9661,4.44915 -3.20702,2.95752 -7.36428,4.80195 -11.44068,6.35593 -2.70555,1.03139 -6.11256,0.23206 -8.47457,1.90678 -1.63048,1.15605 -1.90136,3.54683 -3.17797,5.08475 -1.5323,1.84594 -3.68735,3.09363 -5.29661,4.87288 -2.3686,2.61882 -4.64495,5.38572 -6.35593,8.47458 -7.22551,13.04434 -12.5993,27.24259 -16.1017,41.73728 -0.784,3.24456 -2.11715,6.79175 -1.05932,9.95763 0.45922,1.37434 2.36295,1.86043 2.9661,3.17797 1.09398,2.38972 -0.12097,5.39569 0.84746,7.83898 1.46767,3.70282 4.77611,6.37586 7.20339,9.5339 3.00456,3.90911 5.88205,7.9259 9.11017,11.65254 1.53705,1.77442 3.05327,3.60148 4.87288,5.08475 2.26291,1.84464 6.06443,2.07282 7.41525,4.66101 0.68697,1.31625 0.77451,3.33943 -0.21186,4.44916 -0.85615,0.96323 -2.53514,0.79823 -3.81356,0.63559 -2.75992,-0.35111 -4.92169,-2.74093 -7.62712,-3.38983 -2.61322,-0.62678 -5.39495,-0.83354 -8.05085,-0.42373 -1.789,0.27604 -3.27668,1.81934 -5.08474,1.90678 -2.99438,0.14482 -5.6987,-2.57682 -8.68644,-2.33051 -1.70088,0.14022 -3.3609,1.01306 -4.66102,2.11865 -1.35783,1.15467 -1.4297,3.54558 -2.9661,4.44915 -3.78646,2.22686 -8.9652,-0.32055 -13.13559,1.05932 -2.53007,0.83713 -4.9742,2.2771 -6.77966,4.23729 -1.66909,1.81213 -1.51834,4.96556 -3.38984,6.56779 -2.2054,1.8881 -6.03138,0.89686 -8.26271,2.75424 -1.79773,1.49644 -1.42037,4.88217 -3.38983,6.14407 -2.44448,1.56627 -5.94356,-0.31588 -8.68644,0.63559 -2.73882,0.95006 -5.50215,2.52564 -7.20339,4.87288 -1.20688,1.66516 0.19605,5.12377 -1.69491,5.93221 -2.78847,1.19215 -5.03379,-4.54404 -8.05085,-4.23729 -3.54444,0.36037 -5.28472,4.82403 -8.26271,6.77966 -2.3233,1.5257 -4.851724,2.73942 -7.415257,3.81356 -6.44703,2.70135 -13.504712,3.78097 -19.915254,6.5678 -4.57966,1.9909 -8.712284,4.88578 -13.135594,7.20339 -2.657669,1.39249 -5.573044,2.33346 -8.050847,4.02542 -2.436273,1.6636 -4.073772,4.3565 -6.567797,5.9322 -1.873792,1.18384 -4.38322,1.19627 -6.144067,2.54238 -2.386144,1.82412 -2.812548,5.80665 -5.508475,7.13069 -11.705238,5.74876 -32.2886699,11.10691 -39.1222151,0 z"
     id="path10535"
     inkscape:connector-curvature="0"
     sodipodi:nodetypes="sssssssssssssssssssssssssssssssssssssssssssssssssssssssssssssssssssssssssssscssssssssssssssssssssssssssssssssssssssssssssssssssssssssssssssssssssssssssssssssss" />
  <path
     style="fill:url(#radialGradient10561);stroke:none;stroke-width:1px;stroke-linecap:butt;stroke-linejoin:miter;stroke-opacity:1;fill-opacity:1"
     d="m 78.389831,448.01695 c -1.549226,1.67719 -5.918458,1.32034 -5.826271,3.60169 0.06886,1.70416 3.980822,0.72455 4.555084,2.33051 1.01163,2.8291 -3.745908,5.26165 -3.601695,8.26271 0.0698,1.45251 0.783597,3.2371 2.118645,3.81356 2.240819,0.96756 4.815347,-2.66652 7.097457,-1.80084 0.998128,0.37863 1.377119,3.07203 1.800848,2.6483 0.423728,-0.42373 1.581142,-2.77389 2.966101,-2.9661 1.36225,-0.18906 2.813513,0.88566 3.601695,2.01271 1.147781,1.64125 1.938403,4.1884 0.95339,5.9322 -1.254495,2.22088 -5.90234,0.60678 -7.097458,2.86017 -0.863184,1.62753 -0.414839,4.45533 1.165255,5.40255 3.968703,2.37913 8.955781,-2.35615 13.347457,-3.81356 2.078921,-0.68991 4.324091,-1.11168 6.144071,-2.33051 2.57384,-1.72368 3.6104,-5.34515 6.35593,-6.77966 1.29682,-0.67757 2.99613,-0.0645 4.34322,-0.6356 1.97025,-0.83535 3.3372,-2.68428 5.08475,-3.91949 3.39921,-2.40266 6.76595,-4.91442 10.48728,-6.77966 3.26611,-1.63708 9.86134,-0.18368 10.27543,-3.81356 0.40739,-3.57108 -5.47482,-5.25263 -9.00424,-5.9322 -4.31811,-0.83143 -8.55306,3.13265 -12.92373,2.6483 -2.30914,-0.25589 -4.09846,-2.31114 -6.35593,-2.86017 -3.16123,-0.76883 -7.95232,2.18476 -9.74576,-0.52966 -1.13917,-1.72416 0.81846,-4.22004 2.11864,-5.82627 1.25754,-1.55355 4.90374,-1.18745 5.08475,-3.17796 0.0996,-1.09523 -1.35489,-2.02535 -2.43644,-2.22458 -5.30076,-0.97645 -10.07923,3.83012 -15.042377,5.9322 -2.677479,1.13401 -5.128446,2.87894 -7.944916,3.6017 -1.783785,0.45775 -3.974737,-0.59562 -5.508474,0.42373 -1.223177,0.81295 -1.016165,2.84063 -2.012712,3.91949 z"
     id="path10537"
     inkscape:connector-curvature="0"
     sodipodi:nodetypes="ssssssssssssssssssssssssssssss" />
  <path
     style="fill:url(#radialGradient10569);stroke:none;stroke-width:1px;stroke-linecap:butt;stroke-linejoin:miter;stroke-opacity:1;fill-opacity:1"
     d="m 182.76913,421.96373 c 2.83555,-0.20572 5.71101,0.34012 8.4643,1.04868 2.73454,0.70374 6.62166,0.61089 7.86507,3.14602 0.48027,0.9792 -0.0438,2.46902 -0.89887,3.14603 -5.42839,4.29798 -15.10373,-3.03539 -20.74879,0.97377 -1.79937,1.27792 -1.20345,4.33616 -2.47187,6.14224 -1.07731,1.53396 -2.45407,3.0497 -4.1947,3.74527 -2.94605,1.17727 -6.44267,-0.49934 -9.51299,0.29962 -2.31278,0.60184 -4.54009,1.75514 -6.36695,3.29584 -2.05758,1.73527 -2.96812,4.53607 -4.86885,6.44186 -1.10731,1.11025 -2.18617,2.67905 -3.74527,2.84641 -2.41016,0.25871 -4.64363,-1.62859 -6.59168,-3.07112 -1.86138,-1.37835 -4.28049,-2.88105 -4.64413,-5.16848 -0.2615,-1.64494 0.92635,-3.3151 2.02244,-4.56922 1.60066,-1.83144 5.25274,-1.5872 6.21715,-3.82018 0.82905,-1.91957 -2.79349,-4.70649 -1.27339,-6.14224 1.33413,-1.2601 3.74644,2.37033 5.31828,1.4232 2.30345,-1.38797 0.11605,-5.76642 1.79773,-7.86506 0.72631,-0.9064 2.61946,-0.46282 3.14603,-1.49811 0.87287,-1.71616 -1.02975,-3.75216 -1.06442,-5.67724 -0.0363,-2.01718 -0.14189,-4.25776 0.90042,-5.98517 1.58535,-2.62739 5.07471,-3.47098 7.41526,-5.45551 1.44749,-1.22731 3.11507,-2.33736 4.07839,-3.97246 1.124,-1.90784 0.0428,-4.99613 1.74788,-6.4089 1.18446,-0.9814 3.11378,-0.76153 4.60014,-0.36552 1.11088,0.29597 2.20127,0.99598 2.8464,1.94754 1.40728,2.07573 1.51377,4.83651 1.64792,7.34073 0.0941,1.75665 0.26398,3.71056 -0.59924,5.24337 -0.48033,0.85293 -1.77328,0.98715 -2.32207,1.79773 -0.71335,1.05364 -0.20571,2.71725 -1.04868,3.67037 -1.05995,1.19844 -2.89761,1.37878 -4.41941,1.87263 -0.95056,0.30847 -2.26611,-0.0805 -2.92131,0.67415 -0.95296,1.09756 -0.70863,2.92989 -0.37453,4.34451 0.20867,0.88353 0.53655,2.12708 1.4232,2.32207 0.96717,0.2127 1.48274,-1.69529 2.47188,-1.64792 0.86861,0.0416 1.45466,0.98927 2.02245,1.64792 0.60671,0.7038 0.54531,2.09243 1.4232,2.39697 1.97138,0.68386 3.86038,-1.59545 5.84262,-2.24716 2.23844,-0.73594 4.46625,-1.70214 6.81639,-1.87264 z"
     id="path10539"
     inkscape:connector-curvature="0"
     sodipodi:nodetypes="sssssssssssssssssssssssssssssssssssssss" />
  <path
     style="fill:url(#radialGradient10604);stroke:none;stroke-width:1px;stroke-linecap:butt;stroke-linejoin:miter;stroke-opacity:1;fill-opacity:1.0"
     d="m 347.24576,149.92373 c -0.16837,1.27425 0.21363,3.05547 1.37712,3.60169 1.68803,0.79248 3.76565,-0.73613 5.29661,-1.80085 1.60728,-1.1178 2.55121,-2.97537 3.70763,-4.55508 2.24811,-3.07099 4.81972,-6.02503 6.26321,-9.54658 0.28972,-0.70681 -0.10925,-1.72621 0.44944,-2.24716 1.43605,-1.33903 4.18892,-1.8076 5.84262,-0.74905 1.54303,0.9877 1.32771,3.43949 1.64791,5.24337 0.55918,3.15023 -2.0869,7.63761 0.44944,9.58789 1.49856,1.15229 4.07985,-0.002 5.54299,-1.19848 1.35003,-1.10442 2.34276,-3.06708 2.09736,-4.79395 -0.32924,-2.31684 -4.11706,-3.08368 -4.49433,-5.39319 -0.31097,-1.90365 2.11276,-3.46436 2.09735,-5.39318 -0.0116,-1.45585 -0.6587,-2.97667 -1.64791,-4.04489 -1.06217,-1.14701 -3.71506,-0.60948 -4.19471,-2.09735 -0.69219,-2.14721 3.41093,-3.75201 3.14603,-5.99243 -0.18699,-1.5815 -1.62471,-3.12463 -3.14603,-3.59546 -1.72397,-0.53355 -3.85974,0.1897 -5.24337,1.34829 -1.93603,1.62116 -1.97025,4.65659 -3.14603,6.8913 -0.81348,1.54613 -1.86935,2.95551 -2.69659,4.49432 -1.20568,2.24276 -1.6096,4.98337 -3.29584,6.8913 -0.98157,1.11062 -2.89315,1.18419 -3.74527,2.39697 -0.6477,0.92184 -0.28379,2.26977 -0.74905,3.29584 -1.30246,2.87238 -5.14544,4.52998 -5.55858,7.65668 z"
     id="path10541"
     inkscape:connector-curvature="0"
     sodipodi:nodetypes="ssssssssssssssssssssssss" />
  <path
     style="fill:url(#radialGradient10588);stroke:none;stroke-width:1px;stroke-linecap:butt;stroke-linejoin:miter;stroke-opacity:1;fill-opacity:1.0"
     d="m 382.30932,92.82627 c 1.45751,-1.967998 4.30887,-3.708265 6.67373,-3.072034 1.8353,0.49376 3.12049,2.767498 3.2839,4.661017 0.1847,2.140202 -2.61722,3.682484 -2.75424,5.826267 -0.18234,2.85282 1.59624,5.49877 2.64831,8.15678 0.48832,1.23373 0.52573,2.97435 1.69491,3.6017 1.06928,0.57374 2.49934,-0.0224 3.6017,-0.52966 2.63738,-1.21364 3.90574,-6.87884 6.5678,-5.72034 0.97187,0.42294 0.26255,2.12969 0.10593,3.17796 -0.40262,2.69474 -0.94665,5.60513 -2.64831,7.73306 -1.00987,1.26285 -2.88329,1.51427 -4.13135,2.54237 -1.40802,1.15987 -1.90239,4.28799 -3.70763,4.02542 -1.90656,-0.27731 -0.93741,-4.12485 -2.54237,-5.19068 -1.03122,-0.68481 -2.471,-0.15593 -3.70763,-0.21186 -2.11765,-0.0958 -4.30064,-0.73092 -6.35593,-0.21186 -1.42686,0.36035 -2.3865,1.86504 -3.81356,2.22457 -1.98715,0.50064 -4.4405,0.9271 -6.14407,-0.21186 -1.41877,-0.94855 -1.86679,-2.97306 -2.11864,-4.66102 -0.32058,-2.14861 -0.28401,-4.60737 0.84745,-6.46186 0.87236,-1.42982 2.85161,-1.77959 4.13136,-2.86017 1.65984,-1.40152 3.40981,-2.81503 4.55508,-4.66102 0.78891,-1.271599 0.61407,-3.019011 1.48306,-4.237289 0.49637,-0.695891 1.58872,-0.846769 2.01271,-1.588983 0.3889,-0.680775 -0.14883,-1.700458 0.31779,-2.330508 z"
     id="path10543"
     inkscape:connector-curvature="0"
     sodipodi:nodetypes="ssssssssssssssssssssssss" />
  <path
     style="fill:url(#radialGradient10596);stroke:none;stroke-width:1px;stroke-linecap:butt;stroke-linejoin:miter;stroke-opacity:1;fill-opacity:1.0"
     d="m 406.14407,67.084744 c 0.76118,-0.893521 1.27117,-2.401291 2.43644,-2.542373 2.61599,-0.316722 6.15419,1.653922 6.67373,4.237288 0.67015,3.332295 -3.86737,5.590875 -5.82627,8.368644 -0.87529,1.241184 -3.24807,2.31229 -2.64831,3.707627 0.6054,1.408475 3.26783,-0.197033 4.55509,0.635594 1.22569,0.792803 1.23985,2.737405 2.33051,3.707627 1.84093,1.637644 5.49456,1.014527 6.67372,3.177966 1.05641,1.938217 0.34259,4.708634 -0.84745,6.567797 -1.14614,1.790584 -3.71706,2.094083 -5.40255,3.38983 -2.83242,2.177466 -4.60102,5.799486 -7.83898,7.309326 -1.83785,0.85698 -4.94556,2.44985 -6.03813,0.74152 -1.11925,-1.75004 1.81341,-3.82929 3.28389,-5.29661 1.38041,-1.377443 3.30502,-2.071393 4.97882,-3.072033 1.33078,-0.795574 3.39534,-0.913849 4.02542,-2.330508 0.48407,-1.088387 -0.1265,-2.475636 -0.74152,-3.495763 -0.99674,-1.653281 -2.55777,-3.320993 -4.44916,-3.707627 -2.16711,-0.442998 -4.24721,2.574562 -6.35593,1.90678 -1.79806,-0.569405 -2.02069,-3.273812 -3.49576,-4.449153 -1.61831,-1.289476 -4.54645,-0.875979 -5.61441,-2.648305 -0.40135,-0.666061 -0.43422,-1.771084 0.10593,-2.330508 1.52562,-1.580048 4.58121,0.407106 6.5678,-0.529661 1.46811,-0.69228 2.68794,-2.032228 3.38983,-3.495763 0.73863,-1.540144 -0.007,-3.502127 0.63559,-5.084746 0.74923,-1.84523 2.31023,-3.250927 3.6017,-4.766949 z"
     id="path10545"
     inkscape:connector-curvature="0"
     sodipodi:nodetypes="sssssssssssssssssssssssss" />
  <path
     style="fill:none;fill-opacity:1;stroke:#ec461f;stroke-width:2.9;stroke-linecap:butt;stroke-linejoin:miter;stroke-miterlimit:4;stroke-dasharray:none;stroke-opacity:0.76851851"
     d="m 24.364407,506.91525 c 0,0 9.737679,-9.43421 11.228813,-13.77118 1.491134,-4.33697 -3.18374,-9.13267 -0.211864,-9.74577 2.971876,-0.6131 0.547356,6.18383 3.177966,7.83899 2.63061,1.65516 7.380724,1.85897 10.169492,-0.6356 2.788768,-2.49457 -0.567008,-9.32614 2.118644,-12.07627 2.685652,-2.75013 7.962587,0.66905 10.59322,-2.11864 2.630633,-2.78769 -1.809179,-8.25509 1.694915,-12.07627 3.504094,-3.82118 11.839883,-1.27275 18.432204,-4.23729 6.592321,-2.96454 17.19413,-9.18423 19.915253,-14.19492 2.72112,-5.01069 -2.966954,-5.14695 0.42373,-9.74576 3.39068,-4.59881 17.67292,-4.05889 23.09322,-8.26271 5.4203,-4.20382 5.10962,-8.6361 9.32203,-13.77119 4.21241,-5.13509 10.35381,-18.20286 16.31356,-16.52542 5.95975,1.67744 3.17797,13.55932 3.17797,13.55932"
     id="path10606"
     inkscape:connector-curvature="0"
     sodipodi:nodetypes="czzzzzzzzzzzzzc" />
  <path
     style="fill:none;stroke:#ec461f;stroke-width:3;stroke-linecap:butt;stroke-linejoin:miter;stroke-miterlimit:4;stroke-dasharray:none;stroke-opacity:0.7962963"
     d="m 155.953,391.85177 c 0,0 4.76624,-5.40553 5.99243,-9.7377 1.22619,-4.33217 -1.32237,-10.67488 0,-15.58032 1.32237,-4.90544 5.59671,-7.81894 7.49054,-12.88372 1.89383,-5.06478 0.74122,-11.51938 3.29584,-17.22824 2.55462,-5.70886 8.81584,-12.66645 12.13467,-15.87994 3.31883,-3.21349 4.0266,-0.71013 6.29205,-4.49432 2.26545,-3.78419 0.0542,-14.02775 2.39697,-18.57654 2.34281,-4.54879 8.02469,-4.48288 8.77501,-8.14048 0.75032,-3.6576 -4.23729,-9.5339 -4.23729,-9.5339"
     id="path10608"
     inkscape:connector-curvature="0"
     sodipodi:nodetypes="czzzzzzzzc" />
  <path
     style="fill:none;stroke:#e24021;stroke-width:3;stroke-linecap:butt;stroke-linejoin:miter;stroke-opacity:0.77314812;stroke-miterlimit:4;stroke-dasharray:none"
     d="m 165.99576,378.63136 18.32627,-17.69068"
     id="path10610"
     inkscape:connector-curvature="0"
     sodipodi:nodetypes="cc" />
  <path
     style="fill:none;stroke:#d3361f;stroke-width:3;stroke-linecap:butt;stroke-linejoin:miter;stroke-miterlimit:4;stroke-dasharray:none;stroke-opacity:0.7962963"
     d="m 190.83292,318.1557 c 0,0 4.75391,4.90619 5.07851,9.81325 0.3246,4.90706 -2.6966,16.7788 -2.6966,16.7788"
     id="path10781-3"
     inkscape:connector-curvature="0"
     sodipodi:nodetypes="czc" />
  <path
     style="fill:none;stroke:#e24021;stroke-width:3;stroke-linecap:butt;stroke-linejoin:miter;stroke-opacity:0.77314812;stroke-miterlimit:4;stroke-dasharray:none"
     d="m 177.64831,391.66102 c 0,0 5.11422,-19.10869 6.25,-24.47034 1.13578,-5.36165 0.004,-4.32771 1.27118,-7.52119 1.26707,-3.19348 5.19329,-6.93488 7.20339,-10.80508 2.0101,-3.8702 1.85985,-7.56387 4.76695,-12.28814 2.9071,-4.72427 10.50552,-11.78988 13.45339,-14.93644 2.94787,-3.14656 2.06497,-1.22358 4.02542,-4.13136 1.96045,-2.90778 5.43583,-8.77384 6.14407,-13.98305 0.70824,-5.20921 -2.33051,-16.10169 -2.33051,-16.10169"
     id="path10612"
     inkscape:connector-curvature="0"
     sodipodi:nodetypes="czzzzzzzc" />
  <path
     style="fill:none;stroke:#e24021;stroke-width:3;stroke-linecap:butt;stroke-linejoin:miter;stroke-opacity:0.77314812;stroke-miterlimit:4;stroke-dasharray:none"
     d="m 228.17797,282.12712 c 0,0 -5.31896,3.80853 -9.74577,5.29661 -4.42681,1.48808 -16.73728,2.54237 -16.73728,2.54237"
     id="path10614"
     inkscape:connector-curvature="0"
     sodipodi:nodetypes="czc" />
  <path
     style="fill:none;stroke:#e24021;stroke-width:3;stroke-linecap:butt;stroke-linejoin:miter;stroke-opacity:0.77314812;stroke-miterlimit:4;stroke-dasharray:none"
     d="m 252.75424,300.13559 c 0,0 -8.96093,0.53239 -13.55932,-1.27118 -4.59839,-1.80357 -9.04019,-8.05835 -12.71187,-9.74577 -3.67168,-1.68742 -8.05085,-1.69491 -8.05085,-1.69491"
     id="path10616"
     inkscape:connector-curvature="0"
     sodipodi:nodetypes="czzc" />
  <path
     style="fill:none;stroke:#e24021;stroke-width:3;stroke-linecap:butt;stroke-linejoin:miter;stroke-opacity:0.77314812;stroke-miterlimit:4;stroke-dasharray:none"
     d="m 225.63559,305.00847 9.95763,-9.32203"
     id="path10618"
     inkscape:connector-curvature="0"
     sodipodi:nodetypes="cc" />
  <path
     style="fill:none;stroke:#e24021;stroke-width:3;stroke-linecap:butt;stroke-linejoin:miter;stroke-opacity:0.77314812;stroke-miterlimit:4;stroke-dasharray:none"
     d="m 245.55085,276.19491 c 0,0 5.17566,-3.43331 7.62712,-2.3305 2.45146,1.10281 1.46381,5.85121 3.38983,7.41525 1.92602,1.56404 3.36841,1.40089 6.56779,1.48305 3.19938,0.0822 7.5786,0.20527 12.28814,-2.11864 4.70954,-2.32391 10.47142,-9.54763 13.98305,-12.92373 3.51163,-3.3761 3.03564,-5.44646 7.20339,-7.20339 4.16775,-1.75693 12.95039,-1.59533 16.94915,-0.21187 3.99876,1.38346 3.62496,3.38987 6.5678,5.29661 2.94284,1.90674 11.22881,5.72034 11.22881,5.72034"
     id="path10620"
     inkscape:connector-curvature="0"
     sodipodi:nodetypes="czzzzzzzzc" />
  <path
     style="fill:none;stroke:#e24021;stroke-width:3;stroke-linecap:butt;stroke-linejoin:miter;stroke-opacity:0.77314812;stroke-miterlimit:4;stroke-dasharray:none"
     d="m 322.88136,249.5 c 0,0 0.90988,4.34101 -0.6356,6.5678 -1.54548,2.22679 -8.68644,4.23728 -8.68644,4.23728"
     id="path10622"
     inkscape:connector-curvature="0"
     sodipodi:nodetypes="czc" />
  <path
     style="fill:none;stroke:#e24021;stroke-width:3;stroke-linecap:butt;stroke-linejoin:miter;stroke-opacity:0.77314812;stroke-miterlimit:4;stroke-dasharray:none"
     d="m 258.68644,268.5678 c 0,0 11.8584,-10.83982 15.4661,-14.61865 3.6077,-3.77883 3.01912,-7.51858 6.5678,-7.62712 3.54868,-0.10854 7.4084,4.34996 7.83898,8.05085 0.43058,3.70089 -6.61372,6.466 -5.72034,9.5339 0.89338,3.0679 7.20339,3.60169 7.20339,3.60169"
     id="path10624"
     inkscape:connector-curvature="0"
     sodipodi:nodetypes="czzzzc" />
  <path
     style="fill:none;stroke:#e24021;stroke-width:3;stroke-linecap:butt;stroke-linejoin:miter;stroke-opacity:0.77314812;stroke-miterlimit:4;stroke-dasharray:none"
     d="m 299.36441,261.15254 c 0,0 0.78648,-6.6312 0.84746,-9.74576 0.061,-3.11456 3.30104,-5.9901 -0.42373,-8.89831 -3.72477,-2.90821 -16.60905,8.10015 -19.0678,3.81356 -2.45875,-4.28659 3.73808,-4.9358 6.77966,-7.62712 3.04158,-2.69132 7.63905,-3.36912 11.65254,-8.05084 4.01349,-4.68172 6.34219,-11.99262 9.95763,-20.55085 3.61544,-8.55823 9.75282,-23.75872 11.22881,-30.9322 1.47599,-7.17348 1.77651,-6.75195 0.6356,-11.01695 -1.14091,-4.265 -8.47458,-12.92373 -8.47458,-12.92373"
     id="path10626"
     inkscape:connector-curvature="0"
     sodipodi:nodetypes="czzzzzzzzc" />
  <path
     style="fill:none;stroke:#e24021;stroke-width:3;stroke-linecap:butt;stroke-linejoin:miter;stroke-opacity:0.77314812;stroke-miterlimit:4;stroke-dasharray:none"
     d="m 328.17797,156.0678 -7.20339,12.07627"
     id="path10628"
     inkscape:connector-curvature="0"
     sodipodi:nodetypes="cc" />
  <path
     style="fill:none;stroke:#e24021;stroke-width:3;stroke-linecap:butt;stroke-linejoin:miter;stroke-opacity:0.77314812;stroke-miterlimit:4;stroke-dasharray:none"
     d="m 311.22881,243.35593 c 0,0 5.89628,1.3644 9.32204,-1.27119 3.42576,-2.63559 4.96764,-9.94094 6.35593,-15.25423 1.38829,-5.31329 1.90678,-16.31356 1.90678,-16.31356"
     id="path10630"
     inkscape:connector-curvature="0"
     sodipodi:nodetypes="czzc" />
  <path
     style="fill:none;stroke:#e24021;stroke-width:3;stroke-linecap:butt;stroke-linejoin:miter;stroke-opacity:0.77314812;stroke-miterlimit:4;stroke-dasharray:none"
     d="m 301.05932,227.88983 c 0,0 2.81972,3.71329 6.77966,2.9661 3.95994,-0.74719 8.35901,-8.48343 11.86441,-11.86441 3.5054,-3.38098 9.11017,-8.47457 9.11017,-8.47457"
     id="path10632"
     inkscape:connector-curvature="0"
     sodipodi:nodetypes="czzc" />
  <path
     style="fill:none;stroke:#e24021;stroke-width:3;stroke-linecap:butt;stroke-linejoin:miter;stroke-opacity:0.77314812;stroke-miterlimit:4;stroke-dasharray:none"
     d="m 306.99153,214.11864 c 0,0 6.54373,3.68544 9.11017,4.02543 2.56644,0.33999 5.50847,-0.84746 5.50847,-0.84746"
     id="path10634"
     inkscape:connector-curvature="0"
     sodipodi:nodetypes="czc" />
  <path
     style="fill:none;stroke:#e24021;stroke-width:3;stroke-linecap:butt;stroke-linejoin:miter;stroke-opacity:0.77314812;stroke-miterlimit:4;stroke-dasharray:none"
     d="m 319.91526,202.4661 c 0,0 3.55087,4.75311 3.81355,7.41525 0.26268,2.66214 -2.11864,7.41526 -2.11864,7.41526"
     id="path10636"
     inkscape:connector-curvature="0"
     sodipodi:nodetypes="czc" />
  <path
     style="fill:none;stroke:#e24021;stroke-width:3;stroke-linecap:butt;stroke-linejoin:miter;stroke-opacity:0.77314812;stroke-miterlimit:4;stroke-dasharray:none"
     d="m 335.38136,190.81356 c 0,0 -5.04512,10.39223 -5.93221,13.77118 -0.88709,3.37895 -0.63559,5.93221 -0.63559,5.93221"
     id="path10638"
     inkscape:connector-curvature="0"
     sodipodi:nodetypes="czc" />
  <path
     style="fill:none;stroke:#e24021;stroke-width:3;stroke-linecap:butt;stroke-linejoin:miter;stroke-opacity:0.77314812;stroke-miterlimit:4;stroke-dasharray:none"
     d="m 339.61865,191.02542 c 0,0 7.76571,-8.72368 11.44067,-12.71186 3.67496,-3.98818 6.98181,-7.13736 10.59322,-11.22882 3.61141,-4.09146 8.7686,-9.67282 11.01695,-13.34745 2.24835,-3.67463 1.14024,-4.00394 3.38983,-7.83899 2.24959,-3.83505 9.51553,-9.97169 11.01695,-14.40678 1.50142,-4.43509 0,-9.95762 0,-9.95762"
     id="path10640"
     inkscape:connector-curvature="0"
     sodipodi:nodetypes="czzzzzc" />
  <path
     style="fill:none;stroke:#e24021;stroke-width:3;stroke-linecap:butt;stroke-linejoin:miter;stroke-opacity:0.77314812;stroke-miterlimit:4;stroke-dasharray:none"
     d="m 379.66102,124.71186 c 0,0 -6.20571,4.10587 -7.20339,7.62712 -0.99768,3.52125 2.26601,8.42421 2.33051,11.22882 0.0645,2.80461 -0.84746,5.29661 -0.84746,5.29661"
     id="path10642"
     inkscape:connector-curvature="0"
     sodipodi:nodetypes="czzc" />
  <path
     style="fill:none;stroke:#e24021;stroke-width:3;stroke-linecap:butt;stroke-linejoin:miter;stroke-opacity:0.77314812;stroke-miterlimit:4;stroke-dasharray:none"
     d="m 366.73729,149.92373 c 0,0 -10.77935,2.73154 -12.71187,5.72034 -1.93252,2.9888 1.6581,4.09905 0,7.41525 -1.6581,3.3162 -8.31519,7.35339 -11.8644,8.89831 -3.54921,1.54492 -5.29859,-0.68703 -8.26271,1.48305 -2.96412,2.17008 -5.12447,9.04829 -6.35594,12.07627 -1.23147,3.02798 -2.16594,3.13003 -1.69491,5.72034 0.47103,2.59031 5.9322,7.83898 5.9322,7.83898"
     id="path10644"
     inkscape:connector-curvature="0"
     sodipodi:nodetypes="czzzzzzc" />
  <path
     style="fill:none;stroke:#e24021;stroke-width:3;stroke-linecap:butt;stroke-linejoin:miter;stroke-opacity:0.77314812;stroke-miterlimit:4;stroke-dasharray:none"
     d="m 339.61865,191.02542 -4.23729,-0.21186"
     id="path10646"
     inkscape:connector-curvature="0"
     sodipodi:nodetypes="cc" />
  <path
     style="fill:none;stroke:#e24021;stroke-width:3;stroke-linecap:butt;stroke-linejoin:miter;stroke-opacity:0.77314812;stroke-miterlimit:4;stroke-dasharray:none"
     d="m 319.49153,181.49152 6.35593,9.74577"
     id="path10648"
     inkscape:connector-curvature="0"
     sodipodi:nodetypes="cc" />
  <path
     style="fill:none;stroke:#e24021;stroke-width:3;stroke-linecap:butt;stroke-linejoin:miter;stroke-opacity:0.77314812;stroke-miterlimit:4;stroke-dasharray:none"
     d="m 334.11017,159.45763 c 0,0 6.19394,1.2144 9.5339,-0.42373 3.33996,-1.63813 4.91699,-4.97087 8.26271,-9.74577 3.34572,-4.7749 8.48702,-14.21415 11.01695,-19.27966 2.52993,-5.06551 4.66102,-10.80508 4.66102,-10.80508"
     id="path10650"
     inkscape:connector-curvature="0"
     sodipodi:nodetypes="czzzc" />
  <path
     style="fill:none;stroke:#e24021;stroke-width:3;stroke-linecap:butt;stroke-linejoin:miter;stroke-opacity:0.77314812;stroke-miterlimit:4;stroke-dasharray:none"
     d="m 361.65254,167.08474 c 0,0 -5.88557,-3.88706 -7.62712,-6.99152 -1.74155,-3.10446 -2.11864,-10.80509 -2.11864,-10.80509"
     id="path10652"
     inkscape:connector-curvature="0"
     sodipodi:nodetypes="czc" />
  <rect
     style="fill:url(#radialGradient10662);fill-opacity:1;stroke:none;stroke-width:3;stroke-miterlimit:4;stroke-dasharray:none;stroke-opacity:0.77314812"
     id="rect10654"
     width="149.15254"
     height="245.76271"
     x="241.79456"
     y="23.711306"
     ry="1.43838" />
  <rect
     style="fill:url(#radialGradient10662-8);fill-opacity:1;stroke:none;stroke-width:3;stroke-miterlimit:4;stroke-dasharray:none;stroke-opacity:0.77314812"
     id="rect10654-4"
     width="149.15254"
     height="245.76271"
     x="121.18644"
     y="164.96611"
     ry="1.43838" />
  <rect
     style="fill:url(#radialGradient10662-8-3);fill-opacity:1;stroke:none;stroke-width:3;stroke-miterlimit:4;stroke-dasharray:none;stroke-opacity:0.77314812"
     id="rect10654-4-2"
     width="149.15254"
     height="245.76271"
     x="20.152832"
     y="318.19574"
     ry="1.43838"
     transform="rotate(-39.619306)" />
  <rect
     style="fill:url(#radialGradient10662-8-3-7);fill-opacity:1;stroke:none;stroke-width:2.28589487;stroke-miterlimit:4;stroke-dasharray:none;stroke-opacity:0.77314812"
     id="rect10654-4-2-9"
     width="115.91219"
     height="183.60626"
     x="-228.22261"
     y="398.51047"
     ry="1.0745957"
     transform="matrix(0.8314838,-0.55554899,0.71602304,0.69807664,0,0)" />
  <rect
     style="fill:url(#radialGradient10662-8-3-3);fill-opacity:1;stroke:none;stroke-width:1.54901028;stroke-miterlimit:4;stroke-dasharray:none;stroke-opacity:0.77314812"
     id="rect10654-4-2-1"
     width="75.986893"
     height="128.60977"
     x="219.41382"
     y="326.13138"
     ry="0.75271678"
     transform="matrix(0.95253023,0.30444401,-0.40528714,0.91418944,0,0)" />
  <path
     style="fill:none;stroke:#d3361f;stroke-width:3;stroke-linecap:butt;stroke-linejoin:miter;stroke-miterlimit:4;stroke-dasharray:none;stroke-opacity:0.7962963"
     d="m 403.33374,108.61016 c 0,0 7.07474,-6.29816 14.48756,-13.486508 7.41282,-7.188352 21.64487,-20.778928 29.66253,-29.96215 8.01766,-9.183222 14.52718,-19.495159 18.87616,-24.568965 4.34898,-5.073806 3.50469,-4.789403 6.29205,-6.591673 2.78736,-1.80227 4.5635,1.30334 10.18713,-3.595458 5.62363,-4.898798 17.3727,-30.158956 17.3727,-30.158956"
     id="path10773"
     inkscape:connector-curvature="0"
     sodipodi:nodetypes="czzzzzc" />
  <path
     style="fill:none;stroke:#d3361f;stroke-width:3;stroke-linecap:butt;stroke-linejoin:miter;stroke-miterlimit:4;stroke-dasharray:none;stroke-opacity:0.7962963"
     d="m 475.49221,0.24645 c 0,0 -12.69282,12.187857 -13.0273,19.372581 -0.33448,7.184724 10.18713,14.381833 10.18713,14.381833"
     id="path10775"
     inkscape:connector-curvature="0"
     sodipodi:nodetypes="czc" />
  <path
     style="fill:none;stroke:#d3361f;stroke-width:3;stroke-linecap:butt;stroke-linejoin:miter;stroke-miterlimit:4;stroke-dasharray:none;stroke-opacity:0.7962963"
     d="m 463.46244,17.249054 c 0,0 -23.96668,18.034897 -25.26688,25.440834 -1.3002,7.405937 8.7357,9.652423 6.59168,15.580319 -2.14402,5.927896 -14.40283,5.360319 -18.57654,9.587885 -4.17371,4.227566 -3.14888,9.772583 -6.59167,13.18335 -3.44279,3.410767 -8.34276,4.830194 -12.88373,6.29205 -4.54097,1.461856 -8.81991,-0.22237 -14.08221,2.39697 -5.2623,2.61934 -15.28069,14.381828 -15.28069,14.381828"
     id="path10777"
     inkscape:connector-curvature="0"
     sodipodi:nodetypes="czzzzzzc" />
  <path
     style="fill:none;stroke:#d3361f;stroke-width:3;stroke-linecap:butt;stroke-linejoin:miter;stroke-miterlimit:4;stroke-dasharray:none;stroke-opacity:0.7962963"
     d="M 438.76806,41.449148 392.65309,89.730462"
     id="path10779"
     inkscape:connector-curvature="0"
     sodipodi:nodetypes="cc" />
  <path
     style="fill:none;stroke:#d3361f;stroke-width:3;stroke-linecap:butt;stroke-linejoin:miter;stroke-miterlimit:4;stroke-dasharray:none;stroke-opacity:0.7962963"
     d="m 453.1917,27.48345 c 0,0 4.75391,4.906195 5.07851,9.813251 0.3246,4.907056 -2.6966,16.778805 -2.6966,16.778805"
     id="path10781"
     inkscape:connector-curvature="0"
     sodipodi:nodetypes="czc" />
  <path
     style="fill:none;stroke:#d3361f;stroke-width:3;stroke-linecap:butt;stroke-linejoin:miter;stroke-miterlimit:4;stroke-dasharray:none;stroke-opacity:0.7962963"
     d="m 419.61903,81.041442 11.68524,0.29962"
     id="path10783"
     inkscape:connector-curvature="0"
     sodipodi:nodetypes="cc" />
  <path
     style="fill:none;stroke:#d3361f;stroke-width:3;stroke-linecap:butt;stroke-linejoin:miter;stroke-miterlimit:4;stroke-dasharray:none;stroke-opacity:0.7962963"
     d="m 406.7353,87.333492 10.18714,8.53921"
     id="path10785"
     inkscape:connector-curvature="0"
     sodipodi:nodetypes="cc" />
  <path
     style="fill:none;stroke:#d3361f;stroke-width:3;stroke-linecap:butt;stroke-linejoin:miter;stroke-miterlimit:4;stroke-dasharray:none;stroke-opacity:0.7962963"
     d="m 463.46244,17.249054 c 0,0 5.12863,-4.513042 10.04561,-4.601834 4.91698,-0.08879 16.6301,3.498521 16.6301,3.498521"
     id="path10781-0"
     inkscape:connector-curvature="0"
     sodipodi:nodetypes="czc" />
  <path
     style="fill:url(#radialGradient10827);fill-opacity:1;stroke:none;stroke-width:1px;stroke-linecap:butt;stroke-linejoin:miter;stroke-opacity:1"
     d="m 437.69758,439.26688 c -1.62293,-0.0234 -4.51262,0.66696 -6.44186,1.57301 -1.92924,0.90605 -3.71119,1.55563 -4.94376,3.67036 -1.23257,2.11473 -2.7954,5.9082 -1.04867,8.46431 1.74673,2.55611 6.96087,2.50881 9.7377,2.47188 2.77683,-0.0369 4.71261,-0.90198 6.36696,-1.79773 1.65435,-0.89575 2.77422,-1.92585 3.52055,-3.07112 0.74633,-1.14527 1.05334,-1.91773 1.04867,-3.37074 -0.005,-1.45301 -0.5919,-3.71103 -1.57301,-4.94376 -0.98111,-1.23273 -2.53928,-1.69219 -3.67036,-2.17225 -1.13108,-0.48006 -1.37329,-0.80053 -2.99622,-0.82396 z"
     id="path10819"
     inkscape:connector-curvature="0"
     sodipodi:nodetypes="zzzzzzzzzzz" />
  <path
     style="fill:url(#radialGradient10827-8);fill-opacity:1;stroke:none;stroke-width:1px;stroke-linecap:butt;stroke-linejoin:miter;stroke-opacity:1"
     d="m 412.3403,453.06183 c -0.0934,1.62041 0.47159,4.5372 1.29354,6.50375 0.82195,1.96654 -1.6771,6.32164 0.38247,7.64433 2.05956,1.32269 12.0741,-2.1207 14.70321,-3.75549 2.62912,-1.63479 4.90423,-4.37423 4.98717,-7.15007 0.083,-2.77584 -3.84378,-6.7696 -4.6673,-8.46106 -0.82352,-1.69147 -1.65452,-2.48022 -2.76651,-3.27528 -1.112,-0.79506 -4.13959,-0.0789 -5.59144,-0.13696 -1.45188,-0.0577 -4.26278,-0.62813 -5.5367,0.29887 -1.27393,0.927 -2.44709,3.74039 -2.97552,4.8497 -0.52842,1.10931 0.26453,1.86181 0.17108,3.48221 z"
     id="path10819-0"
     inkscape:connector-curvature="0"
     sodipodi:nodetypes="zzzzzzzzzzz" />
  <path
     style="fill:url(#radialGradient10928);fill-opacity:1;stroke:none;stroke-width:0.94542664px;stroke-linecap:butt;stroke-linejoin:miter;stroke-opacity:1"
     d="m 114.37638,42.452132 c 2.25358,-0.781965 7.52281,-1.958049 10.01511,-1.201814 2.49231,0.756235 1.99881,2.308119 4.20635,3.605447 2.20753,1.29732 6.87658,1.87413 9.2139,3.40513 2.33731,1.53099 3.90196,2.75732 4.80725,5.00756 0.9053,2.25023 -1.75012,5.46714 0,7.61148 1.75013,2.14434 5.92968,0.10554 8.8133,1.80272 2.88362,1.69719 4.92622,5.98449 7.21088,8.4127 2.28466,2.42822 5.55243,3.07144 6.40967,6.20937 0.85724,3.13792 -1.67232,7.9563 -2.80423,10.21542 -1.1319,2.25911 -2.44821,1.57664 -2.80423,3.60544 -0.35602,2.0288 2.37425,4.0535 2.40363,7.41118 0.0294,3.357665 -0.92814,10.007385 -3.60544,11.817825 -2.67731,1.81045 -5.25639,-1.43237 -7.01058,-0.6009 -1.75419,0.83146 -2.18678,1.89675 -2.60393,3.80574 -0.41715,1.90898 2.16678,4.45816 1.20182,7.01057 -0.96496,2.55242 -6.40967,5.80877 -7.21089,5.80877 -0.80121,0 -4.13018,-1.98955 -5.60846,-1.20181 -1.47829,0.78774 1.53604,1.46277 -1.60242,4.00604 -3.13845,2.54327 -15.96145,0.74682 -19.62962,3.40514 -3.66817,2.65832 -0.46645,4.79568 -3.40514,6.40967 -2.93869,1.614 -9.20325,-0.29476 -12.819343,-1.00151 -3.6161,-0.70674 -5.68819,-1.30223 -8.8133,-2.80423 -3.1251,-1.502 -6.9425,-4.64229 -9.61451,-6.40968 -2.67202,-1.76739 -4.89326,-1.92673 -6.40967,-4.20634 -1.51642,-2.27961 -1.8046,-6.30602 -1.60242,-8.613 0.20217,-2.30698 2.92748,-2.39543 1.80272,-4.80725 -1.12475,-2.41182 -7.65308,-0.56862 -10.21542,-3.60544 -2.56233,-3.03682 -2.20332,-11.817825 -2.20332,-12.819335 0,-1.00152 0.27429,-7.03739 3.00453,-12.21844 2.73024,-5.18106 10.73764,-11.45331 15.02267,-16.82539 4.28503,-5.37208 6.74542,-13.12158 10.81633,-15.22297 4.0709,-2.10139 6.23705,1.52325 8.813293,0 2.57624,-1.52326 1.95586,-7.079838 4.40665,-8.012093 2.4508,-0.932256 4.41673,2.390043 6.20938,2.203323 1.79265,-0.18672 1.35185,-1.421359 3.60544,-2.203323 z"
     id="path10892"
     inkscape:connector-curvature="0"
     sodipodi:nodetypes="zzzzzzzzzzzzzzzzzzzzzzzzzzzzzzzzzzzz" />
  <path
     style="fill:url(#radialGradient10916);fill-opacity:1;stroke:none;stroke-width:1px;stroke-linecap:butt;stroke-linejoin:miter;stroke-opacity:1"
     d="m 79.024507,84.484715 c 2.65877,-1.49246 4.14887,-2.46128 7.41525,-1.90678 3.26638,0.5545 7.8853,2.44755 10.16949,6.77966 2.28419,4.33211 0.79173,12.117665 -0.21186,17.161015 -1.00359,5.04335 -2.09334,9.74067 -5.08475,12.71186 -2.99141,2.97119 -7.38222,5.91404 -10.80508,4.23729 -3.42286,-1.67675 -0.9105,-8.17476 -3.17797,-10.80509 -2.26747,-2.63033 -6.50254,-1.20188 -8.68644,-4.02542 -2.1839,-2.82354 -3.02517,-8.638185 -2.11864,-11.652535 0.90653,-3.01435 2.79674,-2.99363 4.87288,-5.08475 2.07614,-2.09112 4.96835,-5.92279 7.62712,-7.41525 z"
     id="path10894"
     inkscape:connector-curvature="0"
     sodipodi:nodetypes="zzzzzzzzzzz" />
  <path
     style="fill:url(#radialGradient10918);fill-opacity:1;stroke:none;stroke-width:1px;stroke-linecap:butt;stroke-linejoin:miter;stroke-opacity:1"
     d="m 95.973657,52.069455 c 2.68545,-0.13022 7.397043,1.64422 9.533903,4.02543 2.13686,2.38121 0.89674,5.67483 2.54237,8.47457 1.64563,2.79974 6.04357,4.44048 7.41526,7.62712 1.37169,3.18664 2.53925,7.19352 0.42373,10.16949 -2.11552,2.97597 -7.84414,3.6229 -11.22882,3.38983 -3.38468,-0.23307 -4.872793,-2.48488 -7.838983,-3.60169 -2.96619,-1.11681 -7.4046,-1.0015 -9.95763,-2.9661 -2.55303,-1.9646 -4.50063,-4.5779 -4.66102,-7.62712 -0.16039,-3.04922 2.57734,-5.68303 4.02543,-8.47458 1.44809,-2.79155 2.8461,-6.47871 4.66102,-8.26271 1.81492,-1.784 2.39929,-2.62402 5.08474,-2.75424 z"
     id="path10896"
     inkscape:connector-curvature="0"
     sodipodi:nodetypes="zzzzzzzzzzzz" />
  <path
     style="fill:url(#radialGradient10920);fill-opacity:1;stroke:none;stroke-width:1px;stroke-linecap:butt;stroke-linejoin:miter;stroke-opacity:1"
     d="m 124.57536,48.044035 c -3.44965,0.57445 -8.9031,2.31117 -11.01695,5.72034 -2.11385,3.40917 -0.6554,8.55792 -0.21187,11.65254 0.44353,3.09462 0.78853,4.53722 2.11865,6.77966 1.33012,2.24244 3.22291,4.40114 5.9322,6.14407 2.70929,1.74293 6.98701,2.21301 10.16949,3.6017 3.18248,1.38869 5.75732,4.27704 8.89831,4.66101 3.14099,0.38397 5.62551,0.74668 8.68644,-2.11864 3.06093,-2.86532 6.46916,-11.07583 4.87288,-15.4661 -1.59628,-4.39027 -7.59098,-3.75501 -9.95763,-6.35594 -2.36665,-2.60093 -2.32906,-5.99982 -4.23729,-8.26271 -1.90823,-2.26289 -4.15905,-3.9885 -6.77966,-5.08474 -2.62061,-1.09624 -5.02492,-1.84564 -8.47457,-1.27119 z"
     id="path10898"
     inkscape:connector-curvature="0"
     sodipodi:nodetypes="zzzzzzzzzzzzz" />
  <path
     style="fill:url(#radialGradient10908);fill-opacity:1;stroke:none;stroke-width:1px;stroke-linecap:butt;stroke-linejoin:miter;stroke-opacity:1"
     d="m 102.75332,92.323695 c -1.61991,2.31089 -2.07307,4.62343 -2.54237,8.686435 -0.469303,4.06301 -0.916613,11.59443 0.84746,15.4661 1.76407,3.87167 3.71417,6.00365 7.20339,6.99153 3.48922,0.98788 8.51671,-1.76518 11.44067,-2.54237 2.92396,-0.77719 3.88239,0.0139 6.14407,-1.90678 2.26168,-1.92064 3.50675,-7.58042 5.08475,-10.1695 1.578,-2.58908 2.07148,-3.85706 4.02542,-5.50847 1.95394,-1.65141 5.45944,-2.03243 7.62712,-3.813555 2.16768,-1.78113 5.32412,-4.31906 5.08475,-6.5678 -0.23937,-2.24874 -1.87041,-2.10334 -4.02543,-3.38983 -2.15502,-1.28649 -5.80764,-2.03282 -9.11017,-3.60169 -3.30253,-1.56887 -7.76911,-5.38008 -10.59322,-5.9322 -2.82411,-0.55212 -3.73437,0.18547 -5.08474,0.63559 -1.35037,0.45012 -1.30282,0.57842 -2.9661,1.69491 -1.66328,1.11649 -4.58904,3.63827 -6.77967,5.29661 -2.19063,1.65834 -4.73602,2.35013 -6.35593,4.66102 z"
     id="path10900"
     inkscape:connector-curvature="0"
     sodipodi:nodetypes="zzzzzzzzzzzzzzzzz" />
</svg>
