<?xml version="1.0" encoding="UTF-8" standalone="no"?>
<svg
   xmlns:dc="http://purl.org/dc/elements/1.1/"
   xmlns:cc="http://creativecommons.org/ns#"
   xmlns:rdf="http://www.w3.org/1999/02/22-rdf-syntax-ns#"
   xmlns:svg="http://www.w3.org/2000/svg"
   xmlns="http://www.w3.org/2000/svg"
   xmlns:xlink="http://www.w3.org/1999/xlink"
   xmlns:sodipodi="http://sodipodi.sourceforge.net/DTD/sodipodi-0.dtd"
   xmlns:inkscape="http://www.inkscape.org/namespaces/inkscape"
   aria-hidden="true"
   focusable="false"
   data-prefix="fas"
   data-icon="arrows-alt"
   class="svg-inline--fa fa-arrows-alt fa-w-16 tile-icon"
   role="img"
   viewBox="0 0 512 512"
   version="1.1"
   id="svg3785"
   sodipodi:docname="rum1.svg"
   inkscape:version="0.92.4 (5da689c313, 2019-01-14)">
  <metadata
     id="metadata3791">
    <rdf:RDF>
      <cc:Work
         rdf:about="">
        <dc:format>image/svg+xml</dc:format>
        <dc:type
           rdf:resource="http://purl.org/dc/dcmitype/StillImage" />
        <dc:title></dc:title>
      </cc:Work>
    </rdf:RDF>
  </metadata>
  <defs
     id="defs3789">
    <linearGradient
       inkscape:collect="always"
       id="linearGradient7806">
      <stop
         style="stop-color:#e8e186;stop-opacity:0.48235294"
         offset="0"
         id="stop7802" />
      <stop
         style="stop-color:#a59477;stop-opacity:0.10196079"
         offset="1"
         id="stop7804" />
    </linearGradient>
    <linearGradient
       id="linearGradient7776"
       inkscape:collect="always">
      <stop
         id="stop7772"
         offset="0"
         style="stop-color:#b2ac52;stop-opacity:0.29468599" />
      <stop
         id="stop7774"
         offset="1"
         style="stop-color:#50462a;stop-opacity:0.10144927" />
    </linearGradient>
    <linearGradient
       inkscape:collect="always"
       id="linearGradient7739-9">
      <stop
         style="stop-color:#432e0f;stop-opacity:1"
         offset="0"
         id="stop7735" />
      <stop
         style="stop-color:#221705;stop-opacity:1"
         offset="1"
         id="stop7737" />
    </linearGradient>
    <linearGradient
       inkscape:collect="always"
       id="linearGradient7731">
      <stop
         style="stop-color:#1e1e13;stop-opacity:1;"
         offset="0"
         id="stop7727" />
      <stop
         style="stop-color:#1e1e13;stop-opacity:0;"
         offset="1"
         id="stop7729" />
    </linearGradient>
    <linearGradient
       id="linearGradient7527"
       inkscape:collect="always">
      <stop
         id="stop7523"
         offset="0"
         style="stop-color:#c4c672;stop-opacity:0.42028984" />
      <stop
         id="stop7525"
         offset="1"
         style="stop-color:#c4c672;stop-opacity:0;" />
    </linearGradient>
    <linearGradient
       inkscape:collect="always"
       id="linearGradient7432-7">
      <stop
         style="stop-color:#757927;stop-opacity:0.68115944"
         offset="0"
         id="stop7428" />
      <stop
         style="stop-color:#3b3c1b;stop-opacity:0.22222222"
         offset="1"
         id="stop7430" />
    </linearGradient>
    <linearGradient
       inkscape:collect="always"
       id="linearGradient7326">
      <stop
         style="stop-color:#33301e;stop-opacity:1"
         offset="0"
         id="stop7361" />
      <stop
         style="stop-color:#221b13;stop-opacity:1"
         offset="1"
         id="stop7363" />
    </linearGradient>
    <linearGradient
       inkscape:collect="always"
       id="linearGradient7332-4-4-9">
      <stop
         style="stop-color:#c4c672;stop-opacity:1;"
         offset="0"
         id="stop7328" />
      <stop
         style="stop-color:#c4c672;stop-opacity:0;"
         offset="1"
         id="stop7330" />
    </linearGradient>
    <clipPath
       clipPathUnits="userSpaceOnUse"
       id="clipPath3802">
      <g
         transform="rotate(-135,258.18439,250.88315)"
         inkscape:label="Clip"
         id="use3804">
        <path
           sodipodi:nodetypes="csssccccscscsscccscsssscccscc"
           style="fill:currentColor;stroke:#ffffff;stroke-width:11.26750088"
           inkscape:connector-curvature="0"
           id="path34"
           d="m 49.835613,262.26122 1.5e-5,-126.19606 c -1.5e-5,-14.93555 12.106352,-27.0419 27.041899,-27.0419 l 126.196073,1e-5 c 24.09158,0 36.1573,29.12853 19.12078,46.16348 l -40.76242,40.76245 80.31542,80.31382 80.31382,-80.31382 -40.76245,-40.76246 c -17.03572,-17.03573 -4.97078,-46.16347 19.1216,-46.16429 l 126.1961,2e-5 c 14.93554,1e-5 27.04268,12.10714 27.04189,27.04191 l -1e-5,126.19606 c 0,24.09161 -29.12854,36.15733 -46.16427,19.12157 l -40.81583,-40.81579 -93.41373,91.42102 0.13308,106.13957 60.13644,0.25509 c 24.09203,0.1022 31.97587,28.83172 18.99041,41.46564 l -92.92937,93.62013 c -10.52184,10.60007 -28.60674,9.27033 -38.89095,-1.56047 l -86.7302,-91.33975 c -17.03942,-17.94503 -6.03409,-43.05248 13.89989,-42.92894 l 62.41968,0.38691 -0.0777,-105.97762 -93.3992,-91.48155 -40.816613,40.81658 c -17.035716,17.03575 -46.163468,4.97085 -46.164265,-19.12157 z" />
      </g>
    </clipPath>
    <radialGradient
       inkscape:collect="always"
       xlink:href="#linearGradient7326"
       id="radialGradient7366"
       cx="413.77847"
       cy="268.58032"
       fx="413.77847"
       fy="268.58032"
       r="68.969379"
       gradientTransform="matrix(0.73968414,0.43573264,-2.2069926,3.7465114,578.39533,-1001.0679)"
       gradientUnits="userSpaceOnUse" />
    <radialGradient
       inkscape:collect="always"
       xlink:href="#linearGradient7432-7"
       id="radialGradient7421"
       cx="411.62982"
       cy="267.79956"
       fx="411.62982"
       fy="267.79956"
       r="51.788982"
       gradientTransform="matrix(0.76486584,0.45588394,-1.8452261,3.0963536,469.68656,-833.38915)"
       gradientUnits="userSpaceOnUse" />
    <radialGradient
       inkscape:collect="always"
       xlink:href="#linearGradient7332-4-4-9"
       id="radialGradient7447"
       cx="415.20013"
       cy="267.79956"
       fx="415.20013"
       fy="267.79956"
       r="58.929821"
       gradientTransform="matrix(0.76986572,0.4454131,-1.4126356,2.4416429,351.98238,-653.30646)"
       gradientUnits="userSpaceOnUse" />
    <radialGradient
       inkscape:collect="always"
       xlink:href="#linearGradient7432-7"
       id="radialGradient7421-2"
       cx="411.62982"
       cy="267.79956"
       fx="411.62982"
       fy="267.79956"
       r="51.788982"
       gradientTransform="matrix(0.57770589,0.34820819,-1.8293873,3.0959931,541.62363,-788.68838)"
       gradientUnits="userSpaceOnUse" />
    <radialGradient
       inkscape:collect="always"
       xlink:href="#linearGradient7432-7"
       id="radialGradient7492"
       cx="411.37857"
       cy="267.79956"
       fx="411.37857"
       fy="267.79956"
       r="55.87545"
       gradientTransform="matrix(0.86686157,0.49854892,-1.2098552,2.1036591,257.5446,-585.09875)"
       gradientUnits="userSpaceOnUse" />
    <radialGradient
       inkscape:collect="always"
       xlink:href="#linearGradient7527"
       id="radialGradient7421-2-7"
       cx="411.62982"
       cy="267.79956"
       fx="411.62982"
       fy="267.79956"
       r="51.788982"
       gradientTransform="matrix(0.52882459,0.33785956,-1.6991725,2.8162627,526.45393,-711.3222)"
       gradientUnits="userSpaceOnUse" />
    <radialGradient
       inkscape:collect="always"
       xlink:href="#linearGradient7527"
       id="radialGradient7421-2-7-6"
       cx="411.62982"
       cy="267.79956"
       fx="411.62982"
       fy="267.79956"
       r="51.788982"
       gradientTransform="matrix(0.3524208,0.23640632,-1.6797827,2.8274142,592.57256,-673.14801)"
       gradientUnits="userSpaceOnUse" />
    <radialGradient
       inkscape:collect="always"
       xlink:href="#linearGradient7332-4-4-9"
       id="radialGradient7631"
       cx="408.31833"
       cy="147.53928"
       fx="408.31833"
       fy="147.53928"
       r="20.038597"
       gradientTransform="matrix(0.27927389,0.17642246,-0.74598975,1.1808897,343.42316,-168.57509)"
       gradientUnits="userSpaceOnUse" />
    <radialGradient
       inkscape:collect="always"
       xlink:href="#linearGradient7332-4-4-9"
       id="radialGradient7631-0"
       cx="413.71756"
       cy="195.64093"
       fx="413.71756"
       fy="195.64093"
       r="20.038597"
       gradientTransform="matrix(0.83562205,0.46941521,-0.19290608,0.34339877,35.024034,-169.23361)"
       gradientUnits="userSpaceOnUse" />
    <radialGradient
       inkscape:collect="always"
       xlink:href="#linearGradient7332-4-4-9"
       id="radialGradient7631-0-7"
       cx="411.36606"
       cy="122.09525"
       fx="411.36606"
       fy="122.09525"
       r="20.038597"
       gradientTransform="matrix(-0.16797782,0.28852278,-0.94743409,-0.55292949,542.23593,14.225819)"
       gradientUnits="userSpaceOnUse" />
    <linearGradient
       inkscape:collect="always"
       xlink:href="#linearGradient7731"
       id="linearGradient7733"
       x1="416.80377"
       y1="164.38858"
       x2="416.89978"
       y2="176.65976"
       gradientUnits="userSpaceOnUse"
       gradientTransform="rotate(29.904044,508.35277,-1.5315711)" />
    <radialGradient
       inkscape:collect="always"
       xlink:href="#linearGradient7739-9"
       id="radialGradient7741"
       cx="415.69623"
       cy="128.80235"
       fx="415.69623"
       fy="128.80235"
       r="17.611611"
       gradientTransform="matrix(0.62876743,0.35641943,-0.55511994,0.97929934,173.17902,-209.04221)"
       gradientUnits="userSpaceOnUse" />
    <radialGradient
       inkscape:collect="always"
       xlink:href="#linearGradient7776"
       id="radialGradient7741-6"
       cx="415.69623"
       cy="128.80235"
       fx="415.69623"
       fy="128.80235"
       r="17.61161"
       gradientTransform="matrix(0.4631093,0.25811359,-0.54312587,0.96939421,239.60438,-167.46335)"
       gradientUnits="userSpaceOnUse" />
    <radialGradient
       inkscape:collect="always"
       xlink:href="#linearGradient7806"
       id="radialGradient7741-6-4"
       cx="415.69623"
       cy="128.80235"
       fx="415.69623"
       fy="128.80235"
       r="17.61161"
       gradientTransform="matrix(0.36864722,0.20381846,-0.54320458,0.96438817,277.93199,-144.75991)"
       gradientUnits="userSpaceOnUse" />
    <radialGradient
       inkscape:collect="always"
       xlink:href="#linearGradient7806"
       id="radialGradient7741-6-4-6"
       cx="415.69623"
       cy="128.80235"
       fx="415.69623"
       fy="128.80235"
       r="17.61161"
       gradientTransform="matrix(0.26482118,0.14413143,-0.54394259,0.96001846,320.57261,-119.71117)"
       gradientUnits="userSpaceOnUse" />
    <radialGradient
       inkscape:collect="always"
       xlink:href="#linearGradient7806"
       id="radialGradient7741-6-4-6-6"
       cx="415.69623"
       cy="128.80235"
       fx="415.69623"
       fy="128.80235"
       r="17.61161"
       gradientTransform="matrix(0.18518992,0.09836561,-0.54368486,0.95523499,353.37756,-100.18779)"
       gradientUnits="userSpaceOnUse" />
    <radialGradient
       inkscape:collect="always"
       xlink:href="#linearGradient7806"
       id="radialGradient7741-6-4-6-6-7"
       cx="415.69623"
       cy="128.80235"
       fx="415.69623"
       fy="128.80235"
       r="17.61161"
       gradientTransform="matrix(0.11895202,0.06001544,-0.56244152,0.98423568,383.55272,-88.130935)"
       gradientUnits="userSpaceOnUse" />
  </defs>
  <sodipodi:namedview
     pagecolor="#ffffff"
     bordercolor="#666666"
     borderopacity="1"
     objecttolerance="10"
     gridtolerance="10"
     guidetolerance="10"
     inkscape:pageopacity="0"
     inkscape:pageshadow="2"
     inkscape:window-width="1920"
     inkscape:window-height="1017"
     id="namedview3787"
     showgrid="false"
     showguides="true"
     inkscape:guide-bbox="true"
     inkscape:zoom="0.65186406"
     inkscape:cx="-415.55303"
     inkscape:cy="293.70476"
     inkscape:window-x="-8"
     inkscape:window-y="-8"
     inkscape:window-maximized="1"
     inkscape:current-layer="svg3785"
     inkscape:snap-object-midpoints="false"
     inkscape:snap-text-baseline="false">
    <sodipodi:guide
       position="235.47854,471.72412"
       orientation="1,0"
       id="guide3822"
       inkscape:locked="false" />
    <sodipodi:guide
       position="281.50041,470.95709"
       orientation="1,0"
       id="guide3824"
       inkscape:locked="false" />
    <sodipodi:guide
       position="289.93775,381.21445"
       orientation="0,1"
       id="guide3826"
       inkscape:locked="false" />
    <sodipodi:guide
       position="241.22034,293.9661"
       orientation="0,1"
       id="guide3828"
       inkscape:locked="false" />
    <sodipodi:guide
       position="307.96298,498.18669"
       orientation="0,1"
       id="guide3830"
       inkscape:locked="false" />
    <sodipodi:guide
       position="160.3095,415.73085"
       orientation="1,0"
       id="guide3832"
       inkscape:locked="false" />
    <sodipodi:guide
       position="356.66945,393.48695"
       orientation="1,0"
       id="guide3834"
       inkscape:locked="false" />
  </sodipodi:namedview>
  <path
     style="fill:#0f0900;fill-opacity:0.73913042;stroke:none;stroke-width:3.20331264;stroke-linecap:butt;stroke-linejoin:miter;stroke-miterlimit:4;stroke-dasharray:none;stroke-opacity:0.29951692"
     d="m 190.06994,273.98548 c -5.34904,-22.65735 13.13852,-58.27766 21.24423,-70.88341 8.27438,-12.86805 32.83335,-37.94198 44.57503,-42.3983 12.02685,-4.56455 22.98533,-4.25002 29.65389,-4.7778 15.77295,-1.24835 34.33463,-36.89937 49.82014,-60.886409 0,0 3.21076,-3.506998 1.89731,-5.153925 -1.31343,-1.64693 -5.98597,-3.803166 -6.52268,-7.029685 -0.53672,-3.226493 10.99284,-18.901363 10.99284,-18.901363 0,0 0.71737,-3.18614 4.09133,-2.275162 3.37391,0.91094 8.38154,1.710755 12.57144,4.171816 3.84204,2.256702 21.36473,12.177106 26.66631,15.348425 5.24351,3.498976 10.20346,7.745916 8.70938,12.511633 -1.49412,4.765743 -6.55765,14.6315 -9.02136,15.75565 -2.46368,1.12412 -6.09427,1.74328 -9.065,0.44415 -15.08687,14.62171 -42.46243,65.84893 -36.67371,76.96311 2.86065,5.49234 10.19843,20.88164 9.92375,31.71931 -0.24634,9.72014 -8.28912,40.21016 -17.82884,58.53404 -6.96921,13.38649 -30.76646,47.57273 -47.25765,51.22685 -15.96693,3.53795 -26.09559,-3.19756 -48.60372,-15.7972 -20.75874,-11.62039 -42.35365,-26.63081 -45.1727,-38.57165 z"
     id="path7236-2-1"
     inkscape:connector-curvature="0"
     sodipodi:nodetypes="ssssccccsscsccssssss" />
  <path
     style="fill:#0f0900;fill-opacity:0.73913042;stroke:none;stroke-width:3.04340792;stroke-linecap:butt;stroke-linejoin:miter;stroke-miterlimit:4;stroke-dasharray:none;stroke-opacity:0.29951692"
     d="m 188.99599,267.21331 c -4.45054,-21.72866 13.73352,-56.5504 21.63209,-68.91199 8.06294,-12.61881 31.67167,-37.41457 42.77382,-42.00286 11.37175,-4.69974 21.62335,-4.6658 27.87942,-5.33901 14.79729,-1.59235 33.0515,-36.44555 48.13894,-59.969499 0,0 3.09215,-3.462575 1.90301,-5.019254 -1.18913,-1.556681 -5.51053,-3.522138 -5.93363,-6.621941 -0.42313,-3.099777 10.75637,-18.506691 10.75637,-18.506691 0,0 0.74997,-3.091687 3.88625,-2.295751 3.13624,0.795931 7.8047,1.444451 11.66675,3.715876 3.54139,2.082863 19.70215,11.223226 24.58746,14.152602 4.82292,3.246903 9.36197,7.222462 7.84601,11.857235 -1.51599,4.634804 -6.49911,14.278003 -8.83326,15.423183 -2.33415,1.14517 -5.74832,1.83184 -8.49756,0.65147 -14.48391,14.47832 -41.37274,64.57647 -36.22668,75.15725 2.54306,5.22875 9.03419,19.89614 8.5105,30.35926 -0.46968,9.38422 -8.74919,38.9993 -18.1309,56.91311 -6.8538,13.08691 -29.97351,46.65563 -45.5024,50.58677 -15.03522,3.80617 -24.35202,-2.44326 -45.11421,-14.04605 -19.14849,-10.70101 -38.99644,-24.65221 -41.34195,-36.10361 z"
     id="path7236-2"
     inkscape:connector-curvature="0"
     sodipodi:nodetypes="ssssccccsscsccssssss" />
  <path
     style="fill:url(#radialGradient7741);fill-opacity:1;stroke:none;stroke-width:1.65630007;stroke-linecap:butt;stroke-linejoin:miter;stroke-miterlimit:4;stroke-dasharray:none;stroke-opacity:0.29951692"
     d="m 380.28721,69.78397 c -0.12723,1.382148 -5.15449,10.209275 -6.13148,10.039824 -2.1812,-0.378279 -5.41186,-2.451807 -6.26659,-2.686714 -5.54187,-3.727419 -9.52232,-6.167287 -17.07158,-10.284534 -3.16603,-1.728214 -6.23394,-2.696587 -5.63424,-4.9753 0.45442,-1.726697 3.94317,-8.684693 6.10515,-9.265693 2.9619,-0.795971 10.92727,3.025741 14.64734,5.202361 4.34573,2.60579 12.8071,7.367918 14.3514,11.970056 z"
     id="path7236-59"
     inkscape:connector-curvature="0"
     sodipodi:nodetypes="csccsscc" />
  <path
     style="fill:url(#radialGradient7741-6-4-6);fill-opacity:1;stroke:none;stroke-width:1.10686815;stroke-linecap:butt;stroke-linejoin:miter;stroke-miterlimit:4;stroke-dasharray:none;stroke-opacity:0.29951692"
     d="m 369.66831,63.796974 c -0.38793,1.203471 -5.33537,9.845059 -5.86947,9.922577 -1.19241,0.17309 -2.6154,-0.856558 -3.063,-0.862384 -2.40236,-1.911153 -4.18166,-3.082121 -7.67196,-4.869423 -1.46342,-0.750854 -3.04163,-0.878173 -2.17354,-2.950708 0.65782,-1.570467 4.27988,-8.274737 5.67854,-9.258714 1.91614,-1.348043 5.71728,0.09373 7.40369,1.100018 1.95574,1.229181 5.83428,3.357716 5.69574,6.918634 z"
     id="path7236-59-2-5-2"
     inkscape:connector-curvature="0"
     sodipodi:nodetypes="csccsscc" />
  <path
     style="fill:url(#radialGradient7741-6-4);fill-opacity:1;stroke:none;stroke-width:1.31043553;stroke-linecap:butt;stroke-linejoin:miter;stroke-miterlimit:4;stroke-dasharray:none;stroke-opacity:0.29951692"
     d="m 372.98819,65.662287 c -0.29904,1.25902 -5.25515,9.931231 -5.93592,9.925596 -1.51984,-0.01256 -3.54422,-1.388732 -4.12678,-1.471406 -3.44708,-2.51363 -5.95849,-4.106108 -10.79805,-6.668707 -2.02942,-1.076026 -4.10172,-1.48516 -3.32687,-3.619294 0.58716,-1.617132 4.15123,-8.382007 5.80091,-9.227151 2.26004,-1.157851 7.44463,1.077266 9.80728,2.472586 2.75056,1.686646 8.15275,4.69111 8.57943,8.588376 z"
     id="path7236-59-2-5"
     inkscape:connector-curvature="0"
     sodipodi:nodetypes="csccsscc" />
  <path
     style="fill:url(#radialGradient7741-6);fill-opacity:1;stroke:none;stroke-width:1.47304773;stroke-linecap:butt;stroke-linejoin:miter;stroke-miterlimit:4;stroke-dasharray:none;stroke-opacity:0.29951692"
     d="m 376.40195,67.570283 c -0.21881,1.310706 -5.18817,10.020084 -6.00253,9.939099 -1.81814,-0.180765 -4.38955,-1.872365 -5.09503,-2.024752 -4.39728,-3.062174 -7.57468,-5.038251 -13.64186,-8.306024 -2.54437,-1.37184 -5.06657,-2.036661 -4.37535,-4.22892 0.52379,-1.661183 4.03918,-8.48829 5.91806,-9.208583 2.57406,-0.986808 9.01763,1.969469 11.9955,3.718762 3.47366,2.10286 10.26202,5.904194 11.20121,10.110418 z"
     id="path7236-59-2"
     inkscape:connector-curvature="0"
     sodipodi:nodetypes="csccsscc" />
  <path
     style="fill:url(#radialGradient7741-6-4-6-6);fill-opacity:1;stroke:none;stroke-width:0.92116153;stroke-linecap:butt;stroke-linejoin:miter;stroke-miterlimit:4;stroke-dasharray:none;stroke-opacity:0.29951692"
     d="m 367.32585,62.504791 c -0.45521,1.159247 -5.38857,9.764438 -5.8099,9.905307 -0.94074,0.31451 -1.90267,-0.449151 -2.24659,-0.396331 -1.60149,-1.448502 -2.81942,-2.296051 -5.27479,-3.488992 -1.02931,-0.501535 -2.22808,-0.413657 -1.29012,-2.436061 0.71073,-1.532477 4.37159,-8.180391 5.57657,-9.268824 1.65082,-1.491142 4.39047,-0.656959 5.55829,0.05093 1.34626,0.878196 4.05621,2.335107 3.48656,5.63398 z"
     id="path7236-59-2-5-2-3"
     inkscape:connector-curvature="0"
     sodipodi:nodetypes="csccsscc" />
  <path
     style="fill:url(#radialGradient7741-6-4-6-6-7);fill-opacity:1;stroke:none;stroke-width:0.74535024;stroke-linecap:butt;stroke-linejoin:miter;stroke-miterlimit:4;stroke-dasharray:none;stroke-opacity:0.29951692"
     d="m 365.89708,61.239269 c -0.53252,1.159383 -5.62536,10.031929 -5.95844,10.235587 -0.7438,0.454618 -1.31835,-0.09287 -1.57963,0.01535 -0.9262,-1.076686 -1.67413,-1.65854 -3.27034,-2.350482 -0.66892,-0.291384 -1.56308,-0.004 -0.5286,-2.051252 0.78388,-1.551322 4.60805,-8.380003 5.67828,-9.601833 1.46623,-1.673892 3.05778,-0.853778 3.79289,-0.393607 0.83674,0.588509 2.84911,0.971404 1.86593,4.146287 z"
     id="path7236-59-2-5-2-3-4"
     inkscape:connector-curvature="0"
     sodipodi:nodetypes="csccssccc" />
  <path
     style="fill:url(#radialGradient7366);fill-opacity:1;stroke:none;stroke-width:3;stroke-linecap:butt;stroke-linejoin:miter;stroke-miterlimit:4;stroke-dasharray:none;stroke-opacity:0.29951692"
     d="m 189.23264,266.04281 c -4.18049,-21.48945 13.95123,-56.14315 21.80357,-68.45735 8.01574,-12.57044 31.38293,-37.33716 42.31136,-41.97735 11.19384,-4.75289 21.2487,-4.80643 27.39062,-5.5266 14.52731,-1.70342 32.72811,-36.38888 47.72648,-59.823138 0,0 3.06234,-3.456775 1.90922,-4.988908 -1.15309,-1.532141 -5.37498,-3.442648 -5.76362,-6.510126 -0.38866,-3.067461 10.70759,-18.426689 10.70759,-18.426689 0,0 0.76189,-3.069408 3.83131,-2.307517 3.06938,0.761886 7.64287,1.36469 11.41161,3.582241 3.45583,2.033428 19.22919,10.951684 23.99601,13.81234 4.70291,3.175809 9.12117,7.075924 7.59485,11.680644 -1.52636,4.604758 -6.49599,14.200973 -8.79519,15.355373 -2.29915,1.1544 -5.65374,1.86373 -8.34027,0.71768 -14.32949,14.46732 -41.12909,64.32986 -36.1716,74.76885 2.44986,5.15867 8.6919,19.63496 8.08928,30.00558 -0.54048,9.30124 -8.91316,38.71231 -18.26744,56.53989 -6.83374,13.02391 -29.7959,46.47817 -45.06067,50.50492 -14.77949,3.89874 -23.86463,-2.21357 -44.13033,-13.5323 -18.69059,-10.43901 -38.03961,-24.09217 -40.2428,-35.41751 z"
     id="path7236"
     inkscape:connector-curvature="0"
     sodipodi:nodetypes="ssssccccsscsccssssss" />
  <path
     style="fill:url(#radialGradient7447);fill-opacity:1;stroke:none;stroke-width:2.75920653;stroke-linecap:butt;stroke-linejoin:miter;stroke-miterlimit:4;stroke-dasharray:none;stroke-opacity:0.29951692"
     d="m 196.16351,267.84647 c -2.45357,-20.30594 13.68196,-56.43239 21.37752,-68.66891 7.85569,-12.49117 31.95101,-35.94817 41.92886,-41.0261 10.22017,-5.20126 20.69335,-4.80117 26.19042,-5.84979 13.00205,-2.48032 31.1994,-36.71748 45.89323,-60.007147 0,0 2.92235,-3.485271 1.98799,-4.882913 -0.93432,-1.397645 -4.57197,-2.977306 -4.7374,-5.888038 -0.16542,-2.910731 10.5896,-18.249393 10.5896,-18.249393 0,0 0.85652,-2.979995 3.53794,-2.431245 2.68139,0.548752 7.08796,0.615336 10.0005,2.974614 2.91255,2.359322 16.03481,9.870532 20.30994,12.137472 4.27516,2.266942 7.80325,5.680274 6.17784,10.173325 -1.62545,4.493098 -6.60149,13.961425 -8.71111,15.200155 -2.10961,1.23871 -5.13051,2.11364 -7.44936,1.17508 -13.57432,14.67517 -40.29794,63.93043 -36.50673,73.62301 1.87351,4.7898 7.37391,19.169 7.69838,28.54241 0.30487,8.80715 -8.33454,39.70637 -17.38102,57.45729 -6.57211,12.8958 -26.72689,44.89006 -47.00548,49.40961 -13.56039,3.02225 -20.02277,-2.922 -37.35821,-12.55884 -15.98807,-8.88783 -35.24981,-20.42897 -36.54289,-31.13057 z"
     id="path7236-1-1"
     inkscape:connector-curvature="0"
     sodipodi:nodetypes="csssccccsscsccssssssc" />
  <path
     style="fill:url(#radialGradient7492);fill-opacity:1;stroke:none;stroke-width:2.68968391;stroke-linecap:butt;stroke-linejoin:miter;stroke-miterlimit:4;stroke-dasharray:none;stroke-opacity:0.29951692"
     d="m 194.79932,267.04167 c -1.88532,-20.02043 14.47389,-56.11751 22.15955,-68.39615 7.8456,-12.53415 31.56316,-36.28999 41.27635,-41.54377 9.94909,-5.38139 20.01072,-5.23028 25.32115,-6.39545 12.56062,-2.75596 30.85836,-37.03311 45.53157,-60.404025 0,0 2.89147,-3.514319 2.02563,-4.874437 -0.86582,-1.360131 -4.32689,-2.837118 -4.41801,-5.711273 -0.0911,-2.874147 10.60887,-18.291517 10.60887,-18.291517 0,0 0.89319,-2.966495 3.45882,-2.486518 2.56559,0.479988 6.80139,0.44296 9.547,2.707728 2.7456,2.264812 15.18858,9.385269 19.24659,11.526926 4.05807,2.14166 7.37099,5.434279 5.70312,9.914769 -1.66792,4.480541 -6.6739,13.95861 -8.73142,15.23267 -2.05751,1.27403 -4.98281,2.209647 -7.1907,1.33577 -13.39559,14.827107 -40.24274,64.152597 -36.8234,73.647727 1.68975,4.69223 6.64323,18.78142 6.73642,28.04189 0.0876,8.70105 -8.94138,39.45466 -18.05481,57.21725 -6.62076,12.90427 -26.7484,45.00943 -46.3537,49.95156 -13.11017,3.30485 -19.05769,-3.44041 -35.5024,-12.56424 -15.16658,-8.41469 -33.54709,-18.35781 -34.54069,-28.90894 z"
     id="path7236-1-1-1"
     inkscape:connector-curvature="0"
     sodipodi:nodetypes="csssccccsscsccssssssc" />
  <path
     style="fill:url(#radialGradient7421);fill-opacity:1;fill-rule:nonzero;stroke:none;stroke-width:2.58958626;stroke-linecap:butt;stroke-linejoin:miter;stroke-miterlimit:4;stroke-dasharray:none;stroke-opacity:0.29951692"
     d="m 197.61204,268.66015 c -1.1481,-19.59828 15.45486,-55.55956 23.10693,-67.85913 7.8113,-12.55553 30.97781,-36.63189 40.3237,-42.09796 9.57287,-5.59884 19.077,-5.7689 24.13259,-7.08104 11.95783,-3.1036 30.33525,-37.33925 44.94207,-60.751417 0,0 2.84387,-3.542205 2.06863,-4.850295 -0.77521,-1.308103 -3.99941,-2.648812 -3.99455,-5.468037 0.005,-2.819235 10.60503,-18.296085 10.60503,-18.296085 0,0 0.938,-2.941057 3.34751,-2.550954 2.40945,0.390086 6.33548,0.389746 8.8586,2.526614 2.5231,2.136903 14.13543,8.564568 17.90275,10.53902 3.76734,1.974456 6.79409,5.102606 5.07603,9.554772 -1.7181,4.452205 -6.74905,13.917105 -8.73391,15.233185 -1.9848,1.31608 -4.77901,2.32735 -6.83795,1.53917 -13.129,14.982617 -40.06243,64.264727 -37.13144,73.479727 1.44843,4.55381 5.68389,18.23112 5.47888,27.32098 -0.19263,8.54074 -9.69889,39.02331 -18.87385,56.75273 -6.66549,12.88017 -26.70352,45.04107 -45.38825,50.51422 -12.49457,3.65993 -17.27871,-3.58728 -32.5313,-12.02548 -14.0671,-7.78234 -31.7464,-16.15138 -32.3515,-26.48004 z"
     id="path7236-1-1-1-4"
     inkscape:connector-curvature="0"
     sodipodi:nodetypes="csssccccsscsccssssssc" />
  <path
     style="fill:url(#radialGradient7421-2);fill-opacity:1;fill-rule:nonzero;stroke:none;stroke-width:2.25122714;stroke-linecap:butt;stroke-linejoin:miter;stroke-miterlimit:4;stroke-dasharray:none;stroke-opacity:0.29951692"
     d="m 204.86341,273.29238 c 1.09665,-18.26415 18.39819,-53.72 25.92842,-66.0516 7.68693,-12.58823 29.11815,-37.57741 37.32304,-43.675 8.40415,-6.24569 16.18848,-7.392 20.45608,-9.14772 10.09405,-4.15276 28.6665,-38.1742 43.03388,-61.651614 0,0 2.69175,-3.617891 2.19406,-4.764399 -0.49768,-1.146525 -2.99325,-2.069353 -2.69657,-4.714318 0.29668,-2.64497 10.56594,-18.263003 10.56594,-18.263003 0,0 1.07189,-2.856131 3.0004,-2.740391 1.92848,0.115737 5.21842,-0.459869 7.05842,1.282564 1.83998,1.742467 10.58046,6.733632 13.45407,8.194529 2.87362,1.460892 5.02225,4.080869 3.15601,8.435413 -1.86627,4.354596 -6.96023,13.755109 -8.71891,15.195675 -1.7586,1.440577 -4.14699,2.679277 -5.74771,2.153727 -12.28449,15.416977 -39.41106,64.440487 -37.97267,72.779917 0.71083,4.12112 2.7519,16.5108 1.64058,25.05845 -1.04418,8.03129 -11.97754,37.61122 -21.31604,55.19419 -6.78428,12.77378 -25.65854,47.32738 -42.33557,52.09536 -9.48478,2.71171 -13.49434,-1.68052 -25.08246,-8.01196 -10.68745,-5.83934 -24.51899,-11.74432 -23.94106,-21.36987 z"
     id="path7236-1-1-1-4-1"
     inkscape:connector-curvature="0"
     sodipodi:nodetypes="csssccccsscsccssssssc" />
  <path
     style="fill:url(#radialGradient7421-2-7);fill-opacity:1;fill-rule:nonzero;stroke:none;stroke-width:1.87057269;stroke-linecap:butt;stroke-linejoin:miter;stroke-miterlimit:4;stroke-dasharray:none;stroke-opacity:0.29951692"
     d="m 212.58163,274.78182 c 3.15391,-16.89161 20.96137,-51.60146 28.31983,-63.86487 7.51158,-12.51861 19.32648,-33.87737 23.30773,-41.52215 1.95118,-3.74663 22.24553,-10.60453 25.75411,-12.75458 8.29876,-5.08547 29.01789,-40.12139 43.05109,-63.472911 0,0 2.53044,-3.658888 2.29213,-4.647606 -0.23832,-0.988732 -2.04352,-1.519658 -1.48061,-3.983296 0.56292,-2.463632 10.4463,-18.087881 10.4463,-18.087881 0,0 1.18662,-2.755345 2.65719,-2.893025 1.47052,-0.137682 4.07698,-1.081642 5.27369,0.28396 1.19668,1.365645 7.29684,4.838664 9.32516,5.815333 2.02833,0.976674 3.35176,3.108196 1.36392,7.338407 -1.98786,4.230272 -7.09946,13.497066 -8.63606,15.040789 -1.53648,1.543747 -3.53247,2.981941 -4.69875,2.702288 -11.40995,15.694632 -38.49944,64.091842 -38.44616,71.559382 0.0263,3.69025 0.0316,14.79671 -1.905,22.77765 -1.81965,7.49879 -13.97984,36.01369 -23.39487,53.32261 -6.8399,12.57467 -22.30443,46.22127 -35.39549,54.71233 -8.75406,5.67802 -15.57401,-0.11885 -23.69774,-4.46119 -7.49232,-4.00483 -29.25056,-22.83489 -20.64764,-20.00617 z"
     id="path7236-1-1-1-4-1-2"
     inkscape:connector-curvature="0"
     sodipodi:nodetypes="csssccccsscsccssssssc" />
  <path
     style="fill:url(#radialGradient7421-2-7-6);fill-opacity:1;fill-rule:nonzero;stroke:none;stroke-width:1.53725266;stroke-linecap:butt;stroke-linejoin:miter;stroke-miterlimit:4;stroke-dasharray:none;stroke-opacity:0.29951692"
     d="m 216.92033,277.42517 c 4.75437,-15.97116 23.0875,-50.37868 30.37142,-62.68496 7.4355,-12.56237 25.89889,-38.88444 32.18939,-45.97465 6.44329,-7.26239 11.37096,-9.99526 14.32528,-12.46407 6.98781,-5.83943 25.76177,-39.29699 39.6478,-62.733154 0,0 2.42649,-3.718674 2.38502,-4.594182 -0.0415,-0.875516 -1.33182,-1.110344 -0.56058,-3.45417 0.77124,-2.343821 10.43563,-18.094014 10.43563,-18.094014 0,0 1.28372,-2.699502 2.41487,-3.032389 1.13111,-0.332884 3.23418,-1.566356 3.94737,-0.478835 0.71316,1.087565 4.83797,3.424525 6.23447,4.037821 1.39651,0.613302 2.09806,2.387166 0.002,6.554939 -2.09644,4.167833 -7.2612,13.404056 -8.63979,15.038644 -1.37825,1.634752 -3.08911,3.236929 -3.93165,3.143469 -10.82847,16.029051 -38.09962,64.321781 -39.107,71.179311 -0.49783,3.3888 -2.05202,13.59836 -4.63592,21.20705 -2.42782,7.14902 -15.62215,35.06917 -25.16883,52.30238 -6.93553,12.51966 -24.57,45.76124 -35.65885,55.40381 -7.41517,6.44804 -9.80997,1.72361 -15.34276,-1.12863 -5.10275,-2.63055 -18.97568,-18.89385 -11.00748,-15.20147 z"
     id="path7236-1-1-1-4-1-2-2"
     inkscape:connector-curvature="0"
     sodipodi:nodetypes="csssccccsscsccssssssc" />
  <path
     style="fill:#c4c672;fill-opacity:0.30434798;stroke:none;stroke-width:1.01198864px;stroke-linecap:butt;stroke-linejoin:miter;stroke-opacity:1"
     d="m 272.78008,165.18499 c -3.25903,0.53348 -5.62056,1.77551 -8.09543,5.58468 -2.60946,3.88194 -5.24462,13.63254 -7.14171,17.13746 -4.18221,7.72676 -35.34738,63.53205 -39.14809,71.15296 -4.79673,8.54922 -6.55904,15.01583 -12.28251,12.2613 -7.20988,-3.69561 -7.8574,-2.50251 -5.96454,0.38982 1.89286,2.89234 10.75547,11.25341 15.76617,14.13516 5.01071,2.88176 38.95519,19.93541 41.54411,20.07156 9.66133,-1.33622 0.68728,-4.38376 -9.0327,-10.46143 -3.01067,-1.86765 -11.27486,-5.6123 -11.60869,-11.21546 -0.33379,-5.60315 15.53491,-31.6493 15.53491,-31.6493 0,0 31.01341,-46.19565 34.29839,-48.81571 5.47328,-5.80123 13.87528,-11.15289 14.05747,-17.43325 0.0548,-6.92196 -0.44766,-9.32302 1.08364,-14.30443 0.50203,-18.79037 41.4582,-71.96811 39.54019,-82.680598 -28.56479,26.392588 -29.21312,69.664168 -68.55121,75.827238 z"
     id="path7553"
     inkscape:connector-curvature="0"
     sodipodi:nodetypes="ccsccssccccccccc" />
  <path
     style="fill:#c4c672;fill-opacity:0.30434798;stroke:none;stroke-width:0.8690297px;stroke-linecap:butt;stroke-linejoin:miter;stroke-opacity:1"
     d="m 275.3458,166.41254 c -4.52327,1.29957 -7.47956,2.31012 -9.07945,4.96345 -2.22186,3.33063 -5.32253,13.33634 -6.77866,17.0082 -1.45613,3.67185 -14.85804,24.12471 -16.95025,28.3326 -2.09222,4.20788 -20.19417,40.24291 -21.94808,43.29256 -1.75392,3.04966 -3.7323,10.47954 -3.7323,10.47954 0,0 -0.60911,5.7415 -5.97701,3.10525 -5.36793,-2.63627 -6.02307,-1.44756 -4.8319,1.04122 1.19115,2.48877 7.38126,9.46925 11.07628,11.59433 3.69503,2.12508 33.11774,16.91948 35.18039,16.75296 7.90668,-2.34535 -3.3197,-6.74354 -10.43215,-11.32158 -2.20468,-1.40411 -8.18055,-4.27513 -7.81269,-9.47473 0.36789,-5.19959 16.06118,-31.34662 16.06118,-31.34662 0,0 30.13628,-46.70011 33.07043,-49.52194 7.65105,-7.10483 16.43334,-7.55582 16.58764,-16.04404 0.0186,-6.3023 -2.62698,-10.51045 -0.83254,-15.34052 2.53527,-17.62102 42.94606,-70.986627 42.6221,-80.782355 -24.72491,28.020165 -32.49213,63.814635 -66.22299,77.261675 z"
     id="path7553-4"
     inkscape:connector-curvature="0"
     sodipodi:nodetypes="ccscsccssccccccccc" />
  <path
     style="fill:#c4c672;fill-opacity:0.30434798;stroke:none;stroke-width:0.77706319px;stroke-linecap:butt;stroke-linejoin:miter;stroke-opacity:1"
     d="m 278.98206,166.73415 c -3.91838,2.25577 -7.78912,2.68511 -9.78053,6.21931 -2.50644,3.71998 -4.56961,13.87997 -6.12449,17.49504 -1.55489,3.61504 -14.70991,24.2099 -16.8515,28.38939 -2.1416,4.17948 -20.63858,39.98732 -22.39249,43.03697 -1.75392,3.04966 -4.07795,10.28075 -4.07795,10.28075 0,0 -1.01475,5.50821 -5.34569,3.46833 -4.33098,-2.0399 -4.99042,-0.85365 -4.19427,1.40794 0.79612,2.26158 5.57487,8.23484 8.52922,9.93394 2.95433,1.69909 26.21,13.25283 27.97636,12.91591 6.91888,-2.91345 -1.68338,-6.35549 -7.32787,-10.08927 -1.75094,-1.14316 -6.80239,-3.0401 -6.0395,-8.01251 0.76293,-4.9724 16.35747,-31.17623 16.35747,-31.17623 0,0 29.64248,-46.9841 32.37912,-49.91952 6.8975,-7.20551 15.65369,-8.44721 16.50695,-16.40329 0.56181,-5.98991 -2.34876,-10.03759 -0.40619,-14.78247 3.67991,-16.96272 42.62668,-71.170317 43.20014,-80.449922 -21.2743,28.911832 -33.99123,60.876862 -62.40878,77.685632 z"
     id="path7553-4-0"
     inkscape:connector-curvature="0"
     sodipodi:nodetypes="ccscsccssccccccccc" />
  <path
     style="fill:#c4c672;fill-opacity:0.66666667;stroke:none;stroke-width:0.68800932px;stroke-linecap:butt;stroke-linejoin:miter;stroke-opacity:1"
     d="m 281.40117,169.07724 c -3.4928,2.50052 -6.7873,3.04006 -8.71465,6.3899 -2.23036,3.54695 -5.4597,13.20214 -7.0997,16.76826 -1.64001,3.56609 -14.58224,24.28333 -16.76639,28.43834 -2.18415,4.155 -21.02159,39.76704 -22.7755,42.8167 -1.75392,3.04966 -4.37584,10.10942 -4.37584,10.10942 0,0 -1.36436,5.30715 -4.8016,3.78125 -3.43728,-1.52591 -4.10043,-0.3418 -3.64474,1.72399 0.45567,2.06577 4.26229,6.73695 6.57827,8.06892 2.31599,1.33197 20.55446,10.3561 22.06548,9.87232 6.06754,-3.40307 -1.01579,-5.58443 -5.39513,-8.5906 -1.3599,-0.91826 -5.41402,-2.24162 -4.31067,-7.01823 1.10337,-4.7766 16.6128,-31.02937 16.6128,-31.02937 0,0 29.21692,-47.22886 31.78332,-50.26218 6.23082,-7.15595 13.94834,-9.70312 15.35851,-17.06378 1.02994,-5.72069 -1.03007,-9.2792 1.04017,-13.95065 4.66639,-16.39537 43.02891,-70.938987 44.37579,-79.773778 -20.46814,27.501178 -33.92663,60.470558 -59.93012,79.719488 z"
     id="path7553-4-0-7"
     inkscape:connector-curvature="0"
     sodipodi:nodetypes="ccscsccssccccccccc" />
  <path
     style="fill:#fff8c0;fill-opacity:0.37198067;stroke:none;stroke-width:0.54272121px;stroke-linecap:butt;stroke-linejoin:miter;stroke-opacity:1"
     d="m 285.94484,170.55341 c -2.90497,2.8176 -4.01934,2.23273 -7.62055,7.35139 -2.26403,4.33077 -5.60323,13.2637 -7.34991,16.74748 -1.74669,3.48375 -14.34289,24.26892 -16.57404,28.37172 -2.23114,4.10279 -21.43814,39.2861 -23.18389,42.32156 -1.74576,3.03547 -4.75556,9.83226 -4.75556,9.83226 0,0 -1.82754,5.01241 -4.0485,4.18392 -2.221,-0.8285 -2.88603,0.34724 -2.88972,2.14044 -0.004,1.7932 3.47996,5.08866 4.92782,5.92135 1.44787,0.83269 12.27359,7.16341 13.43465,6.48464 2.24075,-3.30379 -1.38137,-4.78729 -4.04118,-6.80226 -0.82837,-0.61193 -2.66819,-2.03514 -1.11271,-6.52655 1.55549,-4.49139 16.8784,-30.68772 16.8784,-30.68772 0,0 28.50937,-47.33774 30.8352,-50.48843 4.95355,-6.12508 11.98553,-12.34678 13.7446,-17.87144 1.65385,-5.33247 0.74578,-8.21743 2.97785,-12.76853 5.9696,-15.55707 41.78462,-71.209217 44.16399,-79.405488 -18.19137,27.360808 -33.28105,59.446588 -55.38645,81.195658 z"
     id="path7553-4-0-7-7"
     inkscape:connector-curvature="0"
     sodipodi:nodetypes="ccscsccssccccccccc" />
  <path
     style="fill:url(#radialGradient7631);fill-opacity:1;stroke:none;stroke-width:1.07221174px;stroke-linecap:butt;stroke-linejoin:miter;stroke-opacity:1"
     d="m 340.34388,62.223704 c 1.61794,-0.416049 4.35761,0.486312 5.30786,0.359524 0.95024,-0.126773 3.1445,-1.109072 4.6514,-0.242425 1.5069,0.866648 13.03143,8.504548 14.63531,9.202543 1.60388,0.698003 11.36146,5.524274 11.53859,6.52382 0.17712,0.999564 -0.56717,3.601266 -1.84561,3.427067 -1.27848,-0.174206 -2.56538,0.320013 -4.78003,-0.841458 -2.21468,-1.161458 -5.70498,-2.719976 -7.91964,-3.881446 -2.21467,-1.161459 -3.77004,-1.943816 -4.43774,-1.654532 -0.66769,0.289262 -7.41492,8.75227 -7.19212,9.890329 0.22281,1.13805 1.65592,4.094326 3.16282,4.960974 1.50689,0.866642 6.5013,3.514583 7.10924,4.200909 0.60796,0.686286 1.15057,2.793764 0.71411,3.552664 -0.43646,0.7589 -1.01841,1.77077 -2.24557,1.28944 -1.22717,-0.48134 -20.59681,-10.38686 -21.44444,-10.874346 -0.84762,-0.487486 -8.38492,-4.597904 -8.47347,-5.097692 -0.0886,-0.499784 0.55029,-2.264411 1.60034,-2.782634 1.05004,-0.518242 5.53066,1.497592 6.34386,0.955345 0.81317,-0.54224 3.04115,-4.198266 3.47762,-4.957177 0.43646,-0.758903 3.14097,-4.58971 3.39468,-5.902564 0.25371,-1.312863 0.55032,-2.26441 -0.24601,-3.059031 -0.79632,-0.794621 -3.37647,-3.064004 -3.79607,-3.64196 -0.41959,-0.577971 0.44488,-1.42734 0.44488,-1.42734 z"
     id="path7623"
     inkscape:connector-curvature="0" />
  <path
     style="fill:url(#radialGradient7631-0);fill-opacity:1;stroke:none;stroke-width:1.07221174px;stroke-linecap:butt;stroke-linejoin:miter;stroke-opacity:1"
     d="m 340.98454,61.653652 c 1.61794,-0.41605 4.35762,0.486311 5.30786,0.359524 0.95025,-0.126774 3.0431,-0.932762 4.55,-0.06611 1.5069,0.866647 13.13283,8.328237 14.73672,9.026231 1.60388,0.698004 11.36145,5.524275 11.53858,6.523821 0.17712,0.999563 -0.56716,3.601265 -1.84561,3.427066 -1.27847,-0.174205 -2.56537,0.320013 -4.78003,-0.841458 -2.21467,-1.161458 -5.70498,-2.719975 -7.91963,-3.881446 -2.21468,-1.161458 -3.77004,-1.943816 -4.43774,-1.654531 -0.6677,0.289262 -7.41492,8.752261 -7.19212,9.890329 0.22281,1.13805 1.65591,4.094326 3.16281,4.960973 1.50689,0.866643 8.3483,3.090843 8.95624,3.777169 0.60795,0.686286 -0.37319,3.403397 -0.80965,4.162307 -0.43646,0.7589 -1.32488,3.119593 -2.55204,2.63825 -1.22717,-0.48134 -20.61356,-11.92159 -21.46119,-12.409076 -0.84763,-0.487486 -7.99388,-4.370159 -8.2788,-4.790254 -0.9124,-1.345091 -0.49434,-3.43309 0.34934,-4.245102 0.69312,-0.667084 6.58701,2.652588 7.40021,2.110341 0.81316,-0.54224 3.04115,-4.198266 3.47762,-4.957177 0.43645,-0.758903 3.14096,-4.589711 3.39467,-5.902565 0.25372,-1.312863 0.55032,-2.26441 -0.246,-3.059031 -0.79633,-0.794621 -3.37647,-3.064003 -3.79607,-3.64196 -0.4196,-0.57797 0.44488,-1.427339 0.44488,-1.427339 z"
     id="path7623-4"
     inkscape:connector-curvature="0"
     sodipodi:nodetypes="ccscccccccscscssscscsccc" />
  <path
     style="fill:url(#radialGradient7631-0-7);fill-opacity:1;stroke:none;stroke-width:1.02762783px;stroke-linecap:butt;stroke-linejoin:miter;stroke-opacity:1"
     d="m 350.74586,62.219536 c 1.51897,0.845324 11.55244,6.892425 13.06456,7.771696 1.47352,0.856677 9.47855,4.990566 9.68727,5.935188 0.20871,0.94463 1.71449,4.665519 0.4558,4.456975 -1.25873,-0.208524 -2.60254,0.04467 -4.81325,-1.123653 -2.21068,-1.168393 -5.68523,-2.754321 -7.89594,-3.922648 -2.21069,-1.168394 -3.76214,-1.957547 -4.40615,-1.709465 -0.644,0.24806 -6.95681,7.95572 -6.69846,9.03198 0.25834,1.076261 1.76648,3.902065 3.27338,4.768713 1.5069,0.866642 6.49341,3.528314 7.11319,4.19406 0.6198,0.665681 1.2256,2.663291 0.82469,3.360386 -0.40092,0.697115 -0.93548,1.626575 -2.15474,1.131515 -1.21928,-0.49507 -20.54547,-10.476129 -21.3931,-10.963615 -0.84763,-0.487487 -8.37703,-4.611635 -8.48137,-5.083961 -0.10437,-0.472313 0.45946,-2.106477 1.47002,-2.556028 1.01055,-0.449577 5.47142,1.600593 6.24907,1.120144 0.77763,-0.480441 2.83185,-3.834331 3.23278,-4.531444 0.40091,-0.697104 2.91586,-4.198313 3.11823,-5.421898 0.20238,-1.223593 0.45949,-2.106468 -0.34868,-2.880501 -1.28333,-1.576898 -4.32779,-2.942762 -1.25739,-4.392434 1.3594,-0.641833 3.13471,-0.160893 4.24292,0.03549 2.04677,0.36269 3.8326,0.287229 4.71717,0.7795 z"
     id="path7623-4-5"
     inkscape:connector-curvature="0"
     sodipodi:nodetypes="ssssccccscscscccsccsss" />
  <path
     style="fill:url(#linearGradient7733);fill-opacity:1;stroke:none;stroke-width:1px;stroke-linecap:butt;stroke-linejoin:miter;stroke-opacity:1"
     d="m 325.5461,80.768367 c 0.77132,0.834645 2.40654,2.478976 3.39681,3.204922 0.99027,0.725937 0.98143,0.877271 1.40013,1.50913 0.41871,0.63185 0.6611,1.162295 0.2217,1.926312 -0.4394,0.764017 -2.54078,3.465934 -2.67598,3.701009 -0.1352,0.235085 -3.92659,5.875513 -4.12208,6.623383 -0.19549,0.74787 0.0201,4.860557 2.7735,6.600497 2.75338,1.73993 19.28549,10.93503 19.52057,11.07023 0.23508,0.1352 5.89773,1.98413 6.78962,1.79319 0.89191,-0.19093 2.52741,-1.6748 2.95797,-2.28748 0.43058,-0.61268 4.98018,-6.75555 5.82366,-7.67822 0.84348,-0.92265 2.38507,-4.30192 3.3842,-4.05796 0.99917,0.24397 0.66266,0.28513 1.14168,0.40415 0.47899,0.11905 2.24361,0.58646 -1.49271,-1.48417 -3.73633,-2.07062 -35.8249,-20.525382 -35.8249,-20.525382 0,0 -2.99728,-1.723792 -3.32494,-1.834022 -0.32765,-0.110225 0.0308,1.034411 0.0308,1.034411 z"
     id="path7725"
     inkscape:connector-curvature="0" />
</svg>
